<svg xmlns="http://www.w3.org/2000/svg" viewBox="0 0 64 80" x="0px" y="0px"><title>cement, building material, construction, concrete, binder, mixing,</title><g><path d="M15.2188,36.3755l8-10a1.0017,1.0017,0,0,1,1.6387.11l2.5236,4.206.619-.31V28a1,1,0,0,1,.6836-.9487l3-1a1,1,0,0,1,.6328,1.8975L30,28.7207V31a1,1,0,0,1-.5527.8945l-1.0341.517,2.4443,4.0738A1,1,0,0,1,30,38H16A1.0009,1.0009,0,0,1,15.2188,36.3755ZM61,62H25A67.6282,67.6282,0,0,1,8.3086,60.106l-.9814.981a3.1212,3.1212,0,0,1-4.4141-4.4141L3.93,55.6563a146.4976,146.4976,0,0,1,0-47.3125L2.9131,7.3271A3.1212,3.1212,0,0,1,7.3271,2.9131l.9814.9814a66.1693,66.1693,0,0,1,31.3828,0l.9814-.9814a3.1989,3.1989,0,0,1,4.4141,0,3.125,3.125,0,0,1,0,4.4141L44.07,8.3442a146.5336,146.5336,0,0,1,1.6313,32.7683A5.0075,5.0075,0,0,1,46.87,42.15L61.7744,60.3667A1.0009,1.0009,0,0,1,61,62ZM24.5417,59.98,36.7984,45H10a1,1,0,0,1-1-1V20a1,1,0,0,1,1-1H38a1,1,0,0,1,1,1V42.3091a4.9624,4.9624,0,0,1,4.7371-1.9315A144.6008,144.6008,0,0,0,42.0137,8.1641a1,1,0,0,1,.2793-.8711l1.38-1.38a1.1214,1.1214,0,0,0-1.5859-1.5859l-1.38,1.38a.9974.9974,0,0,1-.95.2632,64.2476,64.2476,0,0,0-31.5137,0,.998.998,0,0,1-.95-.2632l-1.38-1.38A1.1214,1.1214,0,0,0,4.3271,5.9131l1.38,1.38a1.0011,1.0011,0,0,1,.2793.8716,144.4758,144.4758,0,0,0,0,47.6709,1.0011,1.0011,0,0,1-.2793.8716l-1.38,1.38a1.1222,1.1222,0,0,0,0,1.5859,1.1461,1.1461,0,0,0,1.5859,0l1.38-1.38a1.0039,1.0039,0,0,1,.95-.2632A64.3068,64.3068,0,0,0,24.5417,59.98ZM37,21H11V43H37Zm0,35a1,1,0,1,0-1,1A1,1,0,0,0,37,56Zm3-6a1,1,0,1,0-1,1A1,1,0,0,0,40,50Zm4,6a1,1,0,1,0-1,1A1,1,0,0,0,44,56Zm1-9a1,1,0,1,0-1,1A1,1,0,0,0,45,47Zm3,5a1,1,0,1,0-1,1A1,1,0,0,0,48,52Zm5,5a1,1,0,1,0-1,1A1,1,0,0,0,53,57Z"/></g><text x="0" y="79" fill="#000000" font-size="5px" font-weight="bold" font-family="'Helvetica Neue', Helvetica, Arial-Unicode, Arial, Sans-serif">Created by J703</text><text x="0" y="84" fill="#000000" font-size="5px" font-weight="bold" font-family="'Helvetica Neue', Helvetica, Arial-Unicode, Arial, Sans-serif">from the Noun Project</text></svg>