<svg xmlns="http://www.w3.org/2000/svg" version="1.1" viewBox="-5.0 -10.0 110.0 135.0">
 <g fill-rule="evenodd">
  <path d="m7.8281 27.137h59.66l-2.1523-5.4961h-5.3125c-0.29688 0-0.59375-0.11328-0.82031-0.33594l0.003906-0.003907-4.3516-4.2812c-0.1875-0.15625-0.32812-0.375-0.38672-0.63281h0.003906l-1.2383-5.3828-12.758-2.7656-8.1172 4.5781c-0.41406 0.28906-0.98438 0.28906-1.3984-0.039062l-5.8359-4.6016-9.5039 1.8164-0.066406 8.1719c0.039062 0.48828-0.23047 0.96875-0.70703 1.1719l-0.003906-0.003907-7.4844 3.1992zm39.918-2.8047c-0.32031-0.55859-0.12891-1.2695 0.42969-1.5898l4.7266-2.7305c0.55859-0.32031 1.2695-0.12891 1.5898 0.42969 0.32031 0.55859 0.12891 1.2695-0.42969 1.5898l-4.7266 2.7305c-0.55859 0.32031-1.2695 0.12891-1.5898-0.42969zm-12.895-6.6016c-0.32422-0.55859-0.13281-1.2734 0.42578-1.5977l4.7266-2.7305c0.55859-0.32422 1.2734-0.13281 1.5977 0.42578 0.32422 0.55859 0.13281 1.2734-0.42578 1.5977l-4.7266 2.7305c-0.55859 0.32422-1.2734 0.13281-1.5977-0.42578zm-16.641 3.1211c-0.32031-0.55859-0.12891-1.2695 0.42969-1.5898l4.7266-2.7305c0.55859-0.32031 1.2695-0.12891 1.5898 0.42969 0.32031 0.55859 0.12891 1.2695-0.42969 1.5898l-4.7227 2.7305c-0.55859 0.32031-1.2734 0.12891-1.5938-0.42969z"/>
  <path d="m69.996 27.137h22.207l-2.2109-5.6445h-5.3125c-0.29688 0-0.59375-0.11328-0.82031-0.33594l0.003906-0.003906-4.3516-4.2812c-0.1875-0.15625-0.32812-0.375-0.38672-0.63281h0.003906l-1.2305-5.3828-12.574-2.7266-8.0586 7.9922 3.2305 3.1758h5.6328c0.52344 0 0.96484 0.34375 1.1172 0.8125zm9.5352-5.5938-4.7266 2.7305c-0.55859 0.32031-1.2695 0.12891-1.5898-0.42969-0.32031-0.55859-0.12891-1.2695 0.42969-1.5898l4.7266-2.7305c0.55859-0.32031 1.2695-0.12891 1.5898 0.42969 0.32031 0.55469 0.12891 1.2695-0.42969 1.5898zm-9-8-4.7266 2.7305c-0.55859 0.32031-1.2695 0.12891-1.5898-0.42969-0.32031-0.55859-0.12891-1.2695 0.42969-1.5898l4.7266-2.7305c0.55859-0.32031 1.2695-0.12891 1.5898 0.42969 0.32422 0.55859 0.12891 1.2695-0.42969 1.5898z"/>
  <path d="m92.746 41.188v-11.711c-28.016 0-55.996 0.066407-84.043 0h-0.75781v11.711h84.801z"/>
  <path d="m58.633 74.895c0.003907-0.003906 0.007813-0.007812 0.011719-0.011719-0.003906 0.007813-0.007812 0.011719-0.011719 0.011719zm24.824 6.6953h-5.2969c-0.32422-2.6016-1.5156-4.9336-3.2773-6.6953-2.0781-2.0781-4.9531-3.3672-8.125-3.3672-3.168 0-6.0352 1.2812-8.1133 3.3555 0.019531-0.019531 0.039063-0.035156 0.058594-0.050781-0.042969 0.042969-0.085937 0.085938-0.12891 0.12891 0.015625-0.019532 0.035156-0.039063 0.050781-0.058594-1.7578 1.7617-2.9453 4.0859-3.2656 6.6836l-10.023 0.003906c-0.32422-2.6016-1.5156-4.9336-3.2773-6.6953-2.0781-2.0781-4.9531-3.3672-8.125-3.3672-3.168 0-6.0391 1.2852-8.1172 3.3594l-0.007812 0.007812c-0.003906 0.003907-0.003906 0.003907-0.007813 0.007813-1.7578 1.7617-2.9453 4.0898-3.2695 6.6875h-5.2969l-3.3828-38.059h72.984zm-57.418-30.207c-0.64844 0-1.1719 0.52344-1.1719 1.1719 0 0.64844 0.52344 1.1719 1.1719 1.1719h48.617c0.64844 0 1.1719-0.52344 1.1719-1.1719 0-0.64844-0.52344-1.1719-1.1719-1.1719zm3.0273 13.176c0 0.64844 0.52344 1.1719 1.1719 1.1719h40.215c0.64844 0 1.1719-0.52344 1.1719-1.1719 0-0.64844-0.52344-1.1719-1.1719-1.1719l-40.215 0.003906c-0.64844 0-1.1719 0.52344-1.1719 1.168z"/>
  <path d="m43.078 82.762c-0.054687-2.0039-0.75781-3.8477-1.9023-5.3281l-5.5898 5.5859 5.5898 5.5898c1.1953-1.5469 1.9062-3.4844 1.9062-5.5898 0-0.074219 0-0.14844-0.003906-0.21875v-0.023437-0.015625z"/>
  <path d="m32.277 83.02-5.5898-5.5898c-1.1484 1.4883-1.8516 3.3438-1.9023 5.3555v0.015625c0 0.070313-0.003906 0.14453-0.003906 0.21484 0 2.1055 0.71094 4.043 1.9062 5.5898z"/>
  <path d="m33.934 81.367 5.5898-5.5898c-1.5469-1.1953-3.4844-1.9062-5.5898-1.9062-2.1055 0-4.043 0.71094-5.5898 1.9062z"/>
  <path d="m39.52 90.266-5.5898-5.5898-5.5898 5.5898c1.5469 1.1953 3.4844 1.9062 5.5898 1.9062 2.1055 0 4.0469-0.71094 5.5898-1.9062z"/>
  <path d="m65.102 83.02-5.5898-5.5898c-1.1484 1.4883-1.8516 3.3438-1.9023 5.3555v0.015625c0 0.070313-0.003906 0.14453-0.003906 0.21484 0 2.1055 0.71094 4.043 1.9062 5.5898z"/>
  <path d="m72.348 75.777c-1.5469-1.1953-3.4844-1.9062-5.5898-1.9062-2.1055 0-4.043 0.71094-5.5898 1.9062l5.5898 5.5898z"/>
  <path d="m72.348 90.266-5.5898-5.5898-5.5898 5.5898c1.5469 1.1953 3.4844 1.9062 5.5898 1.9062 2.1055 0 4.043-0.71094 5.5898-1.9062z"/>
  <path d="m75.902 82.762c-0.054688-2.0039-0.75781-3.8477-1.9023-5.3281l-5.5859 5.5859 5.5898 5.5898c1.1953-1.5469 1.9062-3.4844 1.9062-5.5898 0-0.074219 0-0.14844-0.003906-0.21875v-0.023437c-0.003906-0.003906-0.003906-0.011719-0.003906-0.015625z"/>
 </g>
<text x="0.0" y="117.5" font-size="5.0" font-weight="bold" font-family="Arbeit Regular, Helvetica, Arial-Unicode, Arial, Sans-serif" fill="#000000">Created by Graphixs_Art</text><text x="0.0" y="122.5" font-size="5.0" font-weight="bold" font-family="Arbeit Regular, Helvetica, Arial-Unicode, Arial, Sans-serif" fill="#000000">from Noun Project</text></svg>