<svg xmlns="http://www.w3.org/2000/svg" version="1.1" viewBox="-5.0 -10.0 110.0 135.0">
 <g>
  <path d="m49.422 57.637c-0.26172-0.35156-1.0977-2.0625-1.7578-3.5156l-0.082031-0.1875-2.4375-1.4609-1.5-1.6016-0.39844 0.39062c-1.957 1.9062-6.5469 6.4102-6.8281 6.9141-0.27734 0.23438-1.7812 0.54688-3.0156 0.69141l-0.125 0.027343c-1.7461 0.66406-8.2266 4.8672-10.891 6.6172h2.3516c3.0078-1.9492 7.4492-4.7695 8.8516-5.332 3.2734-0.39063 3.6328-1 3.7383-1.1836 0.30859-0.44531 3.7695-3.8789 6.1875-6.2422l-0.17969 1.0625s0.48828 0.39062 0.48828 0.60938v3.1602l-2.9336 1.9375 3.3711-0.82813 2.1484 0.82813 2.2969 2.1094v1.1641h1.8555l3.1289 1.2188 1.6562 1.4922h13.969l-10.832-2.1875c-3.7578-2.3828-8.1953-5.1953-9.0625-5.6836z"/>
  <path d="m83.227 47.547-0.17578-0.30859-0.31641-0.015625c-0.011719 0-1.0039-0.070312-3.1094-1.6602-2.2578-1.707-9.0547-10.391-9.125-10.477l-0.34766-0.44531-0.42969 0.34375c-2.1797 1.75-5.207 4.7344-5.7344 5.2578l-5.0312 2.3008-8.7734-12.215-9.9375 13.328-3.1133 1.957c-0.85156-0.20312-1.3594-1.2188-1.9414-2.3906-0.46484-0.9375-0.94141-1.9023-1.6719-2.5234-1.5078-1.2812-2.8086-2.75-2.8203-2.7656l-0.46875-0.53125-0.40625 0.59375c-5.0977 7.3984-14.543 13.57-14.637 13.633l-0.15234 0.097656-0.078125 0.18359c-2.0977 4.7461-10.582 11.375-13.562 13.602h2.1094c3.418-2.6484 9.3555-7.5938 11.859-11.809l0.15625 0.27734v0.63672h1.1719l0.75781-0.30469 0.75781 0.13672-0.32031 0.58203-0.53906 2.0547 1.5898-1.2617c1.3828 2.0391 6.3867 1.293 5.3984 1.082-3.4805-0.75-3.1523-1.7305-3.1523-1.7305l2.75-1.0977c-3.3711 0.58203-3.9961-2.2578-3.9961-2.2578h-1c-0.0625-0.28906 0.69922-1.4688 1.2383-2.2578 3.0625-2.418 7.0938-5.9883 10.059-10.047l0.27734 1.4609-3.2188 4.6875 3.7852-3.4375 1.0273 2.7031-0.12891 0.99609 0.91797 1.2266v2.7539c-1.3203 1.6641-2.957 3.625-4.1406 4.8594-3.9961 4.1523-9.5938 8.9062-11.797 10.742h1.9688c2.6758-2.2695 7.2188-6.2266 10.621-9.7617 2.2344-2.3242 5.707-6.7734 6.4531-7.9062l4.9023-3.0781 9.1641-12.234 0.27344 0.83594-1.7383 2.6055 1.9297-1.4141 0.14844 0.96875s0.31641 0.55469 0.39062 0.66406c0.074219 0.10938 1.418 2.0781 1.418 2.0781l1.1992 0.39062 0.1875 1.0586-3.8789 5.1328 4.4727-3.7422 1.1719 1.7031-0.40234 1.6211 1.1719 0.95703 1.4336 6.7383 3.6641 0.89453 3.1523 4.6758 7.9492 4.5703c1.3359 1.1953 2.7617 2.3086 4.2539 3.2461h2.668c-8.1953-3.8945-15.316-15.117-15.344-15.145l-2.2148-5.2539-1.9883-1.6094 4.5352-2.0742 0.16797-0.11719c0.03125-0.03125 2.875-2.8594 5.1172-4.7539l0.60156 2.8438-3.4688 2.8828 4.1055-1.7734 1.7109 1.7734-0.29297 1.6094s1.9062 1.3828 2.8828 2.2188c0.97656 0.82812 1.6133 2.4922 1.6133 2.4922l-3.0781 3.2734 4.2031-2.1055s2.3438 1.7734 2.543 1.7734c0.19531 0 3.1016 6.0664 3.1016 6.0664l2.3477 0.58203 2.2734 1.3281 2.0586 0.67187c1.7461 1.9922 3.6875 3.875 5.7539 5.3164h2.4492c-8.25-4.4023-15.309-17.824-15.383-17.965z"/>
 </g>
<text x="0.0" y="117.5" font-size="5.0" font-weight="bold" font-family="Arbeit Regular, Helvetica, Arial-Unicode, Arial, Sans-serif" fill="#000000">by bellvania naomi argi pramana</text><text x="0.0" y="122.5" font-size="5.0" font-weight="bold" font-family="Arbeit Regular, Helvetica, Arial-Unicode, Arial, Sans-serif" fill="#000000">from Noun Project</text></svg>