<svg xmlns:x="http://ns.adobe.com/Extensibility/1.0/" xmlns:i="http://ns.adobe.com/AdobeIllustrator/10.0/" xmlns:graph="http://ns.adobe.com/Graphs/1.0/" xmlns="http://www.w3.org/2000/svg" xmlns:xlink="http://www.w3.org/1999/xlink" version="1.1" x="0px" y="0px" viewBox="0 0 85 106.25" style="enable-background:new 0 0 85 85;" xml:space="preserve"><metadata><sfw xmlns="http://ns.adobe.com/SaveForWeb/1.0/"><slices/><sliceSourceBounds bottomLeftOrigin="true" height="69.5" width="83.8" x="0" y="8.3"/></sfw></metadata><g><path d="M15,29.7c0.4,0.3,1,0.3,1.5,0.2l13.2-3.7c1.1-0.3,1.8-1.5,1.5-2.5c-0.1-0.4-0.3-0.7-0.6-1l0,0l-2.2-2l-3.1,0.9L24.9,21   l4.5-3.2l-0.8-1.1L24,20l-0.7-0.7l-3.9,1l-0.5,3l-4.5,1.2l-0.3,2.7c-0.2,0.6-0.1,1.1-0.1,1.2C14.2,29,14.6,29.4,15,29.7z M15.6,27   C15.6,27,15.5,27,15.6,27C15.5,27,15.5,27,15.6,27L15.6,27z M28.9,23.1L28.9,23.1c0.1,0,0.2,0,0.4,0c-0.1,0-0.2,0-0.3,0   c-0.6,0.2-0.9,0.7-0.7,1.3c0.1,0.4,0.5,0.7,0.8,0.7l-1.8,0.5c0.3-0.3,0.4-0.7,0.3-1.1c-0.2-0.6-0.7-0.9-1.3-0.7   c-0.6,0.2-0.9,0.7-0.7,1.3c0.1,0.4,0.5,0.7,0.8,0.7l-1.8,0.5c0.3-0.3,0.4-0.7,0.3-1.1c-0.2-0.6-0.7-0.9-1.3-0.7   c-0.6,0.2-0.9,0.7-0.7,1.3c0.1,0.4,0.5,0.7,0.8,0.7L22,27.2c0.3-0.3,0.4-0.7,0.3-1.1c-0.2-0.6-0.7-0.9-1.3-0.7   c-0.6,0.2-0.9,0.7-0.7,1.3c0.1,0.4,0.5,0.7,0.8,0.7L19.3,28c0.3-0.3,0.4-0.7,0.3-1.1c-0.2-0.5-0.7-0.9-1.3-0.7L28.9,23.1z    M18.3,26.2c-0.5,0.2-0.9,0.7-0.7,1.3c0.1,0.4,0.5,0.7,0.8,0.7l-1.8,0.5c0.3-0.3,0.4-0.7,0.3-1.1c-0.1-0.5-0.7-0.8-1.2-0.7   L18.3,26.2z"/><path d="M69.3,23.7l14.5-0.4l0-1.4l-13.4,0.4l3-3.9L64,22.4l-1.6,0L58.8,7.3l-5.1,14.4L42,17.6l2.9,5.3c-3.3,0.3-7,0.9-10.3,2   c-4.9,1.5-9.2,2.7-14.1,4l-3.5,1c-4.3,1.2-16.8,0.5-16.9,0.5L0,31.8c0.5,0,12.8,0.7,17.4-0.5l3.5-1c5-1.4,9.2-2.5,14.1-4   c3.4-1.1,7.2-1.7,10.6-2l2.5,4.6L38.6,30l9.9,6.6l-7.7,6.6l12.6-3.1l2.1,7.3l5.8-7.1l4.8,6.9l0.9-7.9l9.3-0.7l-7.6-5.2l10.8-6.4   l-12-0.9L69.3,23.7z M69.2,29.8l-5.6,3.3l3.9,2.7l-4.8,0.4l-0.4,4.1l-2.5-3.6l-3,3.7l-1.1-3.8l-6.5,1.6l3.9-3.4l-5.1-3.4l4.9-0.6   L49.9,25l6,2.1l1.1-3.1l0.5-1.4l1-2.9l0.7,2.9l0.3,1.4l0.9,3.8l5.5-2.4l-3,4L69.2,29.8z"/><path d="M17.9,58.1c0.4,0.3,0.9,0.4,1.4,0.4c0.3,0,0.6,0,0.9-0.1c0.5-0.2,0.9-0.6,1.3-1c0.6-0.6,1.1-1.4,1.5-2.2l0.2-0.4   c1-1.6,3.4-1.6,5.1-1.5c0.7,0.2,1.6,0.2,2.3,0.2c0,0,0,0,0.1,0l0.5,0c0.6,0,1.2,0,1.8-0.1c0.3-0.1,0.6-0.2,0.9-0.4   c0,0,0.1,0,0.1-0.1c0.9-0.6,1.3-1.9,1.3-3.8c0-0.8-0.5-1.7-1.1-2.2c-0.4-0.3-0.8-0.4-1.3-0.4c-0.2,0-0.4,0-0.5,0.1l0,0   c-0.1,0-0.1,0-0.2,0.1c-0.3,0.1-0.6,0.1-0.7,0.2c-0.3-0.5-0.7-1-1.1-1.3c-1.4-1.3-3.6-1.8-6.3-1.5c-2.5,0.3-8.2,1.8-8,9   c0,0.4,0,0.7,0.1,1.1C16.5,56.1,17,57.5,17.9,58.1z M32.9,48c0.2,0,0.4,0,0.6,0.1c0.1,0.1,0.2,0.2,0.3,0.4c0.1,0.2,0.2,0.5,0.2,0.7   c0,0.2,0,0.3,0,0.5c0,1-0.2,1.7-0.5,2c0,0-0.1,0.1-0.1,0.1C33.2,51.9,33,52,32.8,52c-0.4,0.1-0.9,0.1-1.4,0.1c0,0-0.6,0-0.6,0   c-0.4,0-1.2,0-1.8-0.1c-0.2,0-0.4-0.1-0.5-0.2c0,0,0,0,0-0.1c-0.6-0.6-0.6-2.3-0.2-3.1c0.5-1.1,1.3-1,2.6-0.6l0.6,0.2   c0.2,0,0.5,0,0.8-0.1C32.5,48.1,32.8,48.1,32.9,48C32.9,48,32.9,48,32.9,48z"/><path d="M78.3,60.6l-2.3,0c0,0,0,0.5,0,1c-1.7,0-10.5,0-12.9,0l0-0.6H49.5l-2-2.7l-8.8,0l-1.7,2.3l-6.6,0c0.5-0.6,0.8-1.3,0.9-2.1   c0.1-0.5,1-0.4,1.5-0.6c0.4-0.2,0.2-0.6-0.1-1c-0.9-1.2-1.4-1.6-1.5-1.9c0-0.1,0-0.1,0-0.1c-0.6,0-1.3,0-2,0l-0.7,0   c-1.3-0.1-3.5-0.2-4.1,0.8L24.3,56c-0.5,0.8-1,1.7-1.8,2.5c-0.5,0.5-1.1,0.9-1.8,1.3c-0.2,0.1-0.5,0.1-0.7,0.1   c-1.1,0.2-2.1,0-2.9-0.6c-1.3-1-2.1-2.9-2.2-5.6c-3.1-1-6.8-1.2-10.7-0.2C1.9,53.9,0,54.8,0,54.8v21.3c2.4,0,4.2,0.1,6.6,0.1   c-0.5-0.5-0.9-1.2-1.3-2.1c-1.2-3.1,0.6-5.4,3-8.2l1.9-2.3c0.2-0.3,0.7-0.4,1-0.1c0.1,0.1,0.2,0.2,0.2,0.3c0.1,0.2,0.1,0.5-0.1,0.7   l-1.9,2.4c-2.4,2.9-3.7,4.6-2.8,6.8c0.8,2.1,1.6,2.5,5.6,2.5c0.2,0,0.3,0,0.5,0l1,0c5.6,0.1,14.9,0.1,19.2-0.2   c2.9-0.2,4.1-4.6,4.1-4.6c0.1-0.3,0.4-0.5,0.7-0.5c0,0,2.6-0.1,2.6-0.1c0.6,0,0.9-0.6,0.9-1.2c0-0.3-0.1-1.1-1-1.1   c-0.7,0-4.4,0-8.4,0c-0.7,0-1.4,0-2.1,0c-0.1,0-0.2,0-0.3,0c-0.8,0-1.7,0-2.5,0c-0.2,0-0.5,0-0.7,0c-3,0-5.2,0-5.3,0   c-0.3,0-0.6-0.2-0.7-0.5c0-0.1,0-0.1,0-0.2c0-0.2,0-0.3,0.2-0.5c0-0.1,0.1-0.1,0.2-0.1c0.7-0.4,2.6-1.8,2.9-2.9   c0.2-0.7,0.2-1.3,0.1-1.8c0-0.1-0.1-0.2-0.1-0.4c-0.1-0.1-0.1-0.3-0.2-0.4c-0.1-0.1-0.1-0.2-0.2-0.3c-0.3-0.3-0.5-0.6-0.7-0.7   c-0.1-0.1-0.2-0.1-0.2-0.2c-0.2-0.1-0.3-0.2-0.3-0.4c-0.1-0.2-0.1-0.4,0-0.6c0.2-0.3,0.6-0.5,1-0.3c0.3,0.2,0.6,0.4,1,0.8   c0.2,0.2,0.4,0.4,0.5,0.6c0.2,0.2,0.3,0.5,0.4,0.7c0,0.1,0.1,0.2,0.1,0.3c0,0.1,0,0.1,0.1,0.2c0,0.1,0,0.1,0.1,0.2c0,0,0,0,0.1,0   c1.1,0,2.3,0,3.6,0c3.5,0,7.1,0,7.8,0c0,0.9,0,2.8,0,3.4c-0.7,0.2-2.4,0.8-4.7,1.5c0.8,0,1.6,0,2.4,0c0.2,0,0.5,0,0.7,0   c0.6,0,1.1,0,1.6,0c0.6-0.2,0.9-0.3,1-0.3l0,0l7.9,0c0,0,0.5,5.4,3.8,9.2c2.1-1.5,4-3,4-3c-3.5-4.5-2.6-7.6-2.6-7.6l11.2,0l-2,10.1   c-0.1,0.6,0.3,1.2,0.9,1.3c0.6,0.1,1.2-0.3,1.3-0.9c0,0,0.8-4.1,1.5-7.6c1.1,3.5,2.4,7.7,2.4,7.7c0.2,0.6,0.8,0.9,1.4,0.7   s0.9-0.8,0.7-1.4l-3.6-11.4l13.9,0L78.3,60.6z"/><polygon points="49.9,55.6 49.9,54.2 36.6,54.2 36.6,55.6 36.6,57 49.9,57  "/></g><text x="0" y="100" fill="#000000" font-size="5px" font-weight="bold" font-family="'Helvetica Neue', Helvetica, Arial-Unicode, Arial, Sans-serif">Created by Hayashi Fumihiro</text><text x="0" y="105" fill="#000000" font-size="5px" font-weight="bold" font-family="'Helvetica Neue', Helvetica, Arial-Unicode, Arial, Sans-serif">from the Noun Project</text></svg>