<svg xmlns="http://www.w3.org/2000/svg" version="1.1" viewBox="-5.0 -10.0 110.0 135.0">
 <g>
  <path d="m44.301 29.898c1.8984 0.10156 3.8984 0.10156 6.1016 0.10156 1.1016 0 2.1992 0 3.1992-0.10156h2.8008c0.39844 0 0.80078-0.39844 0.80078-0.80078 0-0.39844-0.39844-0.80078-0.80078-0.80078h-2.8008-2.3984l-0.003906-12.598c0-0.39844-0.39844-0.80078-0.80078-0.80078-0.39844 0-0.80078 0.39844-0.80078 0.80078v12.699c-2 0-3.6016 0-5.3008-0.10156-0.39844 0-0.80078 0.30078-0.80078 0.80078 0.003906 0.40234 0.30469 0.80078 0.80469 0.80078z"/>
  <path d="m19.602 34c1.6992 0.10156 3.5 0.10156 5.6016 0.10156 1.1016 0 2.1016 0 3.1016-0.10156h2.3984c0.39844 0 0.80078-0.39844 0.80078-0.80078 0-0.39844-0.39844-0.80078-0.80078-0.80078h-2.5-2.1992l-0.003906-11.598c0-0.39844-0.39844-0.80078-0.80078-0.80078-0.39844 0-0.80078 0.39844-0.80078 0.80078v11.699c-1.6992 0-3.3008 0-4.8008-0.10156-0.39844 0-0.80078 0.30078-0.80078 0.80078 0.003906 0.40234 0.30469 0.80078 0.80469 0.80078z"/>
  <path d="m90.398 55v0c-3.1016-1.1016-5.5-1.6016-7.6016-1.6992v-3.8008c4-2.5 6.6992-6.8984 6.8008-12 0.69922-0.60156 1.1016-1.3008 1.1016-2.1016 0-1.5-0.5-2.6992-1.5-3.6016v-0.19922-0.19922c0-6.6992-4.3008-12.102-10.699-13.602l-0.5-0.19922c-0.60156-0.89844-1.6992-1.5-2.8984-1.5-1.1992 0-2.3008 0.60156-2.8984 1.6016h-0.10156-0.10156-0.10156c-3 0.69922-5.5 2.3008-7.3984 4.5-1.6016-4.8984-5.6016-8.6016-10.801-9.8008l-0.30078-0.10156c-0.69922-1-1.8008-1.6992-3.1016-1.6992-1.3984 0-2.5 0.60156-3.1992 1.6016l-0.39844 0.10156c-5.3008 1.1992-9.3008 4.8984-10.898 9.8984-1.8984-2.3984-4.6016-4-7.6016-4.6016h-0.10156-0.10156-0.10156c-0.60156-1-1.6992-1.6016-2.8984-1.6016-1.3008 0-2.3008 0.60156-2.8984 1.5l-0.39844 0.10156c-6.3984 1.3984-10.699 6.8984-10.699 13.602v0.19922 0.19922 0.10156c-0.89844 0.89844-1.3984 2-1.3984 3.5 0 0.69922 0.30078 1.3984 0.89844 1.8984 0 5.1992 2.8008 9.8008 7 12.301v3.6992c-2.5 0.20312-5.5 1.1016-7.5 1.9023-5.3984 2-9 7.3008-9 13.102v11.801c0 0.39844 0.39844 0.80078 0.80078 0.80078h22.398v7.6992c0 0.39844 0.39844 0.80078 0.80078 0.80078h50.398c0.39844 0 0.80078-0.39844 0.80078-0.80078v-7.6992h22.398c0.39844 0 0.80078-0.39844 0.80078-0.80078v-11.801c0-5.8008-3.5-11-9-13.102zm-9.1992-0.39844c-1.5 1.3984-3.5 2.1992-5.6992 2.1992-1.6992 0-3.1992-0.5-4.5-1.1992-0.39844-0.30078-0.69922-0.60156-1.1016-0.89844v-4c1.6992 0.69922 3.5 1.1016 5.3984 1.1016 2.1016 0 4.1992-0.5 6-1.3008l0.003906 4.0977zm-6.5977 12.398v20.602h-9.5v-19c0-0.39844-0.39844-0.80078-0.80078-0.80078-0.39844 0-0.80078 0.39844-0.80078 0.80078v19h-26.5v-19c0-0.39844-0.39844-0.80078-0.80078-0.80078-0.39844 0-0.80078 0.39844-0.80078 0.80078v19h-9.6016l0.003906-20.602c0-4 1.6992-7.6992 4.6016-10.199 0.5-0.30078 0.89844-0.60156 1.3008-1 0.80078-0.60156 1.8008-1.1016 2.8008-1.3984 2.5-1 5.1016-1.6992 7.3008-1.6992 1.8984 2.3984 4.8984 3.6992 8.1992 3.6992 3.3008 0 6.3008-1.3984 8.1992-3.6992 2.3008 0.10156 5.1016 0.69922 7.6016 1.6992 1 0.39844 1.8984 0.89844 2.8008 1.3984 0.39844 0.39844 0.80078 0.69922 1.3008 1 2.9922 2.5 4.6953 6.1992 4.6953 10.199zm-40.801-18.199c0 0.30078 0.19922 0.60156 0.5 0.80078l4.8008 1.6992c-1.6992 0.30078-3.5 0.80078-5.1992 1.6016-0.39844 0.19922-0.89844 0.39844-1.3008 0.60156-0.10156 0-0.10156-0.10156-0.19922-0.10156v-3.6016c0.49609-0.40234 0.99609-0.69922 1.3984-1zm34.398 4.5c-0.10156 0-0.30078 0-0.39844 0.10156-0.39844-0.19922-0.80078-0.39844-1.3008-0.60156-1.6992-0.69922-3.5-1.1992-5.1992-1.5l5.1016-1.8008c0.30078-0.10156 0.39844-0.30078 0.5-0.5 0.39844 0.30078 0.89844 0.60156 1.3008 0.89844zm-31.098-11.699c1.3008 2.1016 3.1016 3.8984 5.1992 5.1992v3.8984l-6.5-2.3984c0.69922-1.5 1.0977-3.6992 1.3008-6.6992zm6.7969 6.0977c2 0.89844 4.1016 1.3984 6.3984 1.3984 2.1992 0 4.3008-0.5 6.1992-1.3008v4.3984c-1.6016 1.6016-3.8984 2.5-6.3984 2.6016-2.3984 0-4.6016-0.80078-6.1992-2.3008zm19.703-6.1992c0.10156 2.6016 0.39844 5.1016 1.3008 6.8984l-6.8008 2.3984v-3.7969c2.2969-1.3984 4.1992-3.1992 5.5-5.5zm-6.6016 4.3008c-0.10156 0-0.10156 0.10156-0.19922 0.10156-2 1.1016-4.1992 1.6992-6.6016 1.6992-6.1992 0-11.398-4.1016-13.199-9.6992 0-0.10156 0-0.10156-0.10156-0.19922-0.30078-0.89844-0.39844-1.8008-0.5-2.6992 3.1992 1.6016 8.5 2.3984 13.801 2.3984s10.602-0.80078 13.801-2.3984c-0.30078 4.5977-3.1016 8.5977-7 10.797zm18.199 4.3008c-3.6016 0-6.8984-1.5-9.3984-4.1016h-0.10156c-0.39844-1.8008-0.5-4.1016-0.5-6.3008 2.8008 0.80078 6.3984 1.1992 10 1.1992 4.8984 0 9.8008-0.69922 12.699-2.1992-0.59766 6.4023-6.0977 11.402-12.699 11.402zm-3.5-30.5c0.10156 0.30078 0.30078 0.60156 0.69922 0.60156h0.10156c0.39844 0 0.69922-0.30078 0.80078-0.69922 0.10156-1 0.89844-1.6992 1.8984-1.6992s1.8008 0.69922 1.8984 1.6016c0.10156 0.39844 0.5 0.69922 0.89844 0.69922 0.30078 0 0.60156-0.30078 0.60156-0.60156 5.3984 1.3984 8.8984 6.1016 8.8984 11.898v0.10156c-0.19922 0.10156-1 0.39844-3.3008 0.69922-0.39844 0.10156-0.80078 0.5-0.69922 0.89844 0 0.39844 0.39844 0.69922 0.80078 0.69922h0.10156c1.6992-0.19922 2.8984-0.39844 3.6992-0.80078 0.60156 0.60156 0.89844 1.3008 0.89844 2.3984 0 1.6016-5.3008 3.8008-13.898 3.8008-3.6992 0-7.3008-0.5-10-1.3008v-0.10156c0.39844-1.3008 0.60156-2.6016 0.60156-3.8984 0.80078-0.69922 1.3008-1.5 1.3008-2.3984 0-1.8984-0.60156-3.3984-1.6992-4.3008 0-1-0.10156-2-0.30078-3 1.6992-2.1992 4-3.8008 6.6992-4.5977zm-25.098-5.4023c0.10156 0.30078 0.30078 0.60156 0.69922 0.69922 0.39844 0.10156 0.80078-0.19922 0.89844-0.69922 0.10156-1.1016 1-1.8008 2.1992-1.8008 1.3008 0 2 1 2.1992 2 0.10156 0.39844 0.39844 0.60156 0.80078 0.60156h0.19922c0.39844-0.10156 0.60156-0.39844 0.60156-0.69922 5.6992 1.6016 9.6016 6.8008 9.6016 13-0.30078 0.10156-1.1016 0.39844-3.6992 0.69922-0.39844 0-0.80078 0.39844-0.69922 0.89844 0 0.39844 0.39844 0.69922 0.80078 0.69922h0.10156c2.1992-0.19922 3.5-0.5 4.3008-0.89844 0.60156 0.60156 0.89844 1.6016 0.89844 2.8008 0 1.8008-5.8008 4.1992-15.199 4.1992-9.3984 0-15.199-2.3984-15.199-4.1992 0-1.1016 0.39844-2 1.1016-2.6992 0.69922 0.30078 2 0.60156 4.1016 0.89844h0.10156c0.39844 0 0.80078-0.30078 0.80078-0.69922s-0.30078-0.80078-0.69922-0.89844c-2.6016-0.30078-3.5-0.60156-3.6992-0.80078v-0.10156c-0.011719-6.3008 3.8867-11.398 9.7891-13zm-24.902 5.3008c0.10156 0.30078 0.30078 0.5 0.69922 0.60156 0.39844 0.10156 0.80078-0.19922 0.89844-0.69922 0-0.19922 0.10156-0.39844 0.19922-0.60156v-0.10156c0.30078-0.60156 0.89844-0.89844 1.6992-0.89844 1 0 1.8008 0.69922 1.8984 1.6992 0.10156 0.39844 0.39844 0.69922 0.80078 0.69922h0.10156c0.30078 0 0.60156-0.30078 0.69922-0.60156 2.8008 0.69922 5.1016 2.5 6.8008 4.8984-0.19922 0.89844-0.19922 1.8008-0.19922 2.8008v0.19922 0.19922c-1.1016 1-1.6992 2.3008-1.6992 3.8984 0 0.89844 0.5 1.6992 1.3008 2.3984 0 1.3984 0.19922 2.6992 0.60156 4-2.6992 0.80078-6.3984 1.3008-10.102 1.3008-8.6016 0-13.898-2.1992-13.898-3.8008 0-1 0.30078-1.8008 0.89844-2.3008 0.69922 0.30078 1.8984 0.5 3.6016 0.69922h0.10156c0.39844 0 0.69922-0.30078 0.80078-0.69922 0.10156-0.39844-0.30078-0.80078-0.69922-0.89844-2.3008-0.30078-3.1016-0.60156-3.3008-0.69922v-0.10156c-0.10156-5.793 3.4961-10.492 8.7969-11.992zm-9.3008 19c2.8984 1.5 7.8984 2.3008 12.898 2.3008 3.6992 0 7.3984-0.5 10.199-1.3008 0 2.3984-0.19922 4.3984-0.5 5.8984h-0.10156c-2.3984 2.8984-6 4.6016-9.8984 4.6016-6.5977 0.10156-11.996-5-12.598-11.5zm12.703 13.199c2 0 3.8984-0.39844 5.6992-1.1992v4l-0.10156 0.10156c-0.39844 0.30078-0.89844 0.60156-1.3008 1-1.3008 0.80078-2.8984 1.1992-4.5 1.1992-2.1992 0-4.1992-0.80078-5.6016-2.1016v-4.1992c1.8047 0.80078 3.7031 1.1992 5.8047 1.1992zm-12.602 27.402v-12.301c0-0.39844-0.39844-0.80078-0.80078-0.80078-0.39844 0-0.80078 0.39844-0.80078 0.80078v12.301h-8.2969v-11c0-5.1016 3.1992-9.8008 8-11.699 1.8008-0.69922 4.3984-1.5 6.8008-1.5 1.8008 2.1992 4.5 3.3984 7.6016 3.3984 0.69922 0 1.3984-0.10156 2.1016-0.19922-1.8008 2.5-2.8984 5.6016-2.8984 8.8984v12.102zm60.801-21c0.69922 0.10156 1.3984 0.19922 2.1016 0.19922 3.1016 0 5.8008-1.1992 7.6016-3.3984 1.8008 0.10156 4 0.5 6.8008 1.5 4.8984 1.8984 8 6.5 8 11.699v11h-7.6016l-0.003906-12.301c0-0.39844-0.39844-0.80078-0.80078-0.80078-0.39844 0-0.80078 0.39844-0.80078 0.80078v12.301h-12.398v-12.102c0-3.3008-1-6.3984-2.8984-8.8984z"/>
  <path d="m69.699 34c1.6016 0.10156 3.5 0.10156 5.5 0.10156 1 0 2.1016 0 3-0.10156h2.6016c0.39844 0 0.80078-0.39844 0.80078-0.80078 0-0.39844-0.39844-0.80078-0.80078-0.80078h-2.6016-2.1992v-11.598c0-0.39844-0.39844-0.80078-0.80078-0.80078-0.39844 0-0.80078 0.39844-0.80078 0.80078v11.699c-1.6992 0-3.3008 0-4.6992-0.10156-0.39844 0-0.80078 0.30078-0.80078 0.69922 0 0.50391 0.30078 0.90234 0.80078 0.90234z"/>
 </g>
<text x="0.0" y="117.5" font-size="5.0" font-weight="bold" font-family="Arbeit Regular, Helvetica, Arial-Unicode, Arial, Sans-serif" fill="#000000">Created by Michael Appleford</text><text x="0.0" y="122.5" font-size="5.0" font-weight="bold" font-family="Arbeit Regular, Helvetica, Arial-Unicode, Arial, Sans-serif" fill="#000000">from Noun Project</text></svg>