<svg xmlns="http://www.w3.org/2000/svg" data-name="Layer 1" viewBox="0 0 70 87.5" x="0px" y="0px"><path d="M41,58.71H38.78V50.18a1,1,0,0,0-1-1H32.22a1,1,0,0,0-1,1v8.53H29a1,1,0,0,0-.73,1.69l6,6.29a1,1,0,0,0,1.46,0l6-6.29A1,1,0,0,0,41,58.71Z"/><path d="M22.18,53.37H20V46.84a1,1,0,0,0-1-1H13.43a1,1,0,0,0-1,1v6.53H10.24a1,1,0,0,0-.73,1.69l6,6.29a1,1,0,0,0,1.45,0l6-6.29a1,1,0,0,0-.72-1.69Z"/><path d="M37.83,26.16a2.84,2.84,0,0,0-2.93,3.1,2.93,2.93,0,1,0,5.85,0A2.84,2.84,0,0,0,37.83,26.16Z"/><path d="M62.63,21.2a.1.1,0,0,0-.05,0h0a12.35,12.35,0,0,0-10.79-2.39,7.36,7.36,0,0,0-6.72-5A15.41,15.41,0,0,0,19.53,7.47a.07.07,0,0,0-.05,0,15.57,15.57,0,0,0-4.54,10.87,12.15,12.15,0,0,0,.21,24.3h39.7A12.15,12.15,0,0,0,62.63,21.2Zm-34,11.14a4.25,4.25,0,0,0,2.15-.55.92.92,0,0,1,1.07.16.84.84,0,0,1,.26.62.91.91,0,0,1-.49.84,5.87,5.87,0,0,1-3.1.84,4.7,4.7,0,0,1-4.88-5,4.71,4.71,0,0,1,4.88-5,5.9,5.9,0,0,1,3.11.85.91.91,0,0,1-.84,1.62,4.25,4.25,0,0,0-2.16-.55,2.82,2.82,0,0,0-3,3.07A2.82,2.82,0,0,0,28.61,32.34Zm9.22,1.91a4.73,4.73,0,0,1-4.89-5,4.89,4.89,0,1,1,9.77,0A4.74,4.74,0,0,1,37.83,34.25ZM46,33.37a.38.38,0,1,1,0,.75H44a.43.43,0,0,1-.31-.12.41.41,0,0,1-.12-.3,1,1,0,0,1,.18-.59c.46-.66,1.41-1,1.78-1.45a.45.45,0,0,0-.05-.59c-.27-.24-1-.12-1.32,0a.38.38,0,0,1-.42-.07.37.37,0,0,1,.09-.58,2.28,2.28,0,0,1,1.89-.14A1.16,1.16,0,0,1,46.17,32a6.88,6.88,0,0,1-1.63,1.32l0,0Z"/><path d="M59.76,53.37H57.57V46.84a1,1,0,0,0-1-1H51a1,1,0,0,0-1,1v6.53H47.82a1,1,0,0,0-.92.61,1,1,0,0,0,.2,1.08l6,6.29a1,1,0,0,0,.72.31,1,1,0,0,0,.73-.31l6-6.29a1,1,0,0,0-.73-1.69Z"/><text x="0" y="85" fill="#000000" font-size="5px" font-weight="bold" font-family="'Helvetica Neue', Helvetica, Arial-Unicode, Arial, Sans-serif">Created by Soremba</text><text x="0" y="90" fill="#000000" font-size="5px" font-weight="bold" font-family="'Helvetica Neue', Helvetica, Arial-Unicode, Arial, Sans-serif">from the Noun Project</text></svg>