<svg xmlns="http://www.w3.org/2000/svg" xmlns:xlink="http://www.w3.org/1999/xlink" version="1.1" x="0px" y="0px" viewBox="0 0 431.168 374.01874999999995" style="enable-background:new 0 0 431.168 299.215;" xml:space="preserve"><g><path d="M156.492,8h119.5V270h-94.375v8h102.377V0H148.492v61.042c2.763,0.035,5.442,0.415,8,1.101V8z"/><path d="M264.992,19.417h-97.5v18h97.5V19.417z M206.742,31.75h-32.75v-7h32.75V31.75z M236.992,31.75h-7v-7h7V31.75z    M248.242,31.75h-7v-7h7V31.75z M259.492,31.75h-7v-7h7V31.75z"/><path d="M173.992,73.95v-0.051h32.75v7h-28.724c0.767,1.81,1.366,3.707,1.796,5.666h85.178v-18h-96.139   C170.765,70.158,172.489,71.965,173.992,73.95z M252.492,73.899h7v7h-7V73.899z M241.242,73.899h7v7h-7V73.899z M229.992,73.899h7   v7h-7V73.899z"/><path d="M188.252,123.046h18.49v7h-17.896c0.048,1.455,0.079,2.913,0.104,4.333c0.008,0.443,0.016,0.889,0.024,1.334h76.019v-18   h-78.091C187.564,119.613,187.987,121.397,188.252,123.046z M252.492,123.046h7v7h-7V123.046z M241.242,123.046h7v7h-7V123.046z    M229.992,123.046h7v7h-7V123.046z"/><path d="M189.607,145.046c0.119,0.688,0.246,1.25,0.373,1.706c0.949,0.122,2.105,0.196,3.199,0.196h0.014h0.088   c1.291,0,2.262-0.079,2.488-0.1c0.623-0.066,1.254-0.098,1.879-0.098c1.914,0,3.756,0.314,5.492,0.87h3.602v1.605   c4.063,2.383,7.109,6.32,8.317,11.061h49.933v-18h-75.733C189.345,143.273,189.455,144.207,189.607,145.046z M252.492,147.621h7v7   h-7V147.621z M241.242,147.621h7v7h-7V147.621z M229.992,147.621h7v7h-7V147.621z"/><path d="M211.684,176.01c-3.01,3.753-7.299,6.108-12.082,6.632c-0.631,0.068-2.994,0.303-6.314,0.305   c-2.832-0.011-6.973-0.143-11.67-1.119v3.033h83.375v-18h-49.489C215.117,170.183,213.825,173.339,211.684,176.01z    M252.492,172.195h7v7h-7V172.195z M241.242,172.195h7v7h-7V172.195z M236.992,172.195v7h-7v-7H236.992z"/><path d="M181.617,196.769h25.125v7h-25.125v5.666h83.375v-18h-83.375V196.769z M252.492,196.769h7v7h-7V196.769z M241.242,196.769   h7v7h-7V196.769z M229.992,196.769h7v7h-7V196.769z"/><path d="M181.617,221.342h25.125v7h-25.125v5.667h83.375v-18h-83.375V221.342z M252.492,221.342h7v7h-7V221.342z M241.242,221.342   h7v7h-7V221.342z M229.992,221.342h7v7h-7V221.342z"/><path d="M181.617,245.917h25.125v7h-25.125v5.667h83.375v-18h-83.375V245.917z M252.492,245.917h7v7h-7V245.917z M241.242,245.917   h7v7h-7V245.917z M229.992,245.917h7v7h-7V245.917z"/><path d="M295.666,0v278h135.502V0H295.666z M423.168,270H303.666V8h119.502V270z"/><path d="M412.168,19.417h-97.5v18h97.5V19.417z M353.918,31.75h-32.75v-7h32.75V31.75z M384.168,31.75h-7v-7h7V31.75z    M395.418,31.75h-7v-7h7V31.75z M406.668,31.75h-7v-7h7V31.75z"/><path d="M412.168,68.565h-97.5v18h97.5V68.565z M353.918,80.899h-32.75v-7h32.75V80.899z M384.168,80.899h-7v-7h7V80.899z    M395.418,80.899h-7v-7h7V80.899z M406.668,80.899h-7v-7h7V80.899z"/><path d="M412.168,117.713h-97.5v18h97.5V117.713z M353.918,130.046h-32.75v-7h32.75V130.046z M384.168,130.046h-7v-7h7V130.046z    M395.418,130.046h-7v-7h7V130.046z M406.668,130.046h-7v-7h7V130.046z"/><path d="M412.168,142.287h-97.5v18h97.5V142.287z M353.918,154.621h-32.75v-7h32.75V154.621z M384.168,154.621h-7v-7h7V154.621z    M395.418,154.621h-7v-7h7V154.621z M406.668,154.621h-7v-7h7V154.621z"/><path d="M412.168,191.435h-97.5v18h97.5V191.435z M353.918,203.769h-32.75v-7h32.75V203.769z M384.168,203.769h-7v-7h7V203.769z    M395.418,203.769h-7v-7h7V203.769z M406.668,203.769h-7v-7h7V203.769z"/><path d="M412.168,216.009h-97.5v18h97.5V216.009z M353.918,228.342h-32.75v-7h32.75V228.342z M384.168,228.342h-7v-7h7V228.342z    M395.418,228.342h-7v-7h7V228.342z M406.668,228.342h-7v-7h7V228.342z"/><path d="M412.168,240.583h-97.5v18h97.5V240.583z M353.918,252.917h-32.75v-7h32.75V252.917z M384.168,252.917h-7v-7h7V252.917z    M395.418,252.917h-7v-7h7V252.917z M406.668,252.917h-7v-7h7V252.917z"/><path d="M107.531,270H8V8h119.5v60.395c2.405-1.972,5.097-3.607,8.002-4.831V0H0v278h107.531V270z"/><path d="M116.5,19.417H19v18h97.5V19.417z M58.25,31.75H25.5v-7h32.75V31.75z M88.5,31.75h-7v-7h7V31.75z M99.75,31.75h-7v-7h7   V31.75z M111,31.75h-7v-7h7V31.75z"/><path d="M116.5,43.991H19v18h97.5V43.991z M58.25,56.325H25.5v-7h32.75V56.325z M88.5,56.325h-7v-7h7V56.325z M99.75,56.325h-7v-7   h7V56.325z M111,56.325h-7v-7h7V56.325z"/><path d="M116.5,85.856V68.565H19v18h97.336C116.388,86.328,116.442,86.091,116.5,85.856z M58.25,80.899H25.5v-7h32.75V80.899z    M88.5,80.899h-7v-7h7V80.899z M99.75,80.899h-7v-7h7V80.899z M104,80.899v-7h7v7H104z"/><path d="M110.367,107.291l0.098-0.056l0.098-0.055c1.806-0.994,3.75-1.968,5.938-2.752v-3.221   c-0.599-2.463-0.924-5.031-0.924-7.675c0-0.132,0.009-0.262,0.01-0.393H19v18h85.705   C106.528,109.72,108.417,108.422,110.367,107.291z M104,98.472h7v7h-7V98.472z M58.25,105.472H25.5v-7h32.75V105.472z    M88.5,105.472h-7v-7h7V105.472z M99.75,105.472h-7v-7h7V105.472z"/><path d="M88.082,156.758c-0.012-0.029-0.019-0.059-0.029-0.088c-0.262-0.675-0.494-1.359-0.708-2.05H81.5v-7h4.528   c-0.058-0.798-0.095-1.601-0.093-2.409c0.008-0.979,0.059-1.954,0.146-2.925H19v18h70.707   C89.094,159.139,88.547,157.963,88.082,156.758z M58.25,154.621H25.5v-7h32.75V154.621z"/><path d="M107.531,203.769H104v-7h3.531v-5.334H19v18h88.531V203.769z M58.25,203.769H25.5v-7h32.75V203.769z M88.5,203.769h-7v-7h7   V203.769z M99.75,203.769h-7v-7h7V203.769z"/><path d="M107.531,228.342H104v-7h3.531v-5.333H19v18h88.531V228.342z M58.25,228.342H25.5v-7h32.75V228.342z M88.5,228.342h-7v-7h7   V228.342z M99.75,228.342h-7v-7h7V228.342z"/><path d="M104,252.917v-7h3.531v-5.333H19v18h88.531v-5.667H104z M58.25,252.917H25.5v-7h32.75V252.917z M88.5,252.917h-7v-7h7   V252.917z M99.75,252.917h-7v-7h7V252.917z"/><path d="M133.575,110.731h28.999c4.891-4.127,8-10.298,8-17.199c0-12.426-10.074-22.5-22.5-22.5   c-12.424,0-22.498,10.074-22.498,22.5C125.576,100.433,128.686,106.604,133.575,110.731z"/><path d="M125.258,112.731c-0.605,0-1.191,0.076-1.758,0.208c-3.078,0.423-5.555,1.595-8.113,3.003   c-4.551,2.641-9.029,6.504-12.738,11.373c-3.641,4.855-6.66,10.83-6.713,17.914c-0.004,2.598,0.453,5.32,1.479,7.936   c0,0,0,0.001,0.001,0.001h-0.001c2.003,5.191,6.098,9.662,11.684,13.028c1.943,1.176,4.09,2.242,6.432,3.217v-18.185   c-1.957-1.515-2.787-2.822-3.202-3.855l-0.001,0c-0.002-0.004-0.003-0.007-0.004-0.011c-0.266-0.694-0.385-1.35-0.389-2.131   c-0.01-1.383,0.459-3.217,1.525-5.227c0.963-1.859,2.43-3.795,4.07-5.514v152.363c0,6.83,5.537,12.363,12.363,12.363   c6.828,0,12.363-5.533,12.363-12.363v-90.271h4.635v90.271c0,6.83,5.537,12.363,12.363,12.363c6.828,0,12.365-5.533,12.365-12.363   V166.09c3.381,3.371,7.393,4.81,10.932,5.701c4.029,0.963,7.816,1.147,10.73,1.157c2.975-0.002,5.02-0.223,5.23-0.246   c4.395-0.482,7.563-4.434,7.08-8.825c-0.484-4.392-4.438-7.562-8.83-7.078c-0.18,0.017-1.586,0.148-3.48,0.148   c-2.104,0.006-4.84-0.184-6.98-0.711c-2.199-0.487-3.445-1.4-3.449-1.521c-1.41-1.719-2.48-4.402-3.084-7.889   c-0.945-5.225-0.703-11.67-0.951-17.512c-0.184-2.973-0.328-5.801-1.654-9.139c-0.688-1.645-1.824-3.561-3.822-5.102   c-1.975-1.563-4.686-2.35-6.953-2.309c-0.389,0-0.768,0.037-1.141,0.09c-0.439-0.078-0.891-0.125-1.355-0.125H125.258z"/></g><text x="0" y="314.215" fill="#000000" font-size="5px" font-weight="bold" font-family="'Helvetica Neue', Helvetica, Arial-Unicode, Arial, Sans-serif">Created by Gan Khoon Lay</text><text x="0" y="319.215" fill="#000000" font-size="5px" font-weight="bold" font-family="'Helvetica Neue', Helvetica, Arial-Unicode, Arial, Sans-serif">from the Noun Project</text></svg>