<svg xmlns="http://www.w3.org/2000/svg" version="1.1" viewBox="-5.0 -10.0 110.0 135.0">
 <g>
  <path d="m20.055 30.141c0.58984 0 1.0703-0.48047 1.0703-1.0703v-11.059h11.059c0.58984 0 1.0703-0.48047 1.0703-1.0703s-0.48047-1.0703-1.0703-1.0703h-12.129c-0.58984 0-1.0703 0.48047-1.0703 1.0703v12.129c0 0.58984 0.48047 1.0703 1.0703 1.0703z"/>
  <path d="m67.238 15.879h-12.129c-0.58984 0-1.0703 0.48047-1.0703 1.0703 0 0.58984 0.48047 1.0703 1.0703 1.0703h11.059v11.059c0 0.58984 0.48047 1.0703 1.0703 1.0703 0.58984 0 1.0703-0.48047 1.0703-1.0703v-12.129c0-0.58984-0.48047-1.0703-1.0703-1.0703z"/>
  <path d="m32.184 63.438h-11.059v-11.059c0-0.58984-0.48047-1.0703-1.0703-1.0703-0.58984 0-1.0703 0.48047-1.0703 1.0703v12.129c0 0.58984 0.48047 1.0703 1.0703 1.0703h12.129c0.58984 0 1.0703-0.48047 1.0703-1.0703 0-0.58984-0.48047-1.0703-1.0703-1.0703z"/>
  <path d="m67.238 51.305c-0.58984 0-1.0703 0.48047-1.0703 1.0703v11.059h-11.059c-0.58984 0-1.0703 0.48047-1.0703 1.0703s0.48047 1.0703 1.0703 1.0703h12.129c0.58984 0 1.0703-0.48047 1.0703-1.0703v-12.129c0-0.58984-0.48047-1.0703-1.0703-1.0703z"/>
  <path d="m96.66 89.895-22.367-23.727c5.5977-6.9805 8.9492-15.812 8.9492-25.438-0.007813-22.453-18.273-40.73-40.738-40.73-22.461 0-40.727 18.277-40.727 40.727 0 22.453 18.277 40.727 40.727 40.727 8.4922 0 16.391-2.6133 22.922-7.0859l22.293 23.641c1.082 1.1875 2.5586 1.8945 4.1758 1.9688h0.30859c1.5 0 2.9336-0.54687 4.0469-1.5625 2.4609-2.2383 2.6562-6.0586 0.40625-8.543zm-92.742-49.168c0-21.273 17.312-38.586 38.586-38.586 21.273 0 38.586 17.312 38.586 38.586 0 21.273-17.312 38.586-38.586 38.586-21.273 0.003906-38.586-17.301-38.586-38.586zm68.973 27.09 2.3555 2.5039-5.75 5.2695-2.3242-2.4727c2.0664-1.5859 3.9844-3.3516 5.7188-5.3008zm21.918 29.035c-0.76953 0.69531-1.7578 1.0508-2.8047 0.99609-1.0391-0.054687-2.0039-0.50391-2.707-1.2852l-18.32-19.422 5.75-5.2695 18.363 19.477c1.4453 1.5938 1.3164 4.0586-0.26953 5.5039z"/>
  <path d="m60.438 54.527c1.2539 4.1953 1.7891 6.3281 1.7969 6.3477 0.11719 0.49219 0.55859 0.8125 1.0391 0.8125 0.085937 0 0.17187 0 0.25781-0.03125 0.57812-0.14062 0.92188-0.72656 0.78125-1.2969-0.019531-0.085937-0.54688-2.1953-1.8203-6.4453-1.3906-4.668-7.5586-4.8945-11.348-4.8828-0.35156-0.042969-0.73828-0.20312-1.0273-0.84766-0.64063-1.4258-0.21484-3.6602 0.16016-4.1016 0.019531-0.019531 0.03125-0.054687 0.042968-0.085937 2.0859-2.2812 3.6406-5.2891 3.6406-8.1914v-6.168c0-5.7695-4.6992-10.473-10.473-10.473-5.7695 0-10.473 4.6992-10.473 10.473v1.7891 0.019531 0.03125 4.3242c0 2.9883 1.6367 6.082 3.8242 8.3828 0 0.011718 0.011718 0.019531 0.019531 0.03125 0.375 0.36328 0.87891 2.4961 0.30078 3.9062-0.25781 0.62109-0.63281 0.88672-1.2539 0.88672h-0.03125-0.03125c-3.7383-0.019531-10.32 0.03125-11.766 4.8711-1.2734 4.2383-1.7578 6.0391-1.7773 6.1133-0.14844 0.56641 0.18359 1.1562 0.76172 1.3047s1.1562-0.18359 1.3164-0.76172c0-0.019531 0.49219-1.8516 1.7578-6.0586 1.0156-3.4141 6.6289-3.3633 9.9688-3.3398h0.27734l6.3906 7.7734c0.20312 0.25781 0.53516 0.39453 0.85547 0.39453 0.33203 0 0.63281-0.17188 0.83594-0.42969l5.7695-7.7305h0.24609 0.69531 0.14062 0.054688c3.3633 0 8.1367 0.21484 9.0703 3.3516zm-9.0664-27.559c-4.668 0.12891-5.9531-3.8633-5.9648-3.9062 0-0.019531-0.019531-0.042969-0.03125-0.0625 0.12891-0.42969 0.23438-0.88672 0.32031-1.3711 2.6641 0.72656 4.7852 2.75 5.6758 5.3438zm-7.8789-5.6523h0.085937c-0.87891 4.4961-3.7461 5.4492-6.2969 6.2852-0.67578 0.22656-1.3711 0.46094-2.0117 0.76953 0.62109-3.9922 4.0586-7.0547 8.2227-7.0547zm-8.332 10.215c0.0625-0.91016 0.82422-1.2422 2.7852-1.8828 1.9492-0.64063 4.5703-1.5 6.2852-4.1523 1.1367 1.6914 3.3203 3.6406 6.9062 3.6406 0.20312 0 0.42969-0.03125 0.64062-0.042969 0.011718 0.19141 0.03125 0.38672 0.03125 0.57812v6.168c0 4.4766-5.1172 9.8516-8.3281 9.8516-3.2109 0-8.3281-5.375-8.3281-9.8516v-4.293zm8.3945 25.012-5.2148-6.3477c0.34375-0.34375 0.62109-0.78125 0.82422-1.2969 0.27734-0.71875 0.40625-1.5859 0.39453-2.4531 1.3398 0.84766 2.707 1.3477 3.9297 1.3477 1.2969 0 2.75-0.56641 4.1641-1.5 0 0.97266 0.14062 1.9609 0.51562 2.7617 0.11719 0.26953 0.26953 0.50391 0.42969 0.71875l-5.0312 6.7461z"/>
 </g>
<text x="0.0" y="117.5" font-size="5.0" font-weight="bold" font-family="Arbeit Regular, Helvetica, Arial-Unicode, Arial, Sans-serif" fill="#000000">Created by Joanne Lush</text><text x="0.0" y="122.5" font-size="5.0" font-weight="bold" font-family="Arbeit Regular, Helvetica, Arial-Unicode, Arial, Sans-serif" fill="#000000">from Noun Project</text></svg>