<svg xmlns="http://www.w3.org/2000/svg" version="1.1" viewBox="-5.0 -10.0 110.0 135.0">
 <path d="m94.473 47.574c-0.10547-0.054688-38.188-22.047-38.207-22.047v-0.007813c-3.0195-1.3867-5.4805-4.2461-8.0547-2.7539-0.1875 0.10547-37.961 22.066-37.961 22.066-2.0664 1.293-3.4453 1.9727-4.3008 2.4805-0.85938 0.50781-1.207 0.83984-1.207 1.4258v0.007813c0.16797 2.0664-0.48047 2.9609 0.78125 3.6797 1.1992 0.69922 12.199 7.0469 12.199 7.0469 0.09375 0.054688 7.4258 4.2734 7.4258 4.2734 0.78125 0.47266 22.121 12.781 23.359 13.492 0.09375 0.027344 1.6797 0.94531 3.2812 0.007813 0.09375-0.054688 42.707-24.793 42.793-24.887 0.43359-0.27344 0.67969-0.66016 0.67969-1.0742-0.16797-2.0508 0.48438-2.9844-0.78906-3.7109zm-5.6406-2.4414-3.2188 1.8672-3-1.7344 3.2266-1.8711zm-16.758 9.7344c-0.22656 0.13281-6.9453 4.0273-7.3789 4.2734-0.085937 0.054687-6.9531 4.0469-7.3867 4.293-0.16797 0.09375-7.2188 4.1797-7.2188 4.1875-0.09375-0.054688-10.961-6.3398-10.961-6.3398-0.09375-0.046875-7-4.0391-7.4336-4.2812l-0.019531-0.007812c-0.36719-0.21875-6.9922-4.0391-7.4141-4.2812-0.085938-0.046876-4.9062-2.832-5.207-3 2.8398-1.6406-1.3477 0.78125 17.52-10.168l-0.007813 1.0742c-0.007812 0.39453-0.019531 1.1133 0.57422 1.4609l4.3203 2.4531c-1.3867 2.3789-1.6406 2.4258-1.4727 2.7461 2.5664 4.6328 2.4727 4.5391 2.6133 4.6133 0.12109 0.066406-0.28125 0.039063 5.0742 0.17969 0.36719 0 0.17969-0.085937 2.9727-4.5664 0.1875-0.3125-0.12109-0.45312-1.3398-2.7812l1.4336-0.83203c1.2266 2.793 1.1875 2.9609 1.4805 3.0078h0.007813c3.5547 0.41406 4.6875 0.58594 5.1055 0.58594 0.22656 0 0.23437-0.046875 0.30078-0.13281 0.12109-0.16016 2.9531-3.9258 2.9531-3.9258 0.085937-0.5 0.33984 0.40625-1.8398-4.7539 0.074219-0.40625 0.007812-0.019531 0-1.4922 4.3867 2.5469 10.727 6.2188 21.914 12.68-0.10547 0.066406-4.6133 2.6875-4.9062 2.8594-0.55859 0.33594-3.6836 2.1484-3.6836 2.1484zm-44.188-12.262c0.71875-0.41406 3.5273-2.0391 3.7188-2.1523 0.10547-0.054687 7.3867-4.293 7.3867-4.293 0.75391-0.44531 3.707-2.1406 3.707-2.1406 0.22656-0.14062 6.7812-3.9453 7.1992-4.1797 0.09375 0.054687 14.688 8.4805 14.699 8.4805 0.58594 0.34766 3.5273 2.0469 3.7266 2.1523 0.09375 0.054688 11.141 6.4453 11.141 6.4453 1.3008 0.73438 3.0742 1.7734 3.1797 1.832l-1.2539 0.72656c-9.5859-5.5273-15.555-8.9922-22.82-13.207-0.1875-1.1406-1.3594-1.1992-7.207-4.7539-1.0195-0.59375-2.6211-0.59375-3.6406 0l-10.266 5.9609c-0.87891 0.52734-0.82031 1.168-0.83984 1.2656-21.426 12.434-15.727 9.1406-18.234 10.586l-1.0078-0.58594c0.078125-0.0625 10.512-6.1367 10.512-6.1367zm15.094 0.80859 2.0742 3.7734-2.2539 3.6992-2.0664-3.7734zm2.6719 4.1406 4.1055 0.10547-2.2461 3.6992-4.1055-0.10547zm0.015625-0.70703-2.0742-3.7734 4.1055 0.10547 2.0664 3.7734zm4.625-5.6406-2.2656 1.3125c-0.16797-0.066406 0.32031 0-5.0195-0.16016-4.2812-2.5664-6.8477-3.3125-5.207-4.2812l10.254-5.9609c0.79297-0.46094 2.1523-0.46094 2.9531 0 5.5469 3.3125 8.0273 4.0195 6.3789 4.9727l-1.3594 0.79297c-3.1406-0.35937-2.8867-0.39453-3.0859-0.1875-1.5547 2.0586-2.5469 3.3789-2.6484 3.5117zm2.8398-2.6133 1.707 3.9805-2.4609 3.2812-1.707-3.9922zm2.2617 4.4062 4.2734 0.5-2.4609 3.2734-4.2656-0.5zm0.085938-0.69922-1.707-3.9922 4.2734 0.5c0.066406 0.16016 1.707 3.9805 1.707 3.9805zm29.652 0.69141-3.2266 1.8789-3.0078-1.7461 3.2266-1.8789zm-3.7188-2.1523c-0.09375 0.054687-5.1875 3-5.5 3.1875l-3.0078-1.7461 5.4922-3.1875zm-3.7148-2.1406-3.2266 1.8672-3.0078-1.7461 3.2188-1.8672zm-3.7188-2.1445c-0.10547 0.054687-5.4922 3.1875-5.4922 3.1875l-3.0078-1.7461 5.4922-3.1875zm-3.7148-2.1484-3.2188 1.8672-3.0078-1.7461 3.2188-1.8672zm-3.7188-2.1406-3.2188 1.8672-3.0078-1.7461 3.2188-1.8672zm-3.7148-2.1523c-0.09375 0.054688-5.1797 3-5.5 3.1875l-3-1.7461 5.4922-3.1875zm-3.7188-2.1406-5.4922 3.1875-3.0078-1.7461 5.4922-3.1875zm-10.547-4.6055c0.6875-0.40625 1.8672-0.41406 2.5742 0l4.2539 2.4531-5.4922 3.1992-2.1211-1.2344-3.4258-1.9727zm-4.9141 2.8594 3.2461 1.8672-2.9922 1.7461-3.2461-1.8672zm-3.6914 2.1406 3.2344 1.8672-2.9805 1.7461-3.2461-1.8672zm-3.6953 2.1406c0.10547 0.066407 5.5391 3.1992 5.5391 3.1992l-2.9922 1.7461c-0.12109-0.074219-5.5391-3.1992-5.5391-3.1992zm-3.6797 2.1523 3.2461 1.8672-2.9922 1.7461-3.2461-1.8789zm-3.6992 2.1406 3.7812 2.1797 1.7656 1.0195-2.9922 1.7344c-0.27344-0.15234-5.5391-3.1875-5.5391-3.1875zm-3.6992 2.1523 3.2461 1.8672-2.9805 1.7461-3.2461-1.8672zm-3.6875 2.1406 3.2461 1.8789-2.9922 1.7461-3.2461-1.8789zm-3.6992 2.1523c0.12109 0.066406 5.2266 3 5.5469 3.1875l-2.9922 1.7461-5.5391-3.1992zm-3.6875 2.1406 3.2461 1.8672-2.9922 1.7461-3.2344-1.8672zm-8.2344 5.8945c-1.5938-0.91406 1.2656-1.5469 4.5469-3.7461l3.7656 2.168c0.1875 0.11328 1.7812 1.0195 1.7812 1.0195l-5.5 3.1992zm5.2891 3.0586 3.2266-1.8672c0.21875 0.12109 2.8203 1.6211 3.0078 1.7461l-3.2266 1.8672zm3.7109 2.1523 5.5-3.1992 3.0078 1.7461c-0.09375 0.054688-3.2812 1.9062-3.2812 1.9062l-2.2188 1.293zm3.7148 2.1406c0.10547-0.054687 3.2266-1.8672 3.2266-1.8672 0.09375 0.054687 2.832 1.6328 3.0078 1.7461-0.09375 0.054687-3.0195 1.7656-3.2188 1.8672zm3.7266 2.1406 3.2188-1.8672c0.24609 0.14062 2.832 1.6328 3.0078 1.7461-0.10547 0.054687-3.0195 1.7656-3.2188 1.8672zm3.7188 2.1406c0.26563-0.15234 5.5-3.1875 5.5-3.1875l3.0078 1.7461c-0.09375 0.054688-3.0273 1.7539-3.0273 1.7656l-2.4727 1.4336zm3.7148 2.1602c0.15234-0.09375 3.2266-1.8789 3.2266-1.8789 0.09375 0.054688 2.832 1.6328 3.0078 1.7461-0.09375 0.054688-3.0273 1.7656-3.2266 1.8789zm3.7188 2.1445c0.09375-0.054688 5.5-3.1992 5.5-3.1992l3.0078 1.7461-5.5 3.1992zm3.7148 2.1406c0.16797-0.09375 3.2188-1.8672 3.2188-1.8672 0.29297 0.16016 2.8203 1.6211 3.0078 1.7461l-3.2188 1.8672zm3.7188 2.1406 3.207-1.8672c0.25391 0.15234 2.8398 1.6328 3.0195 1.7461l-3.2188 1.8672zm7.9609 4.6055-4.2461-2.4531 5.5-3.1992c0.30078 0.16797 5.2266 3.0078 5.5195 3.1875-2.6602 1.2539-4.7266 3.6406-6.7734 2.4648zm4.2266-4.7461 2.9922-1.7461c0.11328 0.066407 3.0469 1.7734 3.2461 1.8789l-2.9805 1.7461c-0.17187-0.097656-3.2578-1.8789-3.2578-1.8789zm3.1719-2.4531-1.7656-1.0078 2.9805-1.7461c0.12109 0.066406 5.5469 3.1875 5.5469 3.1992l-2.9922 1.7344c-0.39453-0.21875-3.582-2.0586-3.7695-2.1797zm4.2266-1.832c0.13281-0.085938 2.9922-1.7461 2.9922-1.7461 0.16797 0.10547 3.0469 1.7656 3.2344 1.8672l-2.9922 1.7461zm3.6875-2.1406 2.9922-1.7461 3.2344 1.8672-2.9922 1.7344c-0.12109-0.0625-3.2344-1.8555-3.2344-1.8555zm1.3945-3.4727 2.9922-1.7461c0.12109 0.066406 5.2266 3 5.5391 3.1992l-2.9805 1.7461c-0.14453-0.085937-5.5508-3.1992-5.5508-3.1992zm5.9805-0.82813c0.14062-0.085937 2.9922-1.7461 3-1.7461 0.21875 0.13281 3.0195 1.7539 3.2461 1.8672l-2.9922 1.7461zm1.4062-3.4727 2.9805-1.7344c0.09375 0.054688 5.2266 3 5.5391 3.1875l-2.9805 1.7461c-0.14062-0.085937-5.2188-3.0195-5.5391-3.1992zm5.9844-0.82031 2.9922-1.7344c0.11328 0.066406 3.0469 1.7656 3.2461 1.8672l-2.9922 1.7461zm3.6953-2.1406 2.9805-1.7461 3.2461 1.8672-2.9922 1.7461c-0.09375-0.058594-3.0352-1.7539-3.2344-1.8672zm3.1719-2.4453c-0.14062-0.085937-1.6797-0.96094-1.7656-1.0273 0.19922-0.11328 5.4922-3.1875 5.4922-3.1875l4.5938 2.6523c0.57422 0.33984 0.58594 0.76562 0.019532 1.0938l-4.5664 2.6523c-0.13281-0.089844-3.7734-2.1836-3.7734-2.1836z"/>
 <path d="m48.32 33.992c-1.0195 0.14062-1.0469 1.3008 0.09375 1.4453 0.91406 0.13281 1.4922 0.44531 1.5391 0.55469-0.16797 0.054687 0.027344 0.36719-1.3594 0.27344-3.2266-0.21875-3.7344 0.98047-3.0195 1.6797-0.20703-0.14062-0.49219-0.24609-0.87891-0.24609-1.668 0-1.6602 1.7539 0.007813 1.7539 1.1523 0 1.5273-0.83203 1.0078-1.3867 0.38672 0.28125 0.93359 0.37891 1.3672 0.13281 0.88672-0.52734 2.7812 0.34766 4.332-0.56641 2.6562-1.5586-1.0508-3.9258-3.0898-3.6406z"/>
 <path d="m61.074 55.207-5.7344-3.3125c-0.92578-0.53906-2.3867-0.53906-3.3008 0-9.1211 5.5273-10.039 5.293-10.039 6.5742 0.074219 1.3398-0.5 2.2344 0.63281 2.9336 4.6602 2.5664 6.8867 4.793 9.1875 3.4141l9.5273-5.4336c0.52734-0.33203 0.52734-0.86719 0.51953-1.1875-0.14063-1.4023 0.42578-2.2812-0.79297-2.9883zm-8.6875-2.707c0.69922-0.41406 1.8945-0.41406 2.6133 0 4.207 2.7266 7.3672 3.4727 5.7344 4.4141l-9.2461 5.3672c-0.69922 0.41406-1.8867 0.41406-2.6055 0-5.5195-3.2812-6.1797-3.3398-6.1797-3.8672-0.003906-0.54687 0.71094-0.59375 9.6836-5.9141z"/>
 <path d="m49.207 58.621c0.25391 0.34766 0.60547 0.16016 2.3672-0.12109 1.1992-0.20703 2.9258 0.66016 3.2812 0.13281 0.28125-0.40625-0.25391-0.86719-0.48047-1.4727-0.10547-0.25391 0.11328-0.60547 0.29297-0.92578 1.0391-1.8398-1.5-0.79297-2.1797-0.77344-1.4453 0.25391-4.2539-1.2188-3.1055 0.75391 0.71094 1.2188-0.57031 1.8594-0.17578 2.4062z"/>
 <path d="m56.266 45.773c-0.34766 0.47266 0.52734 0.58594 0.88672 0.10547 0.34766-0.47266-0.53125-0.57812-0.88672-0.10547z"/>
 <path d="m58.379 44.234c0.34766-0.47266-0.52734-0.58594-0.88672-0.10547-0.35156 0.47656 0.53516 0.57812 0.88672 0.10547z"/>
 <path d="m54.234 45.527c-0.34766 0.47266 0.52734 0.58594 0.88672 0.10547 0.35156-0.46484-0.52734-0.58594-0.88672-0.10547z"/>
 <path d="m55.461 43.887c-0.34766 0.47266 0.52734 0.58594 0.88672 0.10547 0.35156-0.47266-0.52734-0.58594-0.88672-0.10547z"/>
 <path d="m54.18 42.781c0.36719-0.49219 0-1.3203-0.35938-0.83203-0.36719 0.48438 0 1.3164 0.35938 0.83203z"/>
 <path d="m52.934 42.641c0.35938-0.48047 0-1.3203-0.35938-0.83203-0.36719 0.49219 0 1.3125 0.35938 0.83203z"/>
 <path d="m51.332 41.668c-0.36719 0.49219 0.007813 1.3125 0.35938 0.83203 0.35547-0.48047-0.003906-1.3125-0.35938-0.83203z"/>
 <path d="m56.613 39.5c-0.57422-0.43359-0.95312 0.074219-0.37891 0.50781 0.57812 0.4375 0.97266-0.0625 0.37891-0.50781z"/>
 <path d="m56.668 41.301c0.24609 0.56641 1.1055 0.62109 0.88672 0.10547-0.23438-0.54688-1.1211-0.64062-0.88672-0.10547z"/>
 <path d="m47.008 43.754c-0.58594-0.007812-0.16797 0.76562 0.42578 0.78125 0.58594 0.011719 0.17188-0.76953-0.42578-0.78125z"/>
 <path d="m44.953 43.707c-0.59375-0.007812-0.16797 0.76562 0.42578 0.78125 0.59375 0.011719 0.16797-0.76953-0.42578-0.78125z"/>
 <path d="m48.641 45.945c-0.28125-0.51953-1.168-0.53906-0.89453-0.019531 0.29297 0.51953 1.1797 0.53516 0.89453 0.019531z"/>
 <path d="m45.699 45.879c0.28125 0.51953 1.168 0.53906 0.89453 0.019532-0.29297-0.51953-1.1797-0.53125-0.89453-0.019532z"/>
 <path d="m46.434 48.367c0.3125-0.50781-0.60547-0.53906-0.91406-0.019532-0.3125 0.51172 0.59375 0.53906 0.91406 0.019532z"/>
 <path d="m46.82 49.066c-0.60547-0.007812-1.0742 0.76562-0.47266 0.78125 0.61328 0.011719 1.0664-0.77344 0.47266-0.78125z"/>
 <path d="m47.426 50.16c-0.60547-0.007812-1.0742 0.76562-0.47266 0.78125 0.61328 0.011719 1.0664-0.77344 0.47266-0.78125z"/>
 <path d="m42.754 47.895c0.019532-0.72656-0.61328-0.72656-0.63281-0.007812-0.015625 0.70703 0.625 0.74609 0.63281 0.007812z"/>
 <path d="m43.66 46.414c0.019532-0.72656-0.61328-0.72656-0.63281-0.007812-0.019532 0.70703 0.61328 0.74609 0.63281 0.007812z"/>
<text x="0.0" y="117.5" font-size="5.0" font-weight="bold" font-family="Arbeit Regular, Helvetica, Arial-Unicode, Arial, Sans-serif" fill="#000000">Created by Azam Ishaq</text><text x="0.0" y="122.5" font-size="5.0" font-weight="bold" font-family="Arbeit Regular, Helvetica, Arial-Unicode, Arial, Sans-serif" fill="#000000">from Noun Project</text></svg>