<svg xmlns="http://www.w3.org/2000/svg" version="1.1" viewBox="-5.0 -10.0 110.0 135.0">
 <path d="m96.184 63.816c0.34766 0 0.68359-0.13672 0.92969-0.38281 0.24609-0.24609 0.38672-0.57812 0.38672-0.92578v-3.6289c0-0.34766-0.14062-0.67969-0.38672-0.92578-0.24609-0.24609-0.58203-0.38281-0.92969-0.38281h-1.4766l-0.035156-11.422 0.32812-0.09375 0.003906-0.003907c1.2617-0.35156 2.0039-1.6562 1.6602-2.9219l-0.80469-2.9297c-0.17188-0.60547-0.58203-1.1172-1.1328-1.4258-0.55078-0.30469-1.2031-0.37891-1.8086-0.20703l-8.1367 2.3164-0.011719-4.9844 0.33984-0.10156-0.003906 0.003906c1.2617-0.35938 1.9961-1.6641 1.6562-2.9258l-0.80078-2.918c-0.16406-0.60938-0.57031-1.1289-1.125-1.4336-0.55469-0.3125-1.207-0.38672-1.8164-0.21094l-21.535 6.1445c-1.2617 0.35547-2 1.6602-1.6602 2.9258l0.80469 2.9258h0.003906c0.16797 0.60938 0.57422 1.125 1.1289 1.4297 0.20312 0.11328 0.42188 0.19531 0.65234 0.24219v15.59h-8.0703c-0.21094-3.1016-0.26562-6.2422-0.26172-9.6797l0.023438-3.9766v-0.007812c0.007812-0.74609 0.015625-1.5117 0.023437-2.2891 0.023438-2.3086 0.050782-4.6875 0.054688-7.2734h2.8711c0.34766 0.003906 0.68359-0.13672 0.92969-0.38281 0.24609-0.24219 0.38672-0.57813 0.38672-0.92578v-6.5352c0-0.34766-0.14062-0.67969-0.38672-0.92578-0.24609-0.24609-0.58203-0.38281-0.92969-0.38281h-6.9297v-3.3906c-0.003906-0.83203 0.30859-1.6328 0.875-2.2461 0.28516-0.30469 0.68359-0.48047 1.1016-0.48828h0.007813l14.215 0.042969c0.72266 0 1.3086-0.58594 1.3086-1.3086 0-0.72266-0.58594-1.3086-1.3086-1.3086l-14.211-0.042969h-0.023437c-1.1133 0.003906-2.1719 0.45703-2.9492 1.25-1.0586 1.1016-1.6484 2.5742-1.6406 4.1016v3.3906h-12.023c-1.3125-3.9648-4.043-7.3047-7.668-9.3789-3.625-2.0703-7.8906-2.7266-11.973-1.8438-4.082 0.88281-7.6914 3.2461-10.137 6.6289-2.4414 3.3867-3.5469 7.5586-3.1016 11.707 0.44531 4.1523 2.4102 7.9922 5.5195 10.781 3.1055 2.793 7.1367 4.332 11.312 4.3281 0.16797 0 0.33203 0 0.5-0.007812l-0.011719 0.57812v0.003906c-0.050781 6.5-0.64844 12.984-1.7891 19.383l-0.88672 4.3594c-0.72656 3.2852-1.6523 6.9336-2.8438 11.176h-1.957c-1.75-0.003906-3.1719 1.4102-3.1758 3.1562v2.8398c0.003906 1.75 1.4258 3.1641 3.1758 3.1602h82.145c1.5156 0 2.7461-1.2266 2.7539-2.7422v-3.668c-0.003906-1.4492-1.1367-2.6484-2.5859-2.7344v-19.102zm-31.141-13.848 17.121-5.5859 0.007813 2.6953-17.129 5.9805zm19.766-1 7.2344-2.0547 0.011719 3.3477-7.2383 2.1523zm0.027344 8.6055-0.007813-2.4258 7.2344-2.1523 0.015625 4.582zm8.5625-16.422 0.67187 2.4453-9.2695 2.6445-0.007812-2.6406zm-11.258-4.4883 0.015625 4.9648-0.046875 0.015625-17.066 5.5703v-5.6836l10.469-2.9883zm1.3516-5.7617 0.67187 2.4453-9.3633 2.6758-11.43 3.2383-0.003906 0.003906c-0.074219 0.019531-0.14453 0.046875-0.21484 0.082031l-0.054688 0.015625-0.67578-2.4492zm-18.449 24.93 17.141-5.9883 0.011718 4.2852v0.0625l0.011719 3.375-17.164 0.003906zm18.484 4.3555h11.344v1.0117h-40.207c-0.035156-0.33594-0.074218-0.67578-0.10547-1.0117zm-55.785-14.949 23.723-0.019531c-0.003906 0.60938-0.007813 1.2109-0.011719 1.8008l-27.812-0.13672h0.003906c1.4336-0.36719 2.8086-0.92187 4.0977-1.6445zm-7.2266 23.66h32.719c0.12109 0.58203 0.25391 1.1797 0.39844 1.8008l-33.473-0.015625c0.125-0.60547 0.24219-1.1992 0.35547-1.7852zm0.47656-2.6172c0.91406-5.5469 1.418-11.156 1.5156-16.781l28.953 0.14062c0.019531 3.1914 0.10937 6.1992 0.35547 9.2148v0.023437l-0.003906 0.003906c0 0.074219 0.007812 0.15234 0.023438 0.23047 0.09375 1.1211 0.21094 2.2461 0.35156 3.3828v0.015625c0 0.10938 0.011719 0.22266 0.042969 0.33203 0.14453 1.1328 0.31641 2.2734 0.51953 3.4375zm30.508-24.691c0 0.33984-0.007812 0.67578-0.011719 1.0078l-20.242 0.015625v0.003907c2.3242-2.25 3.9492-5.1211 4.6797-8.2734h15.629c-0.007813 2.5781-0.03125 4.9453-0.054688 7.2461zm4.2383-13.781v3.9219l-19.422-0.003907c0.027344-0.38672 0.042969-0.77344 0.042969-1.1641 0-0.92188-0.078125-1.8438-0.23047-2.7539zm-50.609 2.7539c-0.023437-5.7891 3.4414-11.023 8.7852-13.258 5.3398-2.2305 11.5-1.0234 15.605 3.0625 4.1016 4.0859 5.3359 10.238 3.125 15.59-2.207 5.3516-7.4258 8.8438-13.215 8.8438-7.8789 0.007813-14.273-6.3633-14.301-14.238zm14.457 42.738 34.699 0.015625c0.76953 2.9492 1.7461 6.1094 2.9766 9.5938h-40.133c0.99219-3.5742 1.7969-6.7305 2.457-9.6094zm21.953 16.145 5.5-3.9219h4.1992l-5.5 3.9219zm-9.0742 0 5.5-3.9219h4.5586l-5.5 3.9219zm-9.1758 0 5.5-3.9219h4.6562l-5.5 3.9219zm-11.398-0.53906v-2.8398c0.003906-0.29688 0.25-0.53906 0.54688-0.53906h11.836l-5.5 3.9219-6.332-0.003907c-0.30078 0-0.54297-0.23828-0.54688-0.53906zm41.605 0.53906h-3.2461l5.5-3.9219 3.3789 0.003906c0.29688 0.003906 0.53906 0.24219 0.54297 0.53906v2.8398c-0.003906 0.29688-0.24609 0.53906-0.54297 0.53906zm41.211-0.12891v0.003906c0 0.070313-0.058593 0.125-0.125 0.125h-32.328c0.03125-0.17578 0.046875-0.35547 0.046875-0.53906v-2.8398c0-0.17969-0.015625-0.35938-0.046875-0.53906h32.332c0.066406 0.003906 0.12109 0.058594 0.125 0.125zm-13.254-6.4062h-10.078v-5.5898h10.078zm10.672 0h-8.0391v-6.8984c-0.003907-0.35156-0.14063-0.68359-0.38672-0.92969-0.24609-0.24609-0.58203-0.38281-0.92969-0.38281h-12.707c-0.34766 0-0.68359 0.13672-0.92969 0.38281-0.24609 0.24609-0.38672 0.57812-0.38672 0.92578v6.8984l-8.6953 0.003906c-1.5-4.1562-2.625-7.8125-3.4727-11.188l-0.003906-0.03125c-0.39453-1.5938-0.71484-3.0156-0.96875-4.3516-0.003907-0.011719-0.007813-0.027344-0.011719-0.039063-0.23047-1.1836-0.42578-2.3398-0.59375-3.4844h37.125zm-59.887-51.43c0.003907-0.36719-0.14844-0.71484-0.41406-0.96484s-0.625-0.37891-0.98828-0.35156l-5.9609 0.40625c-0.03125-0.21094-0.074219-0.41797-0.12891-0.625-0.32422-1.2305-1.0703-2.3047-2.1055-3.0391l3.2617-4.9492c0.20703-0.30859 0.26953-0.6875 0.17578-1.0469-0.089844-0.35547-0.33203-0.65625-0.66016-0.82812-3.8594-2.0391-8.4883-1.9766-12.289 0.16406-0.32031 0.17969-0.55078 0.48047-0.63672 0.83594-0.082032 0.35547-0.015626 0.73047 0.1875 1.0352l3.3359 4.9375c-1.1719 0.91797-1.918 2.2734-2.0664 3.7578l-5.9414-0.33594c-0.36719-0.023437-0.73047 0.10938-0.99219 0.37109-0.26562 0.25781-0.41016 0.61328-0.39453 0.98438 0.15625 4.3477 2.5312 8.3164 6.2891 10.512 0.31641 0.18359 0.69531 0.23047 1.0469 0.125 0.35156-0.10156 0.64062-0.34766 0.80469-0.67969l2.6211-5.3438v0.003907c0.64844 0.26172 1.3398 0.39844 2.0352 0.39844 0.78125 0 1.5547-0.16406 2.2695-0.48438l2.6758 5.2852v-0.003907c0.16797 0.32812 0.46484 0.57422 0.82031 0.67188 0.35547 0.10156 0.73438 0.046875 1.0508-0.14844 3.6914-2.3047 5.9531-6.332 6-10.684zm-16.523-9.5664c2.2891-0.89844 4.8242-0.93359 7.1406-0.10547l-2.7109 4.1133h0.003907c-0.56641-0.074219-1.1406-0.058594-1.7031 0.042969zm-2.6484 17.367c-1.9219-1.5234-3.2266-3.6914-3.668-6.1055l4.9375 0.28125v-0.003906c0.21875 0.52734 0.51562 1.0156 0.88281 1.4453zm7.1016-5.1523c-1.3242 0.34375-2.707-0.28906-3.3047-1.5195-0.59766-1.2305-0.24609-2.7109 0.84375-3.5352 1.0898-0.82812 2.6094-0.76953 3.6328 0.13672 1.0234 0.90625 1.2656 2.4102 0.57422 3.5898-0.38281 0.65625-1.0117 1.1328-1.7461 1.3281zm8.0703 2.3125c-0.58203 1.0039-1.3359 1.8984-2.2227 2.6484l-2.2227-4.3906c0.14453-0.1875 0.27734-0.38672 0.39844-0.58984 0.16406-0.28516 0.30469-0.58594 0.41797-0.89453l4.8867-0.33594v0.003906c-0.19141 1.2539-0.62109 2.4609-1.2578 3.5586zm32.074 35.699h3.6523c0.34766 0 0.67969-0.13672 0.92578-0.38281 0.24609-0.24609 0.38672-0.57812 0.38672-0.92578v-4.4102c0-0.34766-0.14062-0.67969-0.38672-0.92578s-0.57812-0.38281-0.92578-0.38281h-3.6523c-0.72266 0-1.3125 0.58594-1.3125 1.3086v4.4102c0 0.72266 0.58984 1.3086 1.3125 1.3086zm1.3164-4.4062h1.0195v1.7891h-1.0234zm10.25 4.4062h3.6523-0.003906c0.34766 0 0.67969-0.13672 0.92969-0.38281 0.24609-0.24609 0.38281-0.57812 0.38672-0.92578v-4.4102c-0.003906-0.34766-0.14062-0.67969-0.38672-0.92578-0.24609-0.24609-0.58203-0.38281-0.92969-0.38281h-3.6523c-0.34766 0-0.68359 0.13672-0.92969 0.38281-0.24609 0.24609-0.38281 0.57812-0.38281 0.92578v4.4102c0 0.34766 0.13672 0.67969 0.38281 0.92578 0.24609 0.24609 0.58203 0.38281 0.92969 0.38281zm1.3164-4.4062h1.0234v1.7891h-1.0273zm10.277 4.4062h3.6523-0.007812c0.34766 0 0.68359-0.13672 0.92969-0.38281 0.24609-0.24609 0.38672-0.57812 0.38672-0.92578v-4.4102c0-0.34766-0.14062-0.67969-0.38672-0.92578s-0.58203-0.38281-0.92969-0.38281h-3.6523c-0.34766 0-0.67969 0.13672-0.92578 0.38281-0.24609 0.24609-0.38672 0.57812-0.38672 0.92578v4.4102c0 0.34766 0.14062 0.67969 0.38672 0.92578 0.24609 0.24609 0.57813 0.38281 0.92578 0.38281zm1.3164-4.4062h1.0117v1.7891h-1.0195zm-42.188-50.32v-4.1875c0-2.5859 1.6016-5.2656 4.2852-5.2695l6.2148-0.019531c0.35156-0.011719 0.69531 0.12109 0.94922 0.36719 0.25 0.24609 0.39453 0.58594 0.39453 0.94141 0 0.35156-0.14453 0.69141-0.39453 0.9375-0.25391 0.24609-0.59766 0.37891-0.94922 0.37109l-6.2109 0.019531c-0.98047 0-1.6641 1.3984-1.6641 2.6523v4.1836l-0.003906 0.003906c-0.019531 0.71094-0.60156 1.2773-1.3125 1.2773-0.71094 0-1.2969-0.56641-1.3164-1.2773zm9.5195-5.7305h5.7109v-0.003906c0.35156-0.007813 0.69531 0.125 0.94922 0.37109 0.25391 0.24609 0.39453 0.58594 0.39453 0.9375 0 0.35547-0.14062 0.69141-0.39453 0.94141-0.25391 0.24609-0.59766 0.37891-0.94922 0.36719h-5.7109c-0.35156 0.011719-0.69531-0.12109-0.94922-0.36719-0.25391-0.25-0.39453-0.58594-0.39453-0.94141 0-0.35156 0.14062-0.69141 0.39453-0.9375 0.25391-0.24609 0.59766-0.37891 0.94922-0.37109zm7.8789 1.7773c0-0.34766 0.14062-0.67969 0.38672-0.92578 0.24609-0.24609 0.58203-0.38281 0.92969-0.38281h5.7148c0.35156-0.007813 0.69531 0.125 0.94922 0.37109 0.25 0.24609 0.39453 0.58594 0.39453 0.9375 0 0.35547-0.14453 0.69141-0.39453 0.9375-0.25391 0.24609-0.59766 0.38281-0.94922 0.37109h-5.7148c-0.34766 0-0.68359-0.13672-0.92969-0.38281-0.24609-0.24219-0.38672-0.57812-0.38672-0.92578zm-23.367 6.75c-0.77344-1.4805-0.48828-3.1914-0.23828-4.6992 0.21484-0.86719 0.26172-1.7656 0.14062-2.6484-0.1875-0.69531 0.21484-1.4102 0.90625-1.6094 0.69531-0.19922 1.418 0.19922 1.6211 0.89062 0.25781 1.2539 0.23047 2.5469-0.074219 3.793-0.28906 1-0.29688 2.0586-0.023437 3.0625 0.33594 0.64453 0.082031 1.4375-0.5625 1.7695-0.64453 0.33203-1.4375 0.082031-1.7695-0.5625zm-4.9883-2.6484c-0.77344-1.4805-0.48828-3.1953-0.23828-4.6992v-0.003906c0.21484-0.86328 0.26562-1.7617 0.14453-2.6445-0.18359-0.69531 0.21875-1.4062 0.91016-1.6016 0.6875-0.19922 1.4062 0.19531 1.6172 0.87891 0.25391 1.2539 0.22656 2.5469-0.078125 3.7891-0.28906 1.0039-0.29688 2.0664-0.023438 3.0742 0.30469 0.64062 0.042969 1.4023-0.58594 1.7266s-1.4023 0.089844-1.7461-0.52734z"/>
<text x="0.0" y="117.5" font-size="5.0" font-weight="bold" font-family="Arbeit Regular, Helvetica, Arial-Unicode, Arial, Sans-serif" fill="#000000">by Ochtaviaasmieza01@gmail.com</text><text x="0.0" y="122.5" font-size="5.0" font-weight="bold" font-family="Arbeit Regular, Helvetica, Arial-Unicode, Arial, Sans-serif" fill="#000000">from Noun Project</text></svg>