<svg xmlns="http://www.w3.org/2000/svg" data-name="Layer 1" viewBox="0 0 95 118.75" x="0px" y="0px"><path d="M86.139,64.148A15.965,15.965,0,0,0,72.021,47V43.062a3.7,3.7,0,0,0-3.7-3.7H65.883V19.75a1.292,1.292,0,0,0-.378-.913l-8.731-8.731a1.291,1.291,0,0,0-.914-.379H19.131a1.292,1.292,0,0,0-1.292,1.292v2.507L6.029,15.009a1.292,1.292,0,0,0-1.121,1.443L7.38,36.14A11.8,11.8,0,0,1,2.063,38.8,1.292,1.292,0,0,0,1,40.07V53.757a1.306,1.306,0,0,0,.061.393c1.38,4.32,3.415,6.7,6.122,8.356l3.144,15.577c.422,2.091,1.863,3.442,3.672,3.442h12.03a10.74,10.74,0,0,0,8.152,3.748H83.237a10.762,10.762,0,0,0,2.9-21.125Zm-68.3-48.017V34.165a1.287,1.287,0,0,0-.682-.2H10.21a1.292,1.292,0,0,0-.486.1L7.633,17.412ZM6.447,54.136V48.247a2.7,2.7,0,0,1,1.94-2.584V44.335a5.3,5.3,0,1,1,10.593,0v1.328a2.7,2.7,0,0,1,1.94,2.584v5.889a2.7,2.7,0,0,1-2.694,2.694H9.141A2.7,2.7,0,0,1,6.447,54.136ZM25.259,68.515c-.109.161-.212.326-.312.493-.029.047-.056.095-.084.143-.085.148-.168.3-.247.45-.015.03-.032.059-.048.09-.083.166-.162.336-.237.507-.03.066-.058.132-.086.2-.056.136-.11.273-.161.411-.015.041-.034.081-.048.122h-5.46v-2.44h6.7ZM31.7,64.037a10.713,10.713,0,0,0-3.965,1.868H17.284A1.291,1.291,0,0,0,15.992,67.2v5.024a1.291,1.291,0,0,0,1.292,1.292h6.182c-.031.329-.048.661-.048,1a10.69,10.69,0,0,0,.959,4.431H14c-.8,0-1.074-1.048-1.139-1.369l-2.746-13.6c.984.408,2.033.785,3.15,1.169a1.292,1.292,0,0,0,.839,0c4.6-1.578,8.06-3.055,10.44-6.992h9.219A15.873,15.873,0,0,0,31.7,64.037Zm4.934-9.467q-.511.477-.976.991H25.8c.176-.446.344-.915.5-1.411a1.306,1.306,0,0,0,.061-.393V51.572H38.705l.684.943A16.04,16.04,0,0,0,36.637,54.57ZM63.3,48.479c-.037.018-.075.034-.112.053A7.2,7.2,0,0,0,50.619,50.6a16.027,16.027,0,0,0-8.87.771L40.41,49.521a1.292,1.292,0,0,0-1.046-.533h-13V44.963H58.889a1.292,1.292,0,0,0,0-2.584H26.367V40.07a1.291,1.291,0,0,0-.427-.959H38.852a1.292,1.292,0,0,0,0-2.584H24.833a1.293,1.293,0,0,0-1.187,1.8,12.8,12.8,0,0,1-3.223-1.845V12.311H54.568V19.75a1.291,1.291,0,0,0,1.292,1.292H63.3Zm6.138-1.562a15.953,15.953,0,0,0-3.554.583V41.949h2.441a1.114,1.114,0,0,1,1.113,1.113ZM16.4,45.554H10.971V44.335a2.713,2.713,0,1,1,5.425,0Zm1.83,8.692H9.141a.114.114,0,0,1-.11-.11V48.247a.114.114,0,0,1,.11-.109h4.3a2.263,2.263,0,0,0-1.054,4.109v.674a1.292,1.292,0,1,0,2.584,0v-.674a2.262,2.262,0,0,0-1.053-4.109h4.3a.114.114,0,0,1,.11.109v5.889A.115.115,0,0,1,18.226,54.246Zm33.43-22.034H38.96a1.292,1.292,0,1,1,0-2.584h12.7a1.292,1.292,0,0,1,0,2.584ZM37.668,26.86a1.292,1.292,0,0,1,1.292-1.292h7.053a1.292,1.292,0,1,1,0,2.584H38.96A1.291,1.291,0,0,1,37.668,26.86Zm4.655,9.667H58.889a1.292,1.292,0,0,1,0,2.584H42.323a1.292,1.292,0,0,1,0-2.584Zm-6.233-4.4v.722A1.291,1.291,0,0,1,34.8,34.139H25.346a1.292,1.292,0,0,1-1.292-1.292v-.722a5.272,5.272,0,0,1,4.892-5.451,1.3,1.3,0,0,1,1.006.423l.12.133.121-.133a1.294,1.294,0,0,1,1.006-.423A5.271,5.271,0,0,1,36.09,32.125Zm-9.573-10.21a3.555,3.555,0,0,1,7.11,0c0,1.776-1.418,4.46-3.555,4.46S26.517,23.691,26.517,21.915Z"/><text x="0" y="110" fill="#000000" font-size="5px" font-weight="bold" font-family="'Helvetica Neue', Helvetica, Arial-Unicode, Arial, Sans-serif">Created by Rokhman Kharis</text><text x="0" y="115" fill="#000000" font-size="5px" font-weight="bold" font-family="'Helvetica Neue', Helvetica, Arial-Unicode, Arial, Sans-serif">from the Noun Project</text></svg>