<svg xmlns="http://www.w3.org/2000/svg" version="1.1" viewBox="-5.0 -10.0 110.0 135.0">
 <path d="m45.359 74.18c-0.15234 0-0.30469-0.03125-0.44531-0.085938-0.48047-0.19922-0.77344-0.6875-0.71875-1.207l2.168-20.758h-12.246c-0.44922 0-0.85547-0.25391-1.0508-0.65625-0.19531-0.40234-0.14844-0.87891 0.125-1.2344l18.523-23.965c0.30859-0.39844 0.83984-0.55469 1.3125-0.39063 0.48047 0.16406 0.78906 0.62109 0.78516 1.125l-0.29297 19.293h12.352c0.44922 0 0.86328 0.25781 1.0547 0.66406 0.19531 0.40625 0.14062 0.89062-0.14062 1.2422l-20.523 25.531c-0.21484 0.28516-0.55469 0.44141-0.90234 0.44141zm-8.8555-24.395h11.156c0.33203 0 0.64844 0.14062 0.86719 0.38672 0.22266 0.25 0.32812 0.57812 0.29297 0.91016l-1.8906 18.09 16.5-20.527h-11.098c-0.3125 0-0.61719-0.125-0.83594-0.35156-0.21875-0.22656-0.34375-0.52734-0.33594-0.83984l0.25781-16.961z"/>
 <path d="m50 21.953c-0.64844 0-1.1719-0.52344-1.1719-1.1719v-7.1094c0-0.64844 0.52344-1.1719 1.1719-1.1719s1.1719 0.52344 1.1719 1.1719v7.1094c0 0.64844-0.52344 1.1719-1.1719 1.1719z"/>
 <path d="m70.66 30.512c-0.29688 0-0.60156-0.11328-0.82812-0.34375-0.46094-0.46094-0.46094-1.2031 0-1.6562l5.0312-5.0312c0.46094-0.46094 1.2031-0.46094 1.6562 0 0.46094 0.46094 0.46094 1.2031 0 1.6562l-5.0312 5.0312c-0.23047 0.22656-0.52734 0.34375-0.82812 0.34375z"/>
 <path d="m86.328 51.172h-7.1094c-0.64844 0-1.1719-0.52344-1.1719-1.1719s0.52344-1.1719 1.1719-1.1719h7.1094c0.64844 0 1.1719 0.52344 1.1719 1.1719s-0.52344 1.1719-1.1719 1.1719z"/>
 <path d="m75.688 76.859c-0.29688 0-0.60156-0.11328-0.82812-0.34375l-5.0312-5.0312c-0.46094-0.46094-0.46094-1.2031 0-1.6562 0.46094-0.46094 1.2031-0.46094 1.6562 0l5.0312 5.0312c0.46094 0.46094 0.46094 1.2031 0 1.6562-0.22656 0.22656-0.53125 0.34375-0.82812 0.34375z"/>
 <path d="m50 87.5c-0.64844 0-1.1719-0.52344-1.1719-1.1719v-7.1094c0-0.64844 0.52344-1.1719 1.1719-1.1719s1.1719 0.52344 1.1719 1.1719v7.1094c0 0.64844-0.52344 1.1719-1.1719 1.1719z"/>
 <path d="m24.312 76.859c-0.29688 0-0.60156-0.11328-0.82812-0.34375-0.46094-0.46094-0.46094-1.2031 0-1.6562l5.0312-5.0312c0.46094-0.46094 1.2031-0.46094 1.6562 0s0.46094 1.2031 0 1.6562l-5.0312 5.0312c-0.22656 0.22656-0.52734 0.34375-0.82812 0.34375z"/>
 <path d="m20.781 51.172h-7.1094c-0.64844 0-1.1719-0.52344-1.1719-1.1719s0.52344-1.1719 1.1719-1.1719h7.1094c0.64844 0 1.1719 0.52344 1.1719 1.1719s-0.52344 1.1719-1.1719 1.1719z"/>
 <path d="m29.34 30.512c-0.29688 0-0.60156-0.11328-0.82812-0.34375l-5.0312-5.0312c-0.46094-0.46094-0.46094-1.2031 0-1.6562 0.45703-0.45312 1.2031-0.46094 1.6562 0l5.0312 5.0312c0.46094 0.46094 0.46094 1.2031 0 1.6562-0.22656 0.22656-0.52734 0.34375-0.82812 0.34375z"/>
<text x="0.0" y="117.5" font-size="5.0" font-weight="bold" font-family="Arbeit Regular, Helvetica, Arial-Unicode, Arial, Sans-serif" fill="#000000">Created by Iconbunny</text><text x="0.0" y="122.5" font-size="5.0" font-weight="bold" font-family="Arbeit Regular, Helvetica, Arial-Unicode, Arial, Sans-serif" fill="#000000">from Noun Project</text></svg>