<svg xmlns="http://www.w3.org/2000/svg" version="1.1" viewBox="-5.0 -10.0 110.0 135.0">
 <g>
  <path d="m93.801 44.602c0.60156-0.69922 1.1992-1.5 1.1016-2.5-0.10156-0.69922-0.39844-1.3984-1-1.8008-1.3008-0.80078-2.6016-0.19922-4-0.80078-0.60156-0.30078-0.60156-1-1.3008-1.5-0.19922-0.10156-0.5-0.19922-0.69922-0.19922-0.60156-0.10156-0.80078-0.19922-0.60156-0.80078 0.10156-0.39844 0.30078-0.80078 0.39844-1.1992 0.19922-0.5 0-1-0.39844-1.3008-0.5-0.39844-1-0.69922-1.5-1s-1.1016-0.30078-1.5 0.10156c-0.19922 0.19922-0.39844 0.39844-0.5 0.60156-0.19922 0.39844-0.39844 0.5-0.89844 0.39844-0.89844-0.19922-1.5 0.19922-1.6992 1.1992v0.80078 0.39844c-0.30078 0.10156-0.5-0.10156-0.60156-0.30078-0.19922-0.30078-0.5-0.39844-0.80078-0.39844-0.60156 0-1.1992 0.10156-1.5 0.60156-0.19922 0.19922-0.39844 0.30078-0.60156 0.39844-0.5 0.19922-1.1016 0.5-1.6016 0.80078-0.10156 0.10156-0.19922 0.19922-0.19922 0.30078-0.30078 0.69922-0.39844 1.3984 0.10156 2-0.30078 0.30078-0.60156 0.5-0.89844 0.80078 0-1-0.39844-1.8008 0.30078-2.6016 0.5-0.5 0.89844-1.1992 0.19922-2 0.5-0.30078 0.5-0.39844 0.30078-0.69922-0.19922-0.30078-0.5-0.60156-0.80078-0.69922-0.80078-0.5-1.1992-1.1016-1-2 0.10156-0.60156 0.10156-1.3008-0.39844-1.8984 0.89844-0.10156 1.3984-0.60156 1.8008-1.3984-0.30078-0.5-0.69922-1-0.89844-1.5-0.30078-0.5-0.39844-1-0.69922-1.5-0.19922-0.39844-0.19922-0.69922 0.19922-1 0.19922-0.10156 0.30078-0.39844 0.30078-0.69922s-0.19922-0.60156-0.39844-0.80078c-0.69922-0.69922-1.1016-1.6016-1.5-2.5-0.30078-0.60156-0.39844-1.1992-0.89844-1.6016-0.10156-0.10156-0.10156-0.19922-0.19922-0.39844-0.30078-0.80078-0.69922-1.6992-0.89844-2.5s-0.30078-1.5-0.39844-2.3008c-0.10156-0.5 0-1.1016 0-1.6992 0-0.30078 0-0.5-0.39844-0.60156-0.39844-0.10156-0.69922 0-0.89844 0.30078-0.39844 0.80078-0.69922 1.6016-0.89844 2.3984-0.39844 1.8984-1.1992 3.6992-2.3984 5.1992-0.39844 0.5-0.69922 1.1016-0.80078 1.6016-0.10156 0.39844-0.30078 0.69922-0.60156 1-0.39844 0.30078-0.69922 0.60156-1 0.89844-0.5 0.39844-0.39844 0.89844-0.19922 1.3984s0.5 0.69922 1 0.60156c0.19922 0 0.30078 0 0.5 0.10156 0.10156 0.60156-0.10156 1-0.30078 1.3984-0.19922 0.39844-0.39844 0.80078-0.5 1.1992-0.10156 0.19922-0.10156 0.5 0 0.69922 0.19922 0.39844 0.10156 0.69922-0.19922 1-0.19922 0.19922-0.39844 0.30078-0.69922 0.5-0.89844 0.39844-1.1016 1.3008-0.5 2.1016 0.10156 0.10156 0.19922 0.30078 0.19922 0.30078-0.39844 0.39844-0.80078 0.69922-1.1016 1-0.39844 0.5-0.30078 0.89844 0.19922 1.3008 0.19922 0.10156 0.39844 0.19922 0.80078 0.39844-0.39844 0.30078-0.60156 0.60156-1 0.69922-0.39844 0.19922-0.69922 0.60156-0.89844 1-0.10156 0.30078-0.10156 0.60156 0.10156 0.80078 0.19922 0.19922 0.39844 0.39844 0.60156 0.69922-1.3984 0-1.8984 0.69922-2 1.8008-0.60156 0.69922-1.1992 1.3008-1.8984 2-0.19922-0.30078-0.30078-0.60156-0.5-0.89844-0.19922-0.30078-0.39844-0.5-0.60156-0.69922 0.60156-0.5 1.5-0.19922 2-1-0.39844-0.89844-0.89844-1.6016-1.8008-2.1016-0.5-0.19922-0.80078-0.80078-1.1992-1.1992 0 0 0-0.10156 0.10156-0.19922 0.10156 0 0.19922 0.10156 0.39844 0.10156 0.30078 0.10156 0.5 0.30078 0.80078 0.30078 0.80078 0 1.3984-0.39844 1.8008-1.1016 0.60156-0.80078 0.30078-1.6016 0.19922-2.3984 0-0.10156-0.30078-0.30078-0.5-0.30078-0.5-0.10156-0.89844-0.19922-1.3984-0.39844-0.19922-0.10156-0.39844-0.30078-0.5-0.39844 0.39844-0.5 0.39844-0.80078 0.10156-1.3008-0.19922-0.19922-0.19922-0.5-0.39844-0.80078 0.69922-0.60156 0.89844-0.89844 1.1016-1.3984 0.19922-0.80078 0-1.1016-0.80078-1.1992-0.30078 0-0.5-0.10156-0.69922-0.19922-0.19922-0.10156-0.5-0.19922-0.5-0.39844-0.10156-0.39844-0.5-0.69922-0.80078-0.89844-0.5-0.5-0.89844-1-0.5-1.8008 0.10156-0.10156 0-0.30078 0-0.5-0.10156-0.60156 0.19922-1.3984-0.30078-1.8984-0.10156-0.10156 0-0.19922 0-0.30078 0-0.39844-0.19922-0.69922-0.60156-0.80078-0.5-0.10156-0.80078-0.5-1-0.89844-0.5-1.3984-1.1016-2.8984-1.5-4.3008-0.30078-0.89844-0.30078-1.8008-0.39844-2.6992-0.10156-0.80078-0.19922-1.6992-0.69922-2.3984-0.19922-0.39844-0.5-0.5-0.89844-0.39844-0.30078 0.10156-0.5 0.19922-0.5 0.69922 0 0.30078-0.10156 0.60156 0 0.80078 0.30078 0.89844 0.10156 1.8008-0.19922 2.6016-0.60156 1.8008-1.1992 3.6016-1.8008 5.3984 0 0.10156-0.10156 0.19922-0.10156 0.30078-0.39844 0.5-0.19922 1 0 1.3984 0.10156 0.19922 0.19922 0.30078 0.30078 0.60156-0.30078 0.5-0.69922 1-1.1016 1.3984-0.30078 0.30078-0.39844 0.60156-0.30078 1.1016 0.30078 0.80078 0.10156 1.6016-0.60156 2.1016-0.10156 0.10156-0.19922 0.19922-0.19922 0.30078-0.60156 0.5-0.60156 1.1016-0.5 1.6992 0 0.19922 0.10156 0.5 0.10156 0.69922 0.19922 0.10156 0.39844 0.30078 0.60156 0.39844-0.30078 0.30078-0.5 0.5-0.69922 0.80078-0.19922 0.30078-0.30078 0.69922-0.60156 0.89844-0.69922-0.39844-1.1992-0.89844-1.5-1.6016-0.10156-0.30078-0.30078-0.5-0.5-0.80078-0.19922-0.5-0.5-0.89844-0.69922-1.3008 0.5-0.19922 0.89844-0.30078 1.3008-0.5-0.10156-0.60156-0.30078-1-0.80078-1.3008-0.39844-0.19922-0.89844-0.39844-1.1016-0.89844 0.30078-0.39844 0.5-0.80078 0.80078-1.1016 0.30078-0.39844 0.30078-0.39844 0-0.80078-0.5-0.60156-1-1.1992-1.1992-1.8984-0.19922-0.69922-0.39844-1.3008-0.69922-2-0.19922-0.60156-0.5-1.1992-0.80078-1.8984-0.10156-0.19922-0.10156-0.5-0.10156-0.69922 0.10156-1.3008-0.10156-2.6016-0.69922-3.8008-0.19922-0.39844-0.39844-0.60156-0.69922-0.5-0.30078 0.10156-0.5 0.30078-0.30078 0.80078 0.10156 0.39844 0.10156 0.80078-0.10156 1.1992-0.19922 0.60156-0.30078 1.3008-0.5 1.8984-0.10156 0.39844-0.19922 0.80078-0.39844 1.1016-0.39844 0.80078-0.80078 1.5-1.3008 2.1992-0.30078 0.5-0.69922 1-1.3008 1.1992-0.60156 0.19922-0.69922 0.5-0.39844 1.1016 0.10156 0.30078 0.19922 0.60156 0 0.89844-0.39844 0.69922-0.69922 1.5-1.1016 2.1992-0.10156 0.19922-0.30078 0.30078-0.5 0.39844-0.39844 0.19922-0.80078 0.30078-1.1992 0.39844-0.60156 0.19922-0.69922 0.5-0.19922 1 0.19922 0.19922 0.39844 0.30078 0.5 0.5 0.30078 0.39844 0.19922 0.69922-0.19922 0.80078-0.30078 0.10156-0.60156 0.10156-0.89844 0.10156-0.39844 0-0.69922 0.10156-0.80078 0.60156-0.10156 0.39844-0.19922 0.80078-0.19922 1.1992-0.10156-0.10156-0.10156-0.19922-0.19922-0.30078-0.19922-0.5-0.60156-0.69922-1.1016-0.80078-0.60156-0.10156-1.1016 0.19922-1.6016 0.5-0.80078 0.5-0.89844 0.89844-0.69922 1.8008 0.10156 0.30078 0 0.5-0.39844 0.60156v-1c0-0.89844-0.5-1.3984-1.3984-1.3008-0.5 0.10156-0.89844 0.30078-1.3008 0.39844-0.5-0.5-1-1.1016-1.5-1.6992-0.30078-0.30078-0.69922-0.39844-1.1992-0.30078-0.39844 0.10156-0.69922 0.10156-1.1016 0.19922-0.30078 0.10156-0.60156 0.19922-0.69922 0.5-0.30078 0.69922-0.69922 1.3984-0.5 2.3008 0.10156 0.30078 0.19922 0.69922 0.39844 1-0.80078-0.30078-1.6992-0.10156-2.1016 0.5-0.19922 0.30078-0.39844 0.69922-0.5 1.1016-0.19922 0.39844-0.19922 0.69922 0 1.1016 0.19922 0.39844 0.39844 0.80078 0.60156 1.1992-0.39844-0.10156-0.39844-0.10156-0.69922-0.39844-0.39844-0.60156-0.60156-1.1016-1.3008-1.3008-0.60156-0.19922-1.3008 0-1.6992 0.5-0.19922 0.19922-0.39844 0.5-0.69922 0.69922-1.2305-0.11328-2.2305 0.28516-2.4297 0.38672-0.39844 0.10156-1 0.89844-1.1016 1.3008-0.39844 1.1016 0.10156 2.1992 1 2.8984 0.10156 0.10156 0.39844 0.30078 0.60156 0.39844 0.10156 0 0.5 0.5 0.19922 0.60156-0.30078 0.19922-0.39844 0.5-0.39844 0.80078 0 0.80078-0.19922 1.3984 0.60156 1.6992 0.10156 0 0.80078-0.10156 0.89844 0v0.30078c-0.30078 1.1016 0.19922 1.8984 1.3984 1.8984 0.19922 0 0.39844 0 0.5 0.10156 0.5 0.30078 0.89844 0.60156 1.3008 0.89844 0.19922 0.10156 0.39844 0.30078 0.60156 0.39844 0.39844 0.19922 0.89844 0 1.1016-0.39844 0.30078-0.60156 0.69922-1.1992 0.80078-1.8984 0-0.30078 0.10156-0.5 0.19922-0.69922 0.10156-0.10156 0.19922-0.19922 0.30078-0.39844 0.19922 0.5 0.10156 0.80078-0.10156 1.1016-0.19922 0.19922-0.39844 0.5-0.39844 0.80078 0.10156 0.69922 0.39844 1.3008 1 1.6992 0.60156 0.30078 1 0.30078 1.6016 0 0.10156-0.10156 0.19922-0.10156 0.30078-0.19922 0.89844 0.30078 1.6016 0.89844 2.5 0.30078 0.30078 0.39844 0.60156 0.89844 0.89844 1.3984 0 0.80078 0.10156 1.8008 0.19922 2.6992v1c-0.10156 0.60156 0.30078 0.89844 0.89844 0.69922 0.39844-0.19922 0.80078-0.19922 1.1992-0.10156 0.19922 0.60156 0.69922 0.80078 1.1992 0.39844 0.30078-0.30078 0.60156-0.5 1-0.80078-0.10156-1.8984-0.19922-3.8984-0.39844-5.8984 0.19922 0.30078 0.30078 0.5 0.39844 0.60156 0 0.30078-0.10156 0.5-0.10156 0.80078 0.10156 0.69922 0.5 1.1016 1.3008 1.1992 0.30078 0 0.39844 0.10156 0.5 0.30078 0.5 1 1.5 1.3008 2.3984 0.80078 0.10156-0.10156 0.30078-0.19922 0.5-0.30078 0.89844 1.5 2 0.89844 3.1992 0.39844 0.10156 0.80078 0.10156 1.6016 0.19922 2.5-0.30078 0.10156-0.60156 0.10156-0.89844 0.19922-1.6992 0.19922-3.3008 0.39844-5 0.69922-1.8984 0.39844-3.6992 1-5.3984 1.8008-1.3984 0.60156-2.6992 1.3008-3.8008 2.3984-0.80078 0.69922-1.3008 1.6016-1.6992 2.6016-0.19922 0.39844-0.19922 0.80078 0 1.1992 0.30078 0.69922 0.69922 1.3984 1.3984 1.8984 0.19922 0.19922 0.5 0.39844 0.69922 0.60156 0.30078 0.19922 0.60156 0.5 1 0.69922 0.39844 0.19922 0.60156 0.5 0.69922 0.89844 0.10156 0.5 0.30078 1 0.60156 1.3008 0.80078 0.89844 1.5 1.8008 2.6016 2.3984 1.1016 0.5 2 1.1992 3.1992 1.5 1.1016 0.30078 2.1016 0.5 3.1992 0.80078 0.69922 0.19922 1.3008 0.60156 1.6992 1.3008 0.39844 0.60156 0.39844 1.1992-0.10156 1.8008-0.89844 1-2 1.5-3.3008 1.3008h-0.60156c-1 0.10156-1.8984 0.10156-2.8984 0.10156-1.3008 0-2.6016-0.10156-3.8984 0.30078-0.89844 0.30078-1.6992 0.69922-2.1992 1.5-0.30078 0.39844-0.60156 0.69922-1.1016 0.80078-1 0.30078-1.8984 0.5-2.8984 0.69922-0.89844 0.19922-1.6992 0.60156-2.3984 1s-1.3984 0.80078-2.1992 1c-0.69922 0.10156-1.3984 0.39844-1.8984 1-0.30078 0.30078-0.5 0.69922-0.80078 1.1016-0.80078 1.1016-1.6016 2.1992-1.8984 3.6016-0.10156 0.5-0.10156 1 0 1.6016 0.30078 0.10156 0.60156 0 0.69922-0.30078 0.10156-0.19922 0.10156-0.39844 0.19922-0.60156 0.30078-0.89844 0.60156-1.8008 1.1992-2.5 0.5-0.60156 1-1.3008 1.5-2 0.19922-0.30078 0.39844-0.5 0.80078-0.60156 0.69922-0.19922 1.3008-0.39844 2-0.69922 0.19922-0.10156 0.39844-0.19922 0.5-0.30078 0.80078-0.60156 1.6992-1 2.6016-1.1992 0.5-0.10156 1-0.19922 1.6016-0.30078 0.60156-0.10156 1.1992-0.30078 1.8008-0.39844 0.89844-0.10156 1.5-0.60156 2-1.3008 0.19922-0.30078 0.60156-0.60156 0.89844-0.69922 0.69922-0.19922 1.5-0.30078 2.3008-0.30078h4.5c1.5 0 3-0.30078 4.3008-1.1016 0.69922-0.39844 1.1992-1 1.3984-1.6992 0.10156-0.30078 0.19922-0.60156 0.19922-0.89844 0.10156-0.80078 0-1.6016-0.60156-2.1016-0.5-0.39844-1-0.69922-1.5-0.89844-1.5-0.60156-3-1.1016-4.6016-1.6992-0.10156 0-0.19922-0.10156-0.30078-0.10156-1.3984-0.30078-2.5-1-3.6016-1.8984-0.60156-0.5-1-1-1.1016-1.8008-0.10156-0.80078-0.60156-1.3008-1.3008-1.6992-0.5-0.30078-1-0.60156-1.5-1s-0.69922-1-0.60156-1.6016c0.30078-1.5 1.1992-2.6016 2.3984-3.3008 1.3008-0.69922 2.6016-1.3984 4.1016-1.8008 0.39844-0.10156 0.89844-0.30078 1.3008-0.5 1-0.39844 2.1016-0.69922 3.1016-0.89844 0.60156-0.10156 1.1016-0.19922 1.6992-0.30078 1.1992-0.30078 2.3984-0.5 3.6016-0.5 0.69922 0 1.3984-0.10156 2.1992-0.19922 1.1016-0.10156 2.1992-0.30078 3.3008-0.39844 1.1992-0.10156 2.3984-0.19922 3.6016-0.30078 1-0.60547 2-0.60547 3.1016-0.60547 1.3984 0 2.8008 0.10156 4.1992 0.19922 0.60156 0 1.1992 0.10156 1.8984 0.19922-0.19922 0.39844-0.39844 0.5-0.80078 0.60156-0.60156 0.10156-1.1992 0.19922-1.8008 0.39844-1 0.30078-1.8984 0.60156-2.8984 0.89844-1.3008 0.39844-2.3008 1.1016-2.6992 2.5-0.5 1.6016 0.10156 3.1992 1.3008 4 1.6016 1.1992 3.5 1.8984 5.5 2.1016 1.3008 0.19922 2.6016 0.5 3.6016 1.3008 0.60156 0.39844 1.1016 0.80078 1.8984 0.89844 0.30078 0.10156 0.60156 0.19922 0.89844 0.30078 1.1016 0.5 2.1992 0.89844 3.3008 1.3008 0.30078 0.10156 0.69922 0.19922 0.89844 0.39844 0.60156 0.39844 1.3008 0.80078 1.6992 1.5 0.10156 0.10156 0.19922 0.19922 0.39844 0.30078 1 0.69922 1.3008 1.8008 2 2.6992v0.10156c0.5 1.6016 0 3.6992-1.3984 4.5-0.30078 0.19922-0.60156 0.39844-0.89844 0.60156-0.60156 0.5-1.6016 1.3984-1.8984 2.1016-0.30078 0.69922-0.69922 2.1016-0.60156 2.1992 0.60156 0.69922 1.8008 1.3984 2.8008 1.6016 1.1016 0.30078 2.1992 0.69922 3 1.6992 0.10156 0.10156 0.19922 0.30078 0.30078 0.30078 0.5 0.30078 0.89844 0.80078 1.3984 0.89844 0.89844 0.19922 2.5 0.89844 3.1016 1.6016 0.89844 0.89844 2.1992 0.30078 1-1-0.69922-0.80078-1.5-1.3008-2.6016-1.5-1-0.19922-1.8008-0.69922-2.3008-1.5-0.5-0.69922-1.3984-1.1016-2.1016-1.3984-0.60156-0.30078-1.3008-0.30078-1.8984-0.39844-0.60156-0.10156-0.89844-0.5-1.1016-1-0.19922-0.39844 0.10156-0.80078 0.39844-1 0.19922-0.19922 0.30078-0.30078 0.5-0.39844 0.89844-0.60156 1.6992-1.3008 2.6016-1.8984 0.30078-0.19922 0.5-0.5 0.60156-0.80078 0.19922-0.60156 0.5-1.1016 0.69922-1.6016 0.30078-0.89844 0.5-1.8008 0.10156-2.8008-0.60156-1.5-1.5-2.8984-2.6992-4.1016l-1.1992-1.1992c-0.60156-0.39844-1.3008-0.80078-2-1.1016-1.1016-0.60156-2.3008-1-3.5-1.3984-0.80078-0.19922-1.5-0.5-2.1992-0.80078-1-0.5-2-1.1016-3.1016-1.6016-0.30078-0.10156-0.60156-0.30078-0.89844-0.39844-0.89844-0.30078-1.8984-0.5-2.8008-0.80078-1-0.30078-1.8984-0.89844-2.5-1.6992-0.19922-0.30078-0.69922-1.1016-0.60156-1.3984 0.5-1.3008 1.3984-2.1016 2.6992-2.5 0.30078-0.10156 0.60156-0.19922 0.89844-0.30078 0.69922-0.19922 1.5-0.39844 2.1992-0.5 0.19922 0 0.39844 0 0.39844 0.39844-0.30078 0.19922-0.5 0.39844-0.80078 0.60156-0.10156 0.10156-0.30078 0.19922-0.30078 0.30078-0.19922 0.80078 0.30078 1.8008 1.1016 2.1016 0.5 0.19922 0.89844 0.19922 1.3984 0.10156 0.5-0.10156 1.1016 0 1.6992 0.10156 0 0.10156 0 0.39844 0.19922 0.5 0.19922 0.19922 0.30078 0.5 0.60156 0.60156 0.89844 0.30078 1.6992 0.39844 2.5-0.19922 0.30078-0.19922 0.60156-0.39844 0.89844-0.60156 0.10156-0.10156 0.30078-0.10156 0.5-0.10156 0 0.30078 0.10156 0.39844 0.10156 0.60156 0.10156 0.60156 0.39844 0.89844 1 1 0.60156 0.10156 1.1992 0.19922 1.8984-0.19922 0.69922-0.39844 1.1016-0.19922 1.1016 0.60156 0.19922 1.5 0.10156 2.8984-0.30078 4.3984-0.10156 0.30078-0.10156 0.60156-0.10156 0.89844 0 0.30078 0.19922 0.5 0.5 0.39844 0.60156-0.19922 1.1016 0.10156 1.6016 0.19922 0.80078 0.10156 1.6016 0.30078 2.3008 0 0.39844-0.19922 0.80078-0.39844 1.1992-0.5 0.5-0.19922 0.69922-0.5 0.60156-1-0.10156-0.69922-0.19922-1.3984-0.19922-2.1016-0.10156-0.69922-0.10156-1.3008-0.10156-2 0-0.10156 0-0.19922 0.10156-0.30078 0.19922-0.19922 0.5-0.39844 0.69922-0.69922 0.10156 0.10156 0.19922 0.19922 0.19922 0.19922 0.5 0.69922 0.60156 0.69922 1.3984 0.39844 0.30078-0.10156 0.60156-0.10156 0.89844 0 0.39844 0.10156 0.80078 0.10156 1.1016-0.10156 0.30078-0.19922 0.5-0.10156 0.80078 0.10156 0.30078 0.19922 0.60156 0.30078 1 0.39844 0.80078 0.10156 1.6992 0 2.5-0.39844 0.89844-0.39844 1-1.3008 0.30078-1.8984-0.10156-0.10156-0.19922-0.10156-0.19922-0.19922-0.19922-0.19922-0.5-0.39844-0.69922-0.69922 0.39844-0.60156 1.1992-0.69922 1.3008-1.5-0.30078-1-1.3008-1.1992-1.8984-1.8008-0.10156-0.39844 0.19922-0.5 0.5-0.60156 0.5-0.19922 1-0.19922 1.3008-0.5 0.5-0.5 1-0.39844 1.6016-0.19922 0.10156 0.80078 0.19922 1.6016 0.19922 2.3984 0 1.3984 0 2.8008-0.10156 4.3008 0 0.69922-0.10156 1.5-0.19922 2.1992-0.10156 0.39844 0.30078 0.80078 0.69922 0.80078 1.1016 0.10156 2.3008 0 3.3984-0.10156 0.60156-0.10156 0.80078-0.39844 0.69922-1-0.10156-0.80078-0.19922-1.6016-0.19922-2.3984-0.10156-1.1016 0-2.3008-0.10156-3.3984-0.10156-0.80078-0.19922-1.3984 0.69922-1.6992 0.30078-0.10156 0.39844-0.30078 0.19922-0.60156-0.30078-0.60156 0-1.1016 0.19922-1.6992 0.19922 0.19922 0.39844 0.30078 0.60156 0.5 0.39844 0.5 1 0.60156 1.6016 0.5 0.19922 0 0.5-0.10156 0.69922-0.10156 0.80078-0.10156 1.1016-0.19922 1.3008-1.1016 0.19922-0.60156 0.5-1 1-1.3984 1.1016-0.89844 1.6992-2 1.5-3.3984 0-0.19922 0-0.39844 0.19922-0.5 0.30078-0.39844 0.39844-0.89844 0.10156-1.3984-0.09375-0.30859 0.007812-0.50781 0.20703-0.70703zm-29.102-20.301c0.5-0.30078 1-0.60156 1.3984-0.89844 0.19922-0.10156 0.30078-0.39844 0.5-0.60156 0.19922-0.30078 0.19922-0.5-0.10156-0.80078-0.30078-0.19922-0.19922-0.5 0-0.69922 0.10156-0.10156 0.19922-0.30078 0.30078-0.39844 0.5-0.39844 0.69922-0.89844 0.80078-1.6016 0-0.19922 0.10156-0.39844 0.19922-0.60156 0.30078-0.5 0.60156-1.1016 0.60156-1.8008 0-0.10156 0.10156-0.19922 0.10156-0.39844h0.10156c0.39844 2 0.80078 4 1.1992 6.1016h-1.5c0.10156 0.5 0.19922 0.69922 0.60156 0.80078 0.30078 0.10156 0.69922 0 1 0 0.30078 0 0.5-0.10156 0.69922-0.10156 0.5 0.5 0.89844 1 1.3008 1.5 0 0 0 0.10156-0.10156 0.10156-0.80078 0.10156-0.80078 0.10156-0.89844 0.89844-0.10156 0.39844-0.39844 0.60156-0.80078 0.39844-0.80078-0.60156-1.6992-0.60156-2.6992-0.39844-0.39844 0.10156-0.89844-0.10156-1.3008-0.10156 0-0.5-0.19922-0.89844-0.80078-0.89844-0.39844 0-0.80078 0.10156-1.3008 0.19922 0.30078-0.39844 0.5-0.5 0.69922-0.69922zm-6.8984 20.098c0.19922 0.19922 0.39844 0.30078 0.60156 0.5-0.19922 0.19922-0.39844 0.5-0.60156 0.69922-0.40234-0.49609-0.19922-0.79688 0-1.1992zm-0.40234 3c0.19922 0.19922 0.19922 0.5 0 0.69922-0.30078 0.39844-0.60156 0.89844-1 1.3008-0.39844 0.39844-0.89844 0.39844-1.5 0.30078 0.10156-0.19922 0.10156-0.39844 0.19922-0.5 1 0 1.1992-0.30078 1.1016-1.1992 0.30078-0.5 0.69922-0.5 1.1992-0.60156zm-16.199-12.797c0.19922 0.19922 0.39844 0.5 0.60156 0.69922 0.39844 0.39844 0.39844 0.60156-0.30078 1-0.19922-0.19922-0.39844-0.5-0.60156-0.69922 0-0.30078 0-0.69922-0.10156-1.1992 0.30469 0.097656 0.40234 0.097656 0.40234 0.19922zm-12-7.1016c0.10156 0.10156 0.30078 0.19922 0.39844 0.30078l-0.10156 0.10156c-0.19531-0.003906-0.29688-0.10156-0.29688-0.40234-0.097657 0.10156 0 0.10156 0 0zm-6.0977 24h0.60156l-0.003906 0.5c-0.5 0.10156-0.89844 0.10156-1.5 0.19922 0-0.19922 0-0.39844 0.10156-0.60156 0.19922-0.5 0.10156-1 0-1.5-0.19922-0.60156-0.19922-1.3008-0.19922-1.8984 0-0.10156 0.10156-0.19922 0.19922-0.30078 0.30078-0.19922 0.60156-0.39844 0.89844-0.60156 0.39844 0.80078 0.39844 0.80078-0.19922 1.3008-0.19922 0.10156-0.39844 0.19922-0.30078 0.5 0.10156 0.30078 0.30078 0.30078 0.60156 0.30078h0.39844c0 0.19922 0.10156 0.5 0.10156 0.69922-0.30078 0.19922-0.5 0.30078-0.69922 0.5-0.10156 0.10156-0.19922 0.30078-0.19922 0.30078-0.10156 0.40234 0.097656 0.5 0.19922 0.60156zm1.8984-8.8008c-0.30078 0.10156-0.69922 0.19922-0.80078 0.60156-0.10156 0.39844-0.10156 0.69922-0.19922 1.1016-0.10156 0-0.19922 0.10156-0.39844 0-0.39844 0-0.69922 0.10156-0.89844 0.5v0.10156c-0.5 0.39844-1 0.89844-1.3984 1.5 0-0.10156 0-0.30078-0.10156-0.39844-0.19922-0.39844-0.39844-0.80078-0.60156-1.1016-0.39844-0.5-1-0.39844-1.3984 0.10156-0.19922 0.19922-0.30078 0.5-0.5 0.69922-0.30078-0.19922-0.60156-0.5-0.89844-0.69922-0.60156-0.39844-0.89844-0.30078-1.1992 0.30078-0.19922 0.30078-0.39844 0.60156-0.5 1 0 0.10156-0.10156 0.10156-0.19922 0.19922-0.19922-0.30078-0.10156-0.60156 0.10156-0.80078 0.5-0.60156 0.39844-1.3008 0.69922-2 0.10156-0.10156-0.10156-0.39844-0.19922-0.5-0.69922-0.69922-1.3008-1.1016-2.1016-0.60156-0.30078 0.19922-0.80078 0.39844-1 0.69922-0.30078 0.39844-0.5 0.80078-0.39844 1.1992 0.10156 0.80078 0 1-0.5 1.1992-0.30078-0.30078-0.5-0.5-0.69922-0.80078-0.39844-0.39844-0.60156-0.39844-1.1016-0.30078-0.10156 0-0.10156 0.10156-0.19922 0.10156-0.19922 0-0.5 0.10156-0.60156 0-0.19922-0.19922-0.10156-0.5 0-0.69922 0.19922-0.30078 0.39844-0.60156 0.69922-0.89844 0.39844-0.39844 0.30078-0.5-0.19922-0.69922-0.30078-0.10156-0.69922-0.10156-1 0-0.19922 0.10156-0.39844 0.10156-0.5 0.10156-0.19922-0.39844-0.10156-0.69922 0-1-0.10547-0.10547 0.09375-0.30469 0.19531-0.60547 0.19922-0.39844 0.19922-0.69922-0.10156-0.89844-0.30078-0.30078-0.80078-0.5-1.1992-0.60156-0.89844-0.30078-1.3008-1.1016-1-2 0.19922-0.39844 1.1992-0.5 1.3008-0.10156 0.19922 0.60156 0.30078 1.5 0.60156 1.3984 0.60156-0.10156 0.89844-0.5 0.89844-1.1016 0-0.30078-0.10156-0.5-0.10156-0.80078 0-0.5 0.19922-0.89844 0.5-0.89844 0.39844-0.10156 0.80078 0.19922 0.89844 0.69922 0.10156 0.30078 0.10156 0.69922 0.39844 0.80078 0.39844 0.19922 0.89844 0.30078 1.3984 0.39844 0.10156 0 0.30078-0.10156 0.5-0.30078 0.30078-0.19922 0.60156-0.39844 0.80078-0.69922 0.39844-0.39844 0.39844-0.69922-0.10156-0.89844-0.5-0.19922-0.80078-0.5-0.80078-1.1016 0.19922-0.10156 0.39844-0.19922 0.60156-0.30078-0.10156-0.30078-0.10156-0.60156-0.19922-1 0.69922-0.30078 1.1016 0 1.5 0.10156 0.30078 0.10156 0.80078 0.19922 1.1016 0.10156 0.30078-0.19922 0.19922-0.19922 0.39844-0.5 0.10156-0.10156 0-0.39844-0.10156-0.60156-0.10156-0.19922-0.30078-0.30078-0.5-0.39844-0.60156-0.5-0.69922-1.3008-0.30078-1.8984 0.39844-0.5 1.1016-0.69922 1.6992-0.30078 0.5 0.30078 1 0.69922 1.1016 1.3008 0 0.19922 0.19922 0.39844 0.19922 0.60156 0.30078 0.69922 0.5 0.80078 1.1016 0.19922 0.10156-0.10156 0.19922-0.30078 0.30078-0.5 0.19922-0.39844 0.39844-0.5 1-0.5v0.60156c-0.10156 1.1016 0.80078 2.1992 2.1016 1.8008 0.60156-0.19922 0.89844-0.60156 0.80078-1.1992 0-0.10156-0.10156-0.30078-0.10156-0.39844-0.19922-0.69922 0-1.1016 0.60156-1.3984 0.30078-0.19922 0.60156 0 0.69922 0.30078 0.19922 0.39844 0.30078 0.89844 0.5 1.3984-0.19922 0.10156-0.39844 0.30078-0.5 0.5-0.19922 0.30078-0.39844 0.60156-0.39844 0.89844 0.10156 0.60156-0.10156 1.1016-0.19922 1.6016 0.39844 0.5 1 0.39844 1.5 0.60156 0.5 0.10156 1-0.19922 1.5 0.10156-0.10156 0.39844-0.19922 0.69922-0.19922 1-0.10156 0.5-0.10156 0.60156-0.60156 0.60156-0.39844 0-0.80078 0.10156-1.1992 0.19922-0.39844 0.19922-0.89844 0.5-1.3008 0.69922-0.30078 0.19922-0.5 0.39844-0.80078 0.69922 0.30078 1 1.3008 1.3008 1.8008 2-0.19922 0.69141-0.19922 0.69141-0.19922 1.4922zm10.5 10.102h-1.1992c-0.5-1-0.30078-2.1016-0.30078-3.1992 0.60156-0.19922 1 0 1.3984 0.5l-0.39844 0.39844c-0.39844 0.30078-0.39844 0.5 0 0.69922 0.10156 0 0.19922 0.10156 0.30078 0.10156-0.39844 0.5-0.39844 0.60156 0.10156 0.80078 0.19922 0.19922 0.29688 0.29688 0.097656 0.69922zm-0.30078-5.6016c-0.30078 0.19922-0.69922 0.19922-1.1016 0.19922-0.39844 0-0.89844-0.19922-1.3008-0.19922-0.19922 0-0.39844 0.10156-0.60156 0.19922-0.19922 0.10156-0.30078 0.19922-0.39844 0.30078-0.39844 0.30078-0.60156 0.69922-0.5 1.1992 0 0.39844 0.10156 0.69922-0.30078 1.1016 0-0.30078-0.10156-0.5-0.10156-0.80078-0.10156-0.60156-0.5-0.80078-1-0.60156-0.10156 0.10156-0.30078 0.19922-0.39844 0.19922-0.10156 0.10156-0.30078 0.19922-0.5 0.30078 0-0.60156-0.39844-1.1016-0.80078-1.3984-0.39844-0.30078-0.69922-0.39844-1.1016-0.10156-0.10156 0.10156-0.30078 0.19922-0.39844 0.30078 0 0-0.10156 0-0.19922-0.10156 0.10156-0.10156 0.19922-0.19922 0.30078-0.30078 0.69922-0.30078 0.89844-0.89844 0.80078-1.6016 0-0.30078-0.10156-0.5-0.39844-0.60156-0.5-0.19922-0.5-0.19922-0.69922-0.80078 0.39844-0.39844 1.1016-0.5 1.3008-1.1992-0.30078-0.39844-0.60156-0.89844-1-1.3984h0.69922c1.1016 0.10156 1.8984-0.80078 2.1992-1.6992 0-0.10156-0.10156-0.39844-0.19922-0.5-0.19922-0.19922-0.39844-0.30078-0.69922-0.39844-0.10156-0.10156-0.30078-0.10156-0.5-0.19922-0.39844-0.10156-0.80078-0.10156-1.3008-0.19922 0 0.39844 0.10156 0.69922-0.30078 0.89844-0.60156 0.39844-0.69922 0.39844-1-0.19922-0.19922-0.30078-0.39844-0.5-0.69922-0.80078 0.10156-0.10156 0.30078-0.19922 0.39844-0.19922 0.60156-0.10156 1.1016-0.19922 1.6992-0.19922 0.80078 0 0.89844-0.10156 1.1992-0.80078 0-0.10156 0.10156-0.19922 0.10156-0.30078 0.10156-0.60156 0.5-1 1.1016-1.1992 0.80078-0.39844 0.80078-0.89844 0.10156-1.3984-0.10156-0.10156-0.19922-0.10156-0.30078-0.19922-0.60156-0.69922-1.3008-0.60156-2-0.30078-0.5 0.19922-0.89844 0.19922-1.1992-0.19922v-0.10156c0.10156-0.39844 0.39844-0.60156 0.80078-0.60156 0.69922 0 1.1992-0.30078 1.6016-0.80078 0.39844-0.39844 0.39844-0.60156-0.10156-0.89844-0.10156-0.10156-0.19922-0.10156-0.19922-0.19922 0-0.39844 0.30078-0.30078 0.5-0.39844 0.19922-0.10156 0.39844-0.10156 0.60156-0.19922 0.39844-0.30078 0.39844-0.60156 0-1.1992 0.30078-0.39844 0.60156-0.80078 0.89844-1.3008 0.39844-0.60156 0.5-0.5 0-1.3008 0.19922-0.10156 0.30078-0.30078 0.5-0.39844 0.60156-0.19922 0.80078-0.60156 1.1016-1 0.30078-0.60156 0.69922-1.1016 1.1016-1.6992-0.10156-0.39844-0.69922-0.60156-0.60156-1 0.69922-0.60156 1.3008-1.1992 1.8984-1.6992 0.10156-0.10156 0.19922-0.30078 0.19922-0.5 0.30078-1 0.60156-2 1-2.8984 0 0.10156 0.10156 0.19922 0.10156 0.30078 0.10156 0.5 0.19922 1.1016 0.30078 1.6016 0.19922 0.80078 0.5 1.5 0.5 2.3984 0 0.5 0.19922 1 0.39844 1.5-0.60156 0.30078-1.1016 0.5-1.6992 0.80078-0.10156-0.30078-0.10156-0.60156-0.19922-0.89844-0.10156-0.39844-0.19922-0.60156-0.60156-0.5-0.30078 0-0.39844 0.10156-0.39844 0.60156v1c0.10156 0.5 0.30078 0.69922 0.80078 0.80078 0.60156 0 1.1992 0 1.6016-0.5 0.10156-0.19922 0.39844-0.30078 0.60156-0.39844 0.30078-0.19922 0.60156-0.10156 0.80078 0.30078-0.30078 0.5-0.5 1-0.80078 1.5 0.30078 0.80078 1.3008 0.69922 1.8008 1.3008h-0.5c-0.19922 0-0.30078-0.10156-0.5-0.19922-0.39844-0.10156-0.69922 0.10156-0.80078 0.5 0 0.19922-0.10156 0.30078-0.10156 0.5-0.19922-0.10156-0.39844-0.10156-0.5-0.19922-0.30078-0.10156-0.5-0.30078-0.69922-0.39844-0.60156-0.30078-1.1992 0-1.5 0.60156-0.10156 0.39844-0.10156 0.39844-0.39844 0.60156-0.19922-0.39844 0-0.80078 0.19922-1.1992 0.10156-0.19922 0.30078-0.5 0-0.69922-0.19922-0.10156-0.60156 0-0.80078 0.19922-0.39844 0.39844-0.5 1-0.5 1.6016 0 1.1016 0.39844 1.3984 1.3984 1.1016 0.30078-0.10156 0.60156-0.19922 0.80078-0.39844 0.5-0.30078 0.89844-0.39844 1.3984-0.10156 0.10156 0.10156 0.19922 0.10156 0.30078 0.10156 0.60156 0.19922 0.80078 0.19922 1.1992-0.30078 0.19922 0.30078 0.39844 0.5 0.69922 0.80078 0.19922 0.19922 0.39844 0.5 0.60156 0.69922 0.10156 0.19922 0.19922 0.5 0.30078 0.80078 0.10156 0.30078 0.19922 0.5 0.30078 0.80078-0.10156 0.10156-0.30078 0.19922-0.39844 0.39844-0.10156 0.10156-0.19922 0.19922-0.19922 0.30078 0 0.60156 0 1.3008 0.10156 2.1016-0.10156 0.10156-0.39844 0.30078-0.69922 0.39844 0.5 0.89844 1.3008 1.3008 1.8984 2-0.10156 0.10156-0.19922 0.30078-0.30078 0.39844-0.5 0.39844-1.1016 0.80078-1.6016 1.1992-0.69922 0.5-1.1016 1-1 1.8984 0.10156 0.5 0.30078 0.69922 0.89844 0.69922 0.5-0.10156 1-0.19922 1.5-0.30078 0.19922 0 0.30078 0 0.60156-0.10156-0.19922 0.60156-0.60156 1-1.1016 1.3008-0.19922 0.10156-0.30078 0.19922-0.5 0.30078-0.30078 0.19922-0.39844 0.39844-0.30078 0.80078 0.10156 0.69922 0.10156 0.69922-0.5 1-0.30078 0.10156-0.60156 0.30078-0.89844 0.5-0.30078 0.19922-0.39844 0.39844-0.30078 0.80078 0.10156 0.60156 0.5 1 0.89844 1.5 0.10156 0.10156 0.5 0.10156 0.69922 0.10156 0.19922 0 0.39844-0.10156 0.69922-0.10156-0.10156 0.69922-0.60156 0.89844-1.1016 1.3008-0.19922-0.30078-0.39844-0.5-0.69922-0.69922-0.19922-0.19922-0.5-0.30078-0.69922-0.60156-0.30469-0.72266-0.50391-0.72266-1.3047-0.42188zm11.602 4.8008h-1.8008c-2 0.19922-3.8984 0.10156-5.8984 0.5-0.80078 0.10156-1.6016 0.19922-2.3984 0.30078 0-1.1016-0.39844-2 0-3.1016 1 0.80078 1.8984 0.5 2.8008-0.19922 0.39844-0.30078 0.89844-0.69922 1.3008-1.1016 0.30078 0.60156 0.69922 1.5 1.8008 1.1016 0.60156 0.80078 1.6016 0.89844 2.3008 0.19922 0.30078-0.30078 0.60156-0.60156 0.89844-1 0.30078 0 0.60156 0.10156 0.89844 0.10156l-0.003906 3.1992zm2.8984-0.5c0 0.30078-0.19922 0.5-0.5 0.5-0.19922 0-0.39844-0.10156-0.69922-0.10156v-0.60156c0.30078-0.5 0.10156-0.89844 0.10156-1.3984-0.10156-0.60156-0.10156-1.3008-0.10156-1.8984 0.39844-0.30078 0.69922-0.30078 1 0.10156-0.10156 0.10156-0.30078 0.30078-0.39844 0.5 0.5 0.19922 0.5 0.5 0.39844 0.89844 0 0.5-0.19922 1 0.10156 1.3984 0.097657 0.10156 0.097657 0.40234 0.097657 0.60156zm1-6.1016c-0.5 0.30078-0.80078 0.80078-1 1.5-0.19922-0.30078-0.30078-0.5-0.5-0.60156-0.30078-0.39844-0.69922-0.69922-1.3008-0.5-0.30078 0.10156-0.69922 0.10156-0.89844-0.30078-0.10156-0.19922-0.39844-0.30078-0.60156-0.19922-0.30078 0.10156-0.30078 0.30078-0.19922 0.5 0 0.5-0.10156 1-0.60156 1.3008-0.10156 0-0.19922 0.19922-0.19922 0.30078-0.39844 0.80078-0.39844 0.80078-1.1016 1.3008-0.39844-0.30078-0.69922-0.69922-0.80078-1.1992-0.10156-0.5-0.30078-0.69922-0.80078-0.80078-0.30078 0-0.69922 0.10156-1.1016 0.10156-0.19922-0.19922-0.5-0.60156-0.89844-0.80078-0.30078-0.10156-0.69922 0-1.1016 0-0.39844 0.10156-0.89844 0.19922-1.3984 0.30078 0.10156-0.60156 0.5-0.80078 0.89844-1 0.30078-0.10156 0.60156-0.10156 0.89844-0.10156 0.39844 0 0.60156-0.19922 0.80078-0.39844 0.30078-0.30078 0.19922-0.69922-0.19922-0.89844-0.19922-0.10156-0.39844-0.10156-0.60156-0.10156 0-0.10156 0-0.19922 0.10156-0.19922 1-0.39844 1.3984-1.3984 2.1992-2 0.19922-0.10156 0.30078-0.5 0.30078-0.69922 0-0.30078-0.39844-0.5-0.69922-0.5-0.69922 0-1.3984 0.10156-2.1016 0.19922-0.10156 0-0.10156 0.10156-0.19922 0.10156-0.19922 0-0.5 0-0.5-0.19922 0-0.10156 0.19922-0.30078 0.30078-0.5 0 0 0.10156 0 0.19922-0.10156 1.1016-0.10156 1.8008-0.69922 2.5-1.3984 0.5-0.39844 1-0.80078 1.6016-1.1016 0.39844-0.19922 0.5-0.5 0.60156-0.89844 0.10156-0.10156-0.10156-0.39844-0.19922-0.5-0.10156-0.10156-0.19922-0.19922-0.39844-0.30078 0-0.10156 0-0.19922 0.10156-0.19922 0.60156-0.5 0.60156-0.60156-0.10156-1-0.30078-0.19922-0.60156-0.30078-1-0.5 0.5-0.5 1-1.1016 1.5-1.3984 0.60156-0.39844 0.89844-1 0.80078-1.8008 0.89844 0.30078 1.3984-0.30078 2-0.69922 0.19922 0.30078 0.39844 0.5 0.60156 0.80078 0.5 0.5 0.89844 0.60156 1.5 0.30078 0.60156-0.30078 0.69922-0.60156 0.69922-1.1992 0-0.10156 0-0.30078-0.10156-0.5 0.30078 0.10156 0.5 0.19922 0.69922 0.19922 0.5 0.19922 0.5 0.19922 0.89844-0.30078 0.10156-0.10156 0.19922-0.30078 0.39844-0.39844 0.30078 0.19922 0.5 0.30078 0.60156 0.39844 0.10156 0 0.30078 0 0.39844-0.10156 0.10156-0.10156 0-0.30078 0-0.39844-0.39844-0.69922-1.3008-0.69922-1.8984-0.19922l-0.30078 0.30078c-0.19922-0.10156-0.39844-0.19922-0.69922-0.39844-0.19922-0.10156-0.39844-0.10156-0.60156 0-0.19922 0.19922-0.39844 0.39844-0.30078 0.69922 0 0.10156 0.10156 0.30078 0.10156 0.39844 0.10156 0.39844 0 0.69922-0.5 0.89844-0.10156-0.19922-0.30078-0.39844-0.39844-0.60156-0.60156-0.69922-0.89844-1-1.8984-0.5-0.10156 0-0.19922 0.10156-0.30078 0.10156 0.19922-0.5 0.30078-0.89844 0.5-1.3008 0.10156-0.19922 0.10156-0.30078 0.19922-0.5 0.10156-0.5 0-0.69922-0.5-0.60156h-0.30078c-0.10156 0.39844-0.19922 0.69922-0.30078 1.1016-0.80078-0.30078-0.89844-0.5-0.30078-1 0.10156-0.10156 0.30078-0.19922 0.39844-0.30078 0.39844-0.39844 0.69922-0.80078 0.39844-1.3008-0.10156-0.19922-0.10156-0.39844-0.10156-0.5-0.10156-0.39844 0.10156-0.69922 0.39844-0.89844 0.30078-0.19922 0.69922-0.39844 1-0.60156 0.19922-0.10156 0.30078-0.19922 0.39844-0.39844 0.30078-0.30078 0.19922-0.5-0.19922-0.69922-0.10156-0.10156-0.19922-0.10156-0.30078-0.10156-0.39844-0.19922-0.60156-0.5-0.5-0.80078 0.10156-0.39844 0.19922-0.89844 0.39844-1.1992 0.60156-0.80078 0.89844-1.6992 1-2.6992 0-0.39844 0.10156-0.89844 0.19922-1.3984 0.30078 0.60156 0.39844 1 0.60156 1.5 0.30078 1 0.60156 1.8984 0.80078 2.8984 0.30078 1 0.89844 1.6016 1.6992 2.1992 0.30078 0.19922 0.5 0.39844 0.60156 0.69922 0.10156 0.30078 0 0.60156-0.19922 0.80078-0.5 0.5-0.60156 1-0.19922 1.6016 0.10156 0.19922 0.30078 0.39844 0.39844 0.5 0.30078 0.30078 0.69922 0.60156 0.69922 1.1992 0 0.19922 0.30078 0.39844 0.5 0.60156 0.5 0.39844 1 0.80078 1.6016 1.1992-0.10156 0.30078-0.30078 0.5-0.60156 0.60156-0.19922 0-0.30078 0.10156-0.39844 0.19922-0.30078 0.19922-0.39844 0.39844-0.10156 0.69922 0.19922 0.19922 0.39844 0.39844 0.60156 0.60156 0.5 0.39844 0.80078 0.89844 0.5 1.6016-0.10156 0.10156-0.10156 0.30078 0 0.5 0 0.5 0.10156 0.5 0.60156 0.60156 0.30078 0 0.60156 0.10156 1 0.10156 0.69922 0.10156 0.80078 0.30078 0.30078 0.89844l-0.10156 0.10156c-0.69922 0.69922-0.5 0.89844-1.6992 0.39844-0.60156-0.19922-0.89844-0.10156-1.3008 0.39844-0.19922 0.30078-0.19922 0.5 0 0.80078 0.30078 0.39844 0.5 0.89844 0.80078 1.3984 0.30078 0.39844 0.69922 0.80078 1 1.1992 0.19922 0.30078 0.5 0.5 0.89844 0.80078-0.5 0.19922-0.80078 0.39844-1.1992 0.5-0.60156 0.19922-0.69922 0.5-0.39844 1 0.30078 0.5 0.69922 0.89844 1.1016 1.1992 0.60156 0.5 0.80078 1.1016 1.1016 1.6992 0.10156 0.10156 0.10156 0.30078 0 0.5-0.30078 0.69922-0.5 1.3984-1.3008 1.8984-0.30078 0.19922-0.5 0.39844-0.80078 0.69922-0.10156 0-0.19922 0-0.30078-0.10156-0.39844-0.5-1-0.60156-1.5-0.80078-0.19922-0.10156-0.30078-0.10156-0.5-0.19922-0.39844-0.19922-0.60156-0.39844-0.69922-0.80078-0.69141-0.5-0.79297-0.70312-1.0938-0.70312zm-6.5-15.797c0.10156-0.10156 0.30078-0.10156 0.39844-0.19922 0.003906 0.39844-0.097656 0.49609-0.39844 0.19922zm7 22.297c-0.19922-1.1016-0.19922-2.1016 0.10156-3.1016 1.8008-0.30078 1.8984-0.10156 2.5 1v0.10156c-0.5 0.39844-0.60156 0.89844-0.60156 1.5 0 0.19922-0.10156 0.39844-0.10156 0.69922-0.69922-0.097656-1.2969-0.097656-1.8984-0.19922zm16 13.5c-0.30078 0.39844-0.69922 0.39844-1.1016 0.30078 0-0.30078-0.10156-0.60156-0.10156-0.89844 0-0.5-0.10156-1.1016 0-1.6016 0.10156-0.89844 0.19922-1.8008 0-2.6992v-0.30078c0.19922-0.10156 0.30078-0.19922 0.5-0.30078 0.39844 0.39844 0.69922 0.69922 1.1016 1.1992-0.39844 0.30078-0.69922 0.5-1.1016 0.69922 0.30078 0.60156 1 0.60156 2 0-0.10156 0.19922-0.10156 0.39844-0.19922 0.5-0.39844 0.30078-0.80078 0.60156-1.1016 0.89844-0.30078 0.30078-0.30078 0.5 0.19922 0.60156 0.30078 0.10156 0.60156 0.10156 0.89844-0.10156 0.10156-0.10156 0.19922-0.19922 0.39844-0.30078 0.10156 0.19922 0.10156 0.39844 0.10156 0.39844-0.69141 0.60547-1.1914 1.1055-1.5938 1.6055zm1.1992 0.30078c0.19922-0.19922 0.30078-0.39844 0.39844-0.60156 0.10156 0.19922 0.10156 0.30078 0.19922 0.39844-0.097656 0.003906-0.29688 0.10547-0.59766 0.20312zm1.8008-7.8008v0.69922c0 0.5-0.19922 0.80078-0.5 1.1992-0.19922 0.19922-0.39844 0.30078-0.69922 0.19922-0.19922-0.10156-0.5 0-0.80078 0-0.5-0.39844-0.69922-1.1016-0.60156-2-0.30078-0.39844-0.69922-0.39844-1.1016-0.39844-0.30078 0-0.5 0.19922-0.39844 0.60156-0.30078 0.10156-0.60156 0.19922-0.89844 0.19922-0.19922-0.19922-0.30078-0.39844-0.5-0.5-0.19922-0.10156-0.39844 0-0.69922 0 0 0-0.10156-0.10156-0.10156-0.19922-0.10156-0.19922-0.30078-0.39844-0.5-0.30078-0.19922 0.10156-0.39844 0.19922-0.5 0.5-0.10156 0.60156-0.39844 1.1016-1 1.3984 0-0.19922-0.10156-0.30078-0.10156-0.39844 0.10156-0.39844-0.10156-0.69922-0.5-0.89844s-0.80078-0.5-1.3008-0.60156c-0.39844-0.10156-1 0.19922-1.3008 0.69922-0.10156 0.19922-0.19922 0.5-0.39844 0.80078-0.39844-0.10156-0.80078-0.19922-1.3008-0.30078 0.30078-0.39844 0.5-0.60156 0.69922-0.89844-0.5-0.80078-0.69922-0.80078-1.5-0.5-0.39844 0.19922-0.69922 0.30078-1.1016 0.39844-0.10156 0-0.30078 0.10156-0.30078 0-0.5-0.19922-1-0.30078-1.5-0.30078-0.10156 0-0.30078-0.19922-0.30078-0.30078 0-0.19922 0.10156-0.5 0.19922-0.60156 0.10156-0.10156 0.30078-0.10156 0.5-0.19922h0.5c0.30078-0.10156 0.5-0.30078 0.60156-0.60156 0.10156-0.30078-0.10156-0.5-0.30078-0.60156-0.30078-0.19922-0.5-0.39844-0.80078-0.69922 0.30078-0.19922 0.5-0.39844 0.69922-0.5 0.5-0.10156 0.80078-0.39844 1.1992-0.60156 0.19922-0.19922 0.5-0.39844 0.69922-0.60156 0.19922-0.19922 0.5-0.30078 0.69922-0.5-0.69922-1-1.6992-0.89844-2.6016-1.1016 0.10156-0.5 0.19922-0.5 0.60156-0.60156 0.39844 0 0.89844 0 1.3008-0.10156 0.89844-0.19922 1.5-0.69922 2-1.5 0.10156-0.19922 0.30078-0.39844 0.39844-0.69922 0.39844-0.69922 0.39844-0.69922 1.1016-0.5 0.30078 0.10156 0.60156 0 0.89844 0.10156 0 0.10156 0.10156 0.19922 0.10156 0.39844 0.19922 0.69922 0.89844 0.89844 1.5 0.60156 0.30078-0.19922 0.5-0.19922 0.80078-0.10156 0.89844 0.5 1.6016 0.10156 2.3008-0.5 0.10156-0.10156 0.19922-0.19922 0.30078-0.30078-0.19922-0.69922-0.60156-0.80078-1.6016-0.10156-0.10156-0.39844-0.30078-0.80078-0.69922-0.69922-0.39844 0-0.69922 0.19922-1.1992 0.30078-0.19922-0.30078-0.5-0.60156-0.80078-0.80078-0.30078-0.30078-0.80078 0-1.1016-0.10156-0.10156-1-0.10156-1-0.39844-1.3008 0 0 0-0.10156 0.10156-0.10156 0.69922-0.60156 0.69922-0.80078-0.19922-1.1992-0.5-0.19922-1-0.39844-1.5-0.60156 0-0.30078 0.30078-0.30078 0.5-0.30078 0.5 0 1-0.10156 1.3008-0.60156 0.19922-0.30078 0.60156-0.5 0.89844-0.69922 0.10156 0 0.19922-0.10156 0.30078 0 0.80078 0.19922 1.5 0.10156 2.1992-0.19922h0.19922c0 0.39844 0.10156 0.89844 0.60156 1 0.60156 0.10156 1.1992 0.10156 1.6992-0.39844-0.19922-0.60156-0.69922-0.19922-1.1016-0.39844 0.10156-0.30078 0.19922-0.69922 0.19922-1-0.30078-0.39844-0.80078-0.39844-1.1992-0.30078-0.5 0.10156-0.89844 0.30078-1.3984 0.39844-0.19922 0.10156-0.39844 0.10156-0.80078 0.19922 0.19922-0.5 0.30078-0.80078 0.39844-1-0.10156-0.39844-0.10156-0.69922-0.19922-0.89844-0.10156-0.39844-0.39844-0.69922-0.60156-1.1016 0.19922-0.39844 0.5-0.80078 1-0.80078 0.69922 0 1.1016-0.5 1.5-1-0.30078-0.5-0.80078-0.69922-1.3984-0.89844-0.30078-0.10156-0.5-0.10156-0.5-0.39844 0.69922-0.5 1.3984-0.89844 2.1992-1.5-0.30078-0.19922-0.5-0.30078-0.69922-0.39844-0.10156-0.10156-0.39844 0-0.5-0.10156-0.19922-0.19922-0.39844-0.39844-0.39844-0.60156 0-0.19922 0.30078-0.39844 0.5-0.5 0.30078-0.19922 0.69922-0.19922 1-0.30078 0.5-0.19922 0.60156-0.30078 0.5-0.89844 0-0.39844 0.30078-0.60156 0.5-1 0.10156-0.10156 0.19922-0.19922 0.30078-0.30078 0.5-0.5 0.5-0.5 0.19922-1.1016-0.30078-0.5-0.19922-0.89844 0.10156-1.3984 0.10156-0.19922 0.30078-0.30078 0.5-0.60156 0.80078 0.30078 1.6992 0.60156 2.6016 0.80078 0.60156 0.19922 1.3008 0.19922 2 0.19922 0.30078 0 0.60156-0.19922 1-0.30078 0.10156 0 0.30078-0.10156 0.39844-0.10156 0.60156 1.1016 1 2.1992 1.3008 3.5-0.60156-0.10156-1-0.10156-1.6016-0.19922 0.10156 0.69922 0.19922 1.3984 0.30078 1.8984-0.5 0-0.89844-0.10156-1.3008-0.10156-0.30078 0-0.60156 0.19922-0.80078 0.5-0.10156 0.30078-0.39844 0.60156-0.80078 0.39844-0.39844-1-0.39844-1-1.5-0.89844-0.30078 0-0.60156 0-0.89844 0.10156 0-0.19922 0-0.5-0.10156-0.69922-0.10156-0.10156-0.30078-0.19922-0.39844-0.30078-0.19922-0.10156-0.39844 0-0.5 0.19922-0.10156 0.30078-0.30078 0.5-0.39844 0.80078-0.19922 0.5-0.10156 1 0.5 1.1016 0.30078 0.10156 0.60156 0.19922 0.89844 0.5 0.39844 0.39844 0.69922 0.30078 1-0.10156 0-0.10156 0.10156-0.10156 0.10156-0.19922l0.10156-0.10156c0.19922 0.10156 0.30078 0.30078 0.5 0.5 0.30078 0.19922 0.5 0.30078 0.80078 0.5 0.39844 0.10156 0.69922 0.10156 0.89844-0.30078 0.19922-0.30078 0.5-0.39844 0.60156-0.60156 0.39844 0.10156 0.80078 0.19922 1.1016 0.30078 0.10156 0 0.19922-0.10156 0.30078-0.30078v0.69922c-0.10156 0.30078 0 0.60156 0.19922 0.80078 0.30078 0.39844 0.5 0.89844 0.80078 1.3984-0.19922 0.30078-0.5 0.39844-0.30078 0.80078 0.10156 0.30078 0.39844 0.39844 0.69922 0.39844 0.60156 0.10156 0.69922 0.39844 0.39844 0.89844-0.19922 0.30078-0.39844 0.5-0.60156 0.80078-0.30078-0.30078-0.5-0.5-0.60156-0.69922-0.10156-0.19922-0.30078-0.30078-0.39844-0.5-0.5-0.39844-1-0.30078-1.1992 0.39844-0.19922 0.60156-0.19922 0.60156-0.69922 0.39844-0.10156-0.10156-0.19922-0.10156-0.39844-0.19922-0.80078-0.30078-1.1016-0.10156-1.3984 0.69922-0.10156 0-0.19922-0.10156-0.30078-0.10156-0.10156-0.10156-0.19922-0.30078-0.39844-0.39844-0.5-0.60156-1-0.69922-1.6992-0.30078-0.19922 0.10156-0.30078 0.10156-0.5 0.19922h-0.19922c0-0.69922-0.19922-0.89844-0.69922-1-0.19922 0-0.39844 0-0.5 0.30078 0 0.30078-0.10156 0.60156-0.10156 0.89844-0.10156 0.60156 0.19922 1 0.89844 1 0.39844 0 0.80078 0 1.1992-0.10156 0.60156-0.10156 0.89844 0 1.1992 0.5 0.10156 0.19922 0.19922 0.39844 0.39844 0.5 0.5 0.69922 1.3008 0.60156 1.6992-0.10156 0.19922-0.30078 0.30078-0.60156 0.5-0.89844 0.19922 0.10156 0.39844 0.19922 0.5 0.30078 0.80078 0.60156 1.1992 0.39844 1.6016-0.5 0.19922 0.10156 0.39844 0.19922 0.60156 0.30078-0.10156 0.39844-0.10156 0.80078 0.19922 1.1992 0.10156 0.10156 0.10156 0.30078 0.10156 0.5 0 0.89844 0.30078 1.8008 0.89844 2.6016-0.19922 0-0.30078 0.10156-0.39844 0.10156-0.80078-0.30078-0.69922-0.30078-1.3008 0.30078-0.30078 0.30078-0.69922 0.5-1.1992 0.39844-0.39844-0.10156-0.69922-0.10156-1.1016-0.30078-0.60156-0.19922-0.60156-0.19922-1.1016 0.19922-0.10156 0.10156-0.10156 0.10156-0.19922 0.10156v0.69922c-0.30078 0.10156-0.5 0-0.60156-0.19922-0.5-0.60156-0.60156-0.69922-1.1992-0.39844-0.30078 0.10156-0.60156 0-0.89844-0.39844-0.19922-0.30078-0.30078-0.60156-0.69922-0.60156-0.39844 0-0.69922 0.10156-1 0.30078-0.39844 0.30078-0.89844 0.60156-1.3984 0.80078 0.10156-0.19922 0.19922-0.5 0.30078-0.69922 0.10156-0.39844 0.10156-0.60156-0.19922-0.69922-0.30078-0.10156-0.60156-0.10156-0.80078 0.19922-0.19922 0.39844-0.39844 0.80078-0.60156 1.3008-0.10156 0.30078-0.10156 0.60156 0.30078 0.80078 0.5 0.39844 1 0.5 1.6016 0.19922 0.5-0.30078 1-0.60156 1.5-1 0.19922 0.39844 0.39844 0.69922 0.69922 1 0.19922 0.19922 0.39844 0.39844 0.60156 0.5 0.5 0.19922 0.69922-0.10156 0.89844-0.60156 0.30078 0.5 0.69922 1 1.1992 1.1992 0.60156 0.19922 1 0.10156 1.3008-0.39844 0.30078-0.60156 0.60156-0.69922 1.3008-0.60156 0.30078 0.10156 0.60156 0.10156 0.89844-0.10156 0.39844-0.30078 0.89844-0.60156 1.3984-0.89844 0 0.10156 0.19922 0.19922 0.19922 0.30078 0.19922 1 0.60156 1.8984 1.3008 2.6016 0.30078 0.30078 0.39844 0.80078 0.30078 1.3008-1.1016-0.10156-2.1992 0.19922-3.1992-0.10156-0.39844-0.10156-0.60156 0.19922-0.69922 0.5-0.30078-0.19922-0.10156-0.39844 0-0.5 0.10156-0.19922 0.39844-0.39844 0.10156-0.69922-0.19922-0.19922-0.69922-0.19922-1 0-0.10156 0.10156-0.19922 0.19922-0.19922 0.30078-0.10156 0.10156-0.10156 0.19922-0.19922 0.39844-0.10156-0.10156-0.10156-0.19922-0.19922-0.30078-0.19922-0.60156-0.69922-0.80078-1.1992-0.39844-0.19922 0.19922-0.30078 0.39844-0.5 0.60156-0.19922 0.19922-0.39844 0.39844-0.60156 0.69922 0-0.39844 0-0.69922-0.10156-0.89844-0.10156-0.19922-0.19922-0.39844-0.30078-0.5-0.39844-0.30078-0.80078-0.10156-0.80078 0.39844v1.3984c0 0.39844 0.19922 0.69922 0.60156 0.89844 0.39844 0.19922 0.80078 0.10156 1.1016-0.19922 0.30078-0.30078 0.5-0.60156 1-0.60156 0.30078 0 0.5 0.10156 0.69922 0.30078 0.5 0.39844 0.69922 0.39844 1.1016 0 0.19922-0.19922 0.39844-0.19922 0.60156 0 0.30078 0.19922 0.60156 0.30078 1 0 0-0.19922 0-0.39844 0.10156-0.60156h1.6992c0.10156 0.19922 0.10156 0.30078 0.10156 0.39844-0.10156 1 0.39844 1.8008 0.89844 2.5 0.5 0.69922 0.89844 1.3984 0.89844 2.3008 0 0.10156 0.10156 0.10156 0.10156 0.19922v0.19922c-0.10156 0.10156-0.30078 0.19922-0.39844 0.30078 0.10156 0.19922 0.19922 0.39844 0.30078 0.69922-0.10156 0.10156-0.19922 0.30078-0.30078 0.39844-0.19922 0.19922-0.5 0.19922-0.69922 0s-0.39844-0.39844-0.60156-0.5c-0.39844-0.30078-0.89844-0.5-1.5-0.30078-0.39844 0.19922-0.80078 0.30078-1.1016 0.60156-0.50781 0.53516-0.80469 1.2383-1.707 1.0352zm7.8008 1.9023c-0.60156 0-1 0.10156-1.5 0.10156-0.30078 0-0.39844-0.10156-0.5-0.39844-0.19922-0.39844-0.60156-0.60156-1-0.60156-0.19922 0-0.39844-0.10156-0.5-0.19922-0.30078-0.19922-0.60156-0.19922-1 0.10156-0.10156 0.10156-0.30078 0.19922-0.39844 0.30078-0.69922 0.39844-1.3008 0.19922-1.6016-0.69922 0.5-0.30078 0.89844-0.69922 1.1992-1.1992s0.69922-0.5 1.1992-0.19922c0.19922 0.10156 0.39844 0.30078 0.60156 0.39844 0.60156 0.39844 1.3008 0.69922 2.1016 0.19922 0.5 0.79297 0.89844 1.4961 1.3984 2.1953zm0.30078-8.5c-0.69922-0.10156-1.3008 0.10156-1.6992 0.69922-0.19922-0.19922-0.39844-0.30078-0.60156-0.5 0.30078-0.5 0.60156-1 0.80078-1.3984 0.80078 0.30078 1.5 0.60156 2.1992 0.89844l-0.30078 0.30078h-0.39844zm6.0977 10.098c-0.5 0.5-0.89844 1.1016-1.8008 0.60156 0.10156-1.8984 0.19922-3.8008 0.30078-5.8984h1.3008c0 0.30078 0 0.60156 0.10156 0.80078-0.30078 0.30078-0.60156 0.5-0.89844 0.80078-0.40234 0.29688-0.40234 0.59766-0.003906 0.69531 0.30078 0.10156 0.5 0 0.80078 0 0.19922 0.30078 0.10156 0.60156-0.19922 0.89844-0.30078 0.19922-0.5 0.5-0.69922 0.69922-0.30078 0.39844-0.30078 0.60156 0.19922 0.60156 0.30078 0 0.60156 0 1-0.10156 0.10156 0.30469 0.19922 0.70312-0.10156 0.90234zm-1.5977-6.5977c0.39844 0.19922 0.60156 0.30078 1 0.5-0.30078 0.10156-0.5 0.19922-0.89844 0.30078-0.003906-0.20312-0.10156-0.5-0.10156-0.80078zm10.398-12.402c-0.19922 0.30078-0.39844 0.60156-0.60156 0.89844-0.30078 0.30078-0.5 0.69922-0.39844 1.1016v0.30078c-0.19922 0.39844-0.19922 0.89844 0 1.3984h-0.30078c-0.60156-0.19922-1.1016-0.10156-1.3984 0.5-0.19922 0.30078 0 0.69922 0.5 0.89844 0.19922 0 0.30078 0 0.5 0.10156 0.5 0.10156 0.60156 0.19922 0.60156 0.69922-0.10156 0.69922-0.39844 1.1992-1 1.6016-0.60156 0.30078-1.1992 0.80078-1.1016 1.6992 0 0.39844-0.19922 0.60156-0.60156 0.69922-0.30078 0.10156-0.69922 0.19922-1-0.10156-0.19922-0.19922-0.39844-0.39844-0.60156-0.69922-0.80078-0.80078-1.5-0.60156-2.1992 0-0.39844 0.30078-0.30078 0.80078-0.19922 1.1992 0.10156 0.60156 0.10156 0.89844-0.39844 1.1992-0.39844 0.19922-1 0.19922-1.3984-0.10156-0.30078-0.30078-0.60156-0.5-0.80078-1 0-0.19922-0.30078-0.39844-0.5-0.5-0.69922-0.30078-1.5-0.30078-2.3008-0.30078-0.19922 0-0.39844 0.19922-0.60156 0.19922-0.19922 0.10156-0.5 0.10156-0.80078 0.19922 0.19922-0.5 0.5-0.60156 0.80078-0.60156 0.5 0 0.69922-0.5 1.1016-0.69922 0.10156 0 0-0.39844 0-0.5-0.69922-0.80078-1.3008-1.6992-2.3984-1.8984 0-0.19922 0.10156-0.5 0-0.60156-0.19922-0.30078-0.5 0-0.80078 0-0.39844-0.30078-0.80078-0.69922-1.1992-1-0.60156-0.5-0.60156-1.1992-0.89844-1.8984 0.30078-0.10156 0.5-0.19922 0.69922-0.30078 0.5-0.10156 0.60156-0.30078 0.60156-0.80078 0-0.10156 0-0.30078 0.10156-0.39844 0.19922-0.19922 0.19922-0.39844 0-0.69922-0.19922-0.30078-0.30078-0.60156-0.39844-1 0.5-0.19922 0.89844-0.30078 1.3008-0.5 0.60156-0.19922 0.60156-0.5 0.19922-1-0.10156-0.19922-0.19922-0.30078-0.30078-0.5-0.39844-0.80078-0.39844-1.1016 0.30078-1.8008 0.19922 0.19922 0.39844 0.30078 0.60156 0.39844 0.5 0.30078 1 0.19922 1.1992-0.30078 0.10156-0.19922 0.30078-0.39844 0.39844-0.69922 0.19922 0.10156 0.30078 0.19922 0.5 0.30078 0.30078 0.10156 0.60156 0.19922 0.80078 0.10156 0.39844-0.10156 0.69922-0.30078 1-0.60156 0.39844-0.30078 0.69922-0.60156 0.5-1.1992-0.10156-0.30078-0.10156-0.60156 0.19922-0.89844 0.10156 0 0.19922 0 0.19922 0.10156 0.89844 0.30078 1.3984 0 1.6992-0.89844 0.19922-0.60156 1.8008 0.5 1.6016 0.89844-0.30078 0.60156-0.39844 1.1992-0.5 1.8008-0.10156 0.60156 0.19922 1.1016 0.89844 1.3008h0.19922c0.39844 0.10156 0.89844 0.10156 1.1992 0.60156 0.30078 0.80078 0.60156 1 0.80078 1h0.30078c0.19922 0.10156 0.5 0.19922 0.69922 0.30078-0.003906 0.5-0.003906 0.60156 0.097656 0.60156 0.10156 0 0.30078 0.30078 0.69922 0.39844 0.30078 0.10156 0.89844-0.30078 1.3984-0.30078 0.69922-0.10156 1.1016 0.30078 1.1016 0.5 0 0.20312 0 0.50391-0.10156 0.80078z"/>
  <path d="m25.5 62c-0.5-0.5-0.60156-1-0.19922-1.3984 0.69922-0.69922 1.3008-1.3984 2.3008-1.8008 0.60156-0.19922 1-0.80078 1.6016-1.1016 0.19922-0.19922 0.5-0.30078 0.69922-0.39844 1-0.30078 2-0.5 2.8984-1.1016 0.19922-0.10156 0.5-0.19922 0.80078-0.19922 0.80078-0.10156 1.6016-0.19922 2.3008-0.39844 0.89844-0.19922 1.6992-0.5 2.5-0.69922 0.30078-0.10156 0.69922-0.19922 1-0.19922 0.10156 0 0.19922 0.19922 0.30078 0.30078-0.10156 0.10156-0.19922 0.30078-0.30078 0.30078-0.39844 0.19922-0.80078 0.19922-1.1992 0.39844-1.1992 0.5-2.3984 0.5-3.6016 0.69922-0.89844 0.19922-1.6992 0.30078-2.5 0.69922-0.60156 0.30078-1.3008 0.39844-2 0.69922-0.39844 0.10156-0.69922 0.30078-1.1016 0.5-0.10156 0.10156-0.19922 0.19922-0.39844 0.19922-0.39844 0.10156-0.69922 0.30078-0.89844 0.60156-0.10156 0.10156-0.19922 0.19922-0.30078 0.30078-0.60156 0.19922-1 0.69922-1.3984 1.1016-0.30469 0.49609-0.60547 0.89453-0.50391 1.4961z"/>
  <path d="m53.199 73.102c0.30078-0.39844 0.60156-0.30078 0.80078-0.19922 0.60156 0.39844 1.1992 0.80078 1.6992 1.1992 0.80078 0.5 1 1.3008 0.80078 2.1992-0.30078 1.1992-1 2.1992-2.1992 2.8008-0.19922 0.10156-0.39844 0.10156-0.80078 0.19922 0.10156-0.19922 0.19922-0.30078 0.19922-0.39844 0.89844-0.5 1.3008-1.3984 1.8008-2.3008 0.19922-0.30078 0.19922-0.69922 0.19922-1.1016 0-0.5-0.19922-0.89844-0.60156-1.1992-0.5-0.30078-0.89844-0.60156-1.3984-0.89844-0.097657-0.003906-0.30078-0.20312-0.5-0.30078z"/>
  <path d="m45.898 54.398c-0.69922 0.30078-1.3984 0.69922-2.1992 0.89844-0.69922 0.19922-1.3984 0.5-2 1.1016-0.5 0.39844-0.89844 0.80078-1.1992 1.3984-0.19922 0.39844-0.19922 0.80078-0.10156 1.3008 0.10156 0.19922 0.10156 0.39844 0.19922 0.60156h-0.30078c-0.60156-0.5-0.80078-1.5-0.39844-2.1992 0.89844-1.6016 2.3008-2.3984 3.8984-2.8984 0.30078-0.10156 0.60156-0.30078 0.89844-0.39844 0.60547-0.30469 0.80469-0.20312 1.2031 0.19531z"/>
  <path d="m62.5 87.801c0-1.1992-0.69922-1.8984-1.6992-2.3008-1-0.30078-2-0.69922-3-1.1016-0.19922-0.10156-0.5-0.19922-0.69922-0.39844-0.19922-0.19922-0.30078-0.5 0-0.80078 0.10156 0.10156 0.30078 0.19922 0.39844 0.30078 0.19922 0.30078 0.5 0.39844 0.80078 0.5 1.1016 0.39844 2.3008 0.80078 3.3984 1.1992 1 0.39844 1.5 1.3984 1.3984 2.5-0.19922 0.10156-0.39844 0.10156-0.59766 0.10156z"/>
  <path d="m29 80.602c-0.5 0.5-1.1016 0.69922-1.6992 0.69922-1.5 0-2.6992 0.60156-4 1.3008-0.30078 0.19922-0.60156 0.5-1.1016 0.30078 0.5-0.60156 1-0.89844 1.6016-1.1992 1.1016-0.5 2.1992-1 3.5-0.89844 0.30078 0 0.69922-0.19922 1-0.30078 0.30078-0.10547 0.5-0.20312 0.69922 0.097656z"/>
  <path d="m27.5 87.102c0.39844-1 0.69922-2 1.8984-2.5 1.1016-0.5 2.1992-0.80078 3.3984-0.89844 0.10156 0 0.19922 0 0.39844 0.19922-0.10156 0.10156-0.30078 0.10156-0.39844 0.19922-0.30078 0.10156-0.69922 0.10156-1 0.19922-1.1016 0.10156-2 0.60156-2.8008 1.3008-0.30078 0.19922-0.39844 0.60156-0.60156 0.89844-0.29297 0.19922-0.49609 0.5-0.89453 0.60156z"/>
  <path d="m61 72.102c0.10156 0.19922 0.39844 0.30078 0.39844 0.5 0.19922 0.60156 0.39844 1.1016 0.5 1.6992 0.10156 0.89844-0.30078 1.5-1.1016 1.8008 0-0.19922 0-0.30078 0.10156-0.39844 0.39844-0.80078 0.39844-1.6016 0.10156-2.3984-0.10156-0.19922-0.19922-0.39844-0.19922-0.69922v-0.39844c0.097657-0.007812 0.097657-0.10547 0.19922-0.10547z"/>
  <path d="m41.199 74.602c0.10156 0.10156 0.30078 0.19922 0.39844 0.39844 0.19922 0.60156 0 1.6016-0.60156 2-0.5 0.5-1.1016 0.89844-2 0.80078 0.19922-0.19922 0.39844-0.39844 0.60156-0.5 0.19922-0.19922 0.39844-0.30078 0.69922-0.5 0.5-0.30078 0.69922-0.69922 0.69922-1.3008 0-0.30078 0.10156-0.60156 0.10156-0.89844h0.10156z"/>
  <path d="m43 72.301 0.10156-0.10156c1.1016 0.5 2.1992 1 2.8008 2.1992 0.10156 0.19922 0.19922 0.30078 0.19922 0.5 0.10156 0.39844 0.10156 0.5-0.39844 0.69922l-0.10156-0.10156c-0.10156-1.1016-0.80078-1.8008-1.6992-2.3008-0.30078-0.09375-0.80078-0.29687-0.90234-0.89453z"/>
  <path d="m37.602 63.898c-0.19922-0.10156-0.39844-0.10156-0.60156-0.19922-1-0.69922-1.5-1.6992-1.6992-2.8008-0.10156-0.39844 0-0.80078 0.39844-1.1016 0.30078 0.19922 0.19922 0.5 0.19922 0.69922 0 1.3008 0.5 2.3984 1.6016 3.1016 0 0 0 0.10156 0.10156 0.10156 0.097657 0.10156 0.097657 0.10156 0 0.19922z"/>
  <path d="m58.801 71c-0.10156 0-0.19922 0.10156-0.19922 0.10156-0.69922-0.30078-1.3984-0.60156-2.1016-0.89844 0 0-0.10156 0-0.10156-0.10156-0.39844-0.39844-0.80078-0.89844-1.1992-1.3008 0.60156-0.10156 1.1016 0 1.3984 0.5 0.30078 0.39844 0.60156 0.60156 1.1016 0.80078 0.30078 0.10156 0.69922 0.30078 1 0.5 0 0.097657 0 0.29688 0.10156 0.39844z"/>
  <path d="m33.199 67.5c-0.19922-0.10156-0.5-0.19922-0.60156-0.39844-0.39844-0.60156-0.69922-1.1992-1-1.8984-0.10156-0.19922 0-0.39844 0-0.69922 0-0.10156 0.30078-0.19922 0.39844-0.19922 0.10156 0 0.19922 0.19922 0.19922 0.19922 0 0.69922 0.39844 1.3008 0.80078 1.8008 0.19922 0.30078 0.30078 0.60156 0.39844 0.80078 0.003907 0.29297-0.09375 0.39453-0.19531 0.39453z"/>
  <path d="m35 78.699c0.60156-0.19922 1.1016-0.30078 1.6992-0.30078 0.69922 0 1.3984 0.10156 2-0.39844l0.10156 0.10156c0 0.19922 0 0.39844-0.10156 0.39844-0.30078 0.19922-0.60156 0.39844-0.80078 0.39844-0.80078 0.10156-1.6992 0-2.5 0-0.10156 0-0.30078-0.10156-0.39844-0.10156v-0.097656z"/>
  <path d="m39.102 70.301c0.19922 0.19922 0.5 0.30078 0.69922 0.60156 0.39844 0.60156 0.80078 1.1992 1.1992 1.8984 0.10156 0.10156 0.10156 0.19922 0.19922 0.39844 0 0.10156 0 0.30078-0.10156 0.30078h-0.30078c-0.10156-0.19922-0.19922-0.30078-0.30078-0.5-0.5-0.69922-0.89844-1.3984-1.3984-2.1016-0.10156-0.10156-0.10156-0.19922-0.10156-0.30078 0.003906-0.29688 0.003906-0.29688 0.10547-0.29688z"/>
  <path d="m41.199 84.199c-0.30078 0-0.39844-0.30078-0.39844-0.5 0-0.5 0.10156-1.1016 0.30078-1.5 0.30078-0.60156 0.89844-0.60156 1.3984-0.19922-1.1992 1.1992-0.89844 0.89844-1.3008 2.1992z"/>
  <path d="m50.602 67.898c0.39844 0.10156 0.89844 0.19922 1.3008 0.30078h1.3008c0.30078 0 0.60156 0.19922 0.89844 0.39844-0.80078 0.10156-1.6016 0.10156-2.3008 0.19922-0.5 0.003906-0.90234-0.29688-1.1992-0.89844z"/>
  <path d="m16.398 85.199c-0.60156-0.30078-1 0-1.3984 0.39844-0.19922 0.19922-0.39844 0.39844-0.60156 0.5-0.10156 0.10156-0.30078 0.19922-0.5 0.30078 0-0.30078 0-0.39844 0.10156-0.5 0.5-0.5 1-1 1.5-1.3984 0.39844-0.30078 0.69922-0.10156 0.89844 0.69922z"/>
  <path d="m47.199 67.199c-0.89844-0.10156-1.6016-0.5-2.1992-1-0.30078-0.19922-0.5-0.5-0.39844-1 0.30078-0.10156 0.5 0 0.60156 0.19922 0.39844 0.69922 1.1016 1 1.8008 1.3008 0.10156 0 0.10156 0.10156 0.19922 0.19922-0.003906 0.10156-0.003906 0.10156-0.003906 0.30078z"/>
  <path d="m38.102 70c-1-0.19922-2.5-1.1992-2.8008-1.6992 0.39844-0.10156 0.80078 0.10156 1.1016 0.30078 0.59766 0.39844 1.3984 0.59766 1.6992 1.3984z"/>
  <path d="m25.699 64c0.39844 0.60156 0.69922 1 1.1016 1.5-0.69922-0.19922-1-0.5-1.1016-1.5z"/>
  <path d="m65 53.801c0.10156-0.19922 0.19922-0.30078 0.30078-0.5 0.30078-0.39844 0.60156-0.60156 1-0.39844 0.30078 0.10156 0.39844 0.69922 0.19922 1.1016-0.10156 0.19922-0.30078 0.39844-0.5 0.60156-0.10156 0.19922-0.30078 0.30078-0.39844 0.5-0.30078 0.39844-0.69922 0.5-1.1016 0.10156-0.30078-0.30078-0.5-0.60156-0.80078-1-0.39844 0.10156-0.69922 0.69922-1.3008 0.5-0.5-0.19922-0.80078-0.5-0.89844-1-0.60156 0.10156-1.1992 0.19922-1.6992 0.30078-0.60156 0.10156-1-0.19922-1-0.80078 0-0.30078 0.19922-0.60156 0.30078-0.89844 0.10156-0.39844 0.30078-0.89844 0.39844-1.3008 0-0.19922 0-0.5 0.30078-0.5s0.60156 0.10156 0.69922 0.19922c0.30078 0.30078 0.19922 0.80078 0 1.1992-0.10156 0.10156-0.10156 0.19922-0.19922 0.39844-0.10156 0.19922-0.10156 0.30078-0.19922 0.60156 0.30078-0.10156 0.60156-0.19922 0.80078-0.30078 0.80078-0.39844 1-0.39844 1.6992 0.30078 0 0 0.10156 0.10156 0.19922 0.19922 0.30078-0.19922 0.60156-0.30078 0.89844-0.5 0.69922 0.19922 1 0.69922 1 1.3984 0.10156-0.20312 0.19922-0.20312 0.30078-0.20312z"/>
  <path d="m72.102 53.801c-0.19922 0.39844-0.30078 0.80078-0.39844 1.1992-0.10156 0.30078-0.19922 0.5-0.30078 0.69922-0.30078 0.39844-0.80078 0.39844-1.1016 0-0.10156-0.19922-0.19922-0.39844-0.19922-0.69922-0.10156-0.39844-0.10156-0.80078-0.19922-1.1992-0.10156-0.39844-0.19922-0.80078-0.30078-1.1016 0.39844-0.39844 0.5-0.5 0.89844-0.19922 0.39844 0.19922 0.69922 0.30078 1.1016 0 0.60156-0.5 0.89844-0.30078 1.3008 0.30078 0.10156 0.10156 0.19922 0.19922 0.19922 0.30078 0.30078 0.39844 0.10156 0.69922-0.39844 0.69922-0.10156 0.097657-0.30469 0.097657-0.60156 0z"/>
  <path d="m67.699 28.5c0.69922-0.19922 1 0.19922 1.3008 0.69922 0.30078-0.19922 0.60156-0.30078 0.89844-0.5 0.19922-0.10156 0.5-0.10156 0.69922-0.10156 0.39844 0.10156 0.5 0.39844 0.10156 0.69922-0.19922 0.19922-0.39844 0.39844-0.69922 0.5-0.80078 0.5-1.6016 0.19922-2-0.60156-0.10156-0.09375-0.19922-0.39453-0.30078-0.69531z"/>
  <path d="m45.199 39.699c1.1992-0.69922 1.3984-0.60156 1.8008 0.60156 0.19922-0.10156 0.39844-0.30078 0.5-0.30078 0.19922 0 0.39844 0.10156 0.69922 0.10156 0.39844 0.10156 0.5 0.10156 0.60156-0.30078 0.10156-0.30078 0.19922-0.5 0.5-0.5 0.19922 0 0.5 0.19922 0.60156 0.39844 0.19922 0.19922 0.5 0.5 0.30078 0.80078-0.39844 0.10156-0.69922 0.30078-1.1016 0.30078-0.30078 0.10156-0.60156 0-0.89844 0.10156-0.19922 0-0.39844 0-0.60156 0.19922-0.80078 0.60156-1.3008 0.5-1.6016-0.39844 0-0.10156-0.10156-0.19922-0.10156-0.30078-0.5 0-0.69922 0.30078-1 0.5-0.30078 0.19922-0.5 0.60156-1 0.30078-0.30078-0.19922-0.30078-0.39844 0-1.1016 0-0.10156 0.10156-0.10156 0.10156-0.19922 0.30078-0.5 0.39844-0.5 0.89844-0.30078 0.10156 0 0.20312 0.097657 0.30078 0.097657z"/>
  <path d="m49 34.699c0.5 0.60156 0.5 0.89844 0 1.3984-0.5-0.19922-1-0.39844-1.5-0.5-0.19922-0.10156-0.39844-0.10156-0.60156 0.10156-1.1016 0.69922-1.6992 0.39844-1.8008-0.89844 0 0 0-0.10156 0.10156-0.19922 0.60156-0.30078 0.80078 0.19922 1 0.60156 0.10156-0.10156 0.30078-0.10156 0.39844-0.19922 0.39844-0.30078 0.80078-0.30078 1.1992-0.10156 0.10156 0.10156 0.30078 0.10156 0.39844 0.10156 0.30469 0.097656 0.60547 0.097656 0.80469-0.30469z"/>
  <path d="m49.5 43.301c0.69922-0.5 1.1016-0.30078 1.5 0.80078 0.10156 0 0.19922-0.10156 0.19922-0.10156 0.60156-0.39844 0.80078-0.30078 1.1992 0.19922 0.19922 0.19922 0.39844 0.30078 0.69922 0.5-0.10156 0.39844-0.39844 0.39844-0.69922 0.30078-0.30078-0.10156-0.5-0.19922-0.80078-0.30078-0.19922 0.10156-0.39844 0.19922-0.69922 0.19922-0.5 0.10156-0.89844-0.19922-0.89844-0.69922 0.10156-0.39844-0.10156-0.69922-0.5-0.89844z"/>
  <path d="m50.801 34.199c-0.19922 0.30078-0.5 0.39844-0.89844 0.19922-0.5-0.30078-0.69922-0.69922-0.60156-1.3984 0.19922 0.10156 0.5 0.10156 0.60156 0.19922 0.19922 0.19922 0.30078 0.19922 0.60156 0.19922h0.19922c0.80078 0.39844 1.5 0.89844 2.1016 1.6016v0.19922c-0.5 0.19922-0.69922-0.19922-1-0.39844-0.40625-0.19922-0.70313-0.30078-1.0039-0.60156z"/>
  <path d="m31.199 32.898c0.30078 0.30078 0.5 0.30078 0.80078 0 0.10156-0.19922 0.19922-0.30078 0.30078-0.39844 0.19922-0.30078 0.5-0.39844 0.80078-0.30078 0.39844 0.10156 0.30078 0.39844 0.39844 0.69922 0 0.10156 0 0.19922 0.10156 0.39844 0.5-0.30078 0.89844-0.30078 1.3984 0 0.39844 0.19922 0.89844-0.10156 0.80078-0.60156-0.10156-0.39844-0.10156-0.80078 0.30078-1 0.5-0.19922 1-0.19922 1.3984 0.10156-0.10156 0.5-0.60156 0.30078-0.80078 0.5 0.10156 1 0.10156 1-0.60156 1.5-0.60156 0.39844-0.60156 0.39844-1.6992 0.10156-0.10156 0.10156-0.10156 0.19922-0.19922 0.30078-0.30078 0.5-0.89844 0.5-1.1992 0-0.10156-0.19922-0.19922-0.5-0.30078-0.80078-0.10156 0.10156-0.19922 0.19922-0.30078 0.30078-0.39844 0.39844-0.60156 0.5-1.1992 0.19922-0.19922-0.10156-0.5-0.10156-0.69922-0.10156-0.10156 0-0.30078-0.10156-0.39844-0.19922-0.10156-0.10156 0-0.30078 0.10156-0.39844 0.30078-0.60156 0.69922-1.1992 1-1.8008 0.10156-0.30078 0.39844-0.30078 0.60156-0.19922 0.30078 0.10156 0.39844 0.39844 0.30078 0.60156-0.19922 0.30078-0.39844 0.60156-0.60156 0.89844-0.20312 0-0.20312 0.10156-0.30469 0.19922z"/>
  <path d="m35.699 44c-0.10156 0.39844-0.10156 0.60156-0.19922 0.89844 0 0.80078-0.60156 1.3008-1.3984 1.1016-0.69922-0.10156-0.69922-0.19922-1.1992-0.80078h-0.10156c-0.69922 1.3984-2 1.3008-3.1992 1.3008-0.5 0-0.69922-0.30078-0.60156-0.80078 0.10156-0.30078 0.30078-0.69922 0.5-1 0.39844-0.39844 0.89844-0.60156 1.5-0.60156 0.10156 0 0.30078 0.10156 0.60156 0.19922-0.5 0.30078-0.89844 0.5-1.3008 0.69922v0.19922c0.39844 0 0.80078 0.10156 1.1992 0 0.19922 0 0.39844-0.19922 0.5-0.30078 0.19922-0.19922 0.30078-0.39844 0.5-0.5 0.5-0.39844 0.89844-0.19922 1.1016 0.39844 0.10156 0.19922 0.10156 0.39844 0.19922 0.5 0.10156 0.10156 0.39844 0.19922 0.5 0.19922 0.10156 0 0.19922-0.19922 0.19922-0.39844v-0.30078c-0.10156-0.69922 0.19922-0.89844 0.89844-0.80078 0.20312-0.09375 0.20312 0.007812 0.30078 0.007812z"/>
  <path d="m29.898 38.801c1-0.10156 1-0.10156 1.3984 0.19922 0.30078-0.10156 0.5-0.30078 0.80078-0.39844 0.30078-0.10156 0.5-0.10156 0.80078 0.19922 0.10156 0.10156 0.19922 0.19922 0.30078 0.19922 0.5-0.10156 0.80078 0.19922 0.89844 0.60156 0 0.10156 0.19922 0.10156 0.39844 0.30078 0.19922-0.39844 0.30078-0.69922 0.39844-1.1016 0.10156-0.39844 0.5-0.60156 0.80078-0.60156 0.30078 0 0.60156 0.10156 0.60156 0.5-0.60156 0.19922-0.69922 0.69922-0.89844 1.3008-0.19922 0.60156-0.39844 0.80078-1.1016 0.60156-0.19922-0.10156-0.30078-0.10156-0.39844-0.19922-0.60156-0.5-1.1016-0.30078-1.6016 0-0.60156 0.30078-1.1992 0.30078-1.6992 0.30078-0.30078 0-0.5-0.19922-0.60156-0.5-0.097656-0.50391-0.097656-1.0039-0.097656-1.4023z"/>
  <path d="m19.199 41.398c0.30078 0.30078 0.69922 0.39844 1.1992 0.39844v-0.60156c0-0.5 0.19922-0.60156 0.69922-0.5 0.19922 0 0.39844 0.10156 0.60156 0.19922 0.19922 0.30078 0.10156 0.60156-0.19922 0.80078-0.10156 0.10156-0.19922 0.19922-0.19922 0.19922-0.10156 0.60156-0.60156 0.60156-1 0.5-0.69922-0.10156-1.3984-0.19922-1.8984-0.69922-0.10156-0.10156-0.30078-0.10156-0.39844-0.19922-0.19922 0-0.5 0-0.69922-0.10156-0.5-0.10156-0.80078-0.5-0.80078-1 0.10156-0.5 0.19922-0.89844 0.39844-1.5 0 0-0.10156-0.10156-0.19922-0.10156-0.30078-0.10156-0.69922-0.19922-0.69922-0.60156-0.10156-0.5 0-0.89844 0.30078-1.3008 0.30078-0.39844 0.69922-0.60156 1.1992-0.69922 0.19922 0 0.39844 0.10156 0.60156 0.19922 0.19922 0.10156 0.30078 0.30078 0.10156 0.60156-0.30078 0.5-0.5 0.60156-1.1992 0.5-0.30078 0.60156-0.19922 0.60156 0.39844 0.69922 0.30078 0 0.69922 0.10156 0.69922 0.30078 0.10156 0.30078 0 0.60156-0.10156 0.89844-0.10156 0.19922-0.30078 0.39844-0.39844 0.69922-0.10156 0.19922-0.30078 0.5 0 0.69922 0.30078 0.10156 0.60156 0.10156 0.80078-0.19922 0.10156-0.10156 0.30078-0.19922 0.39844-0.19922 0.59375 0.007813 0.69531 0.30859 0.39453 1.0078z"/>
  <path d="m12.898 41.199c0.39844-0.19922 0.69922-0.30078 1.1016-0.39844-0.10156 0.5-0.30078 0.89844-0.80078 1-0.39844 0.10156-0.80078 0.10156-1.1016-0.30078-0.39844-0.5-0.39844-1.1016-0.19922-1.6016 0.10156-0.30078 0.39844-0.5 0.69922-0.5 0.19922 0 0.39844 0.19922 0.39844 0.30078 0.10156 0.30078 0.19922 0.60156-0.19922 0.80078-0.19531 0.19922 0.003906 0.5 0.10156 0.69922z"/>
  <path d="m22.699 36.699c-0.19922-0.30078-0.39844-0.60156-0.5-0.89844-0.39844 0.19922-0.69922 0.5-0.80078 0.80078-0.10156 0.19922-0.19922 0.39844-0.39844 0.30078-0.30078-0.10156-0.39844-0.30078-0.30078-0.5 0.19922-0.5 0.5-1 1-1.1992s0.89844-0.10156 1.3008 0.19922c0.10156 0.10156 0.30078 0.30078 0.30078 0.5 0.097657 0.59766 0 0.69922-0.60156 0.79688z"/>
  <path d="m88.602 49c0.10156-0.19922 0.30078-0.30078 0.39844-0.5 0.60156-0.10156 0.69922 0.5 0.89844 0.80078 0.19922 0.30078-0.39844 1.3984-0.69922 1.5-0.39844 0.19922-0.89844 0-1.1992-0.5-0.19922-0.39844-0.39844-0.69922-0.5-1.1016-0.10156-0.30078 0.10156-0.60156 0.5-0.5 0.10156 0 0.30078 0.19922 0.60156 0.30078z"/>
  <path d="m83.301 50.699c-0.30078-0.10156-0.60156-0.30078-0.89844-0.39844-0.10156-0.10156-0.19922-0.30078-0.10156-0.30078 0.10156-0.10156 0.19922-0.19922 0.39844-0.19922h0.19922c0.39844 0.19922 0.69922 0.10156 1.1016 0 0.10156 0 0.39844 0.10156 0.5 0.19922 0.10156 0.19922 0 0.39844-0.19922 0.5-0.30078 0-0.60156 0.10156-1 0.19922z"/>
  <path d="m86.398 45.199c0.5-0.10156 0.60156-0.5 0.89844-0.89844-0.19922-0.10156-0.39844-0.19922-0.5-0.30078-0.39844-0.19922-0.5-0.5-0.19922-0.89844 0.10156-0.19922 0.30078-0.30078 0.39844-0.5 0.39844 0 0.60156 0.10156 0.69922 0.5 0 0.10156 0 0.19922 0.10156 0.30078 0.5 0.39844 0.30078 0.80078 0 1.1992-0.39844 0.60156-0.80078 1.1992-1.5 1.3984-0.10156 0-0.19922 0.19922-0.30078 0.30078-0.10156 0.19922-0.19922 0.39844-0.30078 0.60156-0.30078 0.39844-0.80078 0.5-1.1992 0.30078-0.39844-0.30078-0.69922-0.60156-1.1016-1 0 0-0.10156 0.10156-0.19922 0.10156-0.30078 0.19922-0.5 0.5-0.89844 0.39844-0.5-0.19922-0.89844-0.39844-1.1016-0.80078-0.19922-0.39844-0.19922-0.89844-0.10156-1.3984 0.10156-0.19922 0.19922-0.30078 0.39844-0.5 0.19922-0.19922 0.39844-0.10156 0.60156 0.10156 0.30078 0.5 0.30078 0.69922-0.10156 1.3008 0.5 0.5 0.5 0.5 0.80078 0 0.10156-0.19922 0.39844-0.5 0.60156-0.5 0.30078 0 0.5 0.30078 0.80078 0.5 0.19922 0.19922 0.30078 0.39844 0.39844 0.60156 0.19922 0.19922 0.30078 0.5 0.60156 0.30078 0.19922-0.19922 0.39844-0.5 0.10156-0.80078-0.10156-0.10156-0.10156-0.39844 0-0.5 0.30469-0.40625 0.70312-0.40625 1.1016 0.19141z"/>
  <path d="m81.898 41.398c-0.19922-0.30078-0.39844-0.60156-0.5-0.89844-0.39844 0.19922-0.69922 0.5-0.80078 0.80078-0.10156 0.19922-0.19922 0.39844-0.39844 0.30078-0.30078-0.10156-0.39844-0.30078-0.30078-0.5 0.19922-0.5 0.5-1 1-1.1992 0.5-0.19922 0.89844-0.10156 1.3008 0.19922 0.10156 0.10156 0.30078 0.30078 0.30078 0.5 0.10156 0.59766-0.10156 0.69922-0.60156 0.79688z"/>
 </g>
<text x="0.0" y="117.5" font-size="5.0" font-weight="bold" font-family="Arbeit Regular, Helvetica, Arial-Unicode, Arial, Sans-serif" fill="#000000">Created by ida ratnaningrum</text><text x="0.0" y="122.5" font-size="5.0" font-weight="bold" font-family="Arbeit Regular, Helvetica, Arial-Unicode, Arial, Sans-serif" fill="#000000">from Noun Project</text></svg>