<svg xmlns="http://www.w3.org/2000/svg" version="1.1" viewBox="-5.0 -10.0 110.0 135.0">
 <path d="m33.262 64.492v6.875c0 3.3984 1.3672 6.9141 4.0039 9.5703s6.5625 4.4727 11.641 4.4727h0.91797v2.1289h-0.89844c-5.0195 0-9.6094-1.7383-12.891-4.9023-3.0859-2.9688-4.8633-7.0703-4.8633-11.211v-6.9141h2.0898zm-18.32-54.141h15.859c0.21484 0 0.37109 0.17578 0.37109 0.37109v5.9375h2.0898v-5.9375c0-1.3477-1.1133-2.4609-2.4609-2.4609h-15.859c-1.3477 0-2.4609 1.1133-2.4609 2.4609v76.855h2.0898v-76.855c0-0.21484 0.17578-0.37109 0.37109-0.37109zm67.227 22.988c0-5.7422-4.668-10.41-10.41-10.41-5.7422 0-10.41 4.668-10.41 10.41 0 5.7422 4.668 10.41 10.41 10.41 5.7422 0.019531 10.41-4.6484 10.41-10.41zm-30.215 57.168c0 0.68359 0.56641 1.2305 1.2305 1.2305h7.4219v-31.23c0-0.58594 0.44922-1.0352 1.0352-1.0352s1.0352 0.44922 1.0352 1.0352v31.23h18.125v-31.23c0-0.58594 0.44922-1.0352 1.0352-1.0352 0.58594 0 1.0352 0.44922 1.0352 1.0352v31.23h7.4219c0.68359 0 1.2305-0.56641 1.2305-1.2305v-33.574c0-6.1133-4.9805-11.094-11.094-11.094h-17.422c-6.1133 0-11.094 4.9805-11.094 11.094v33.574zm-22.461-29.727c0 0.58594 1.2695 1.7578 2.7539 1.7578 1.543 0 2.7539-1.2109 2.7539-1.7578v-6.6211h-5.5078zm0.68359-41.016v1.0352h4.1211v-1.0352c0-0.58594-0.48828-1.0352-1.0352-1.0352h-2.0703c-0.56641 0-1.0156 0.44922-1.0156 1.0352zm-5.1953 3.125h14.492c1.1523 0 2.0898 0.9375 2.0898 2.0898v0.27344h-4.1797c-0.58594 0-1.0352 0.44922-1.0352 1.0352 0 0.58594 0.44922 1.0352 1.0352 1.0352h4.1797v6.1914h-1.9922c-0.58594 0-1.0352 0.44922-1.0352 1.0352 0 0.58594 0.44922 1.0352 1.0352 1.0352h1.9922v6.2109h-4.1797c-0.58594 0-1.0352 0.44922-1.0352 1.0352 0 0.58594 0.44922 1.0352 1.0352 1.0352h4.1016c-0.58594 4.6094-4.5508 8.1641-9.2969 8.1641-5.1367 0-9.2969-4.1797-9.2969-9.2969v-17.793c0-1.1133 0.9375-2.0508 2.0898-2.0508zm4.3164 15.645h1.8945v1.8945c0 0.58594 0.44922 1.0352 1.0352 1.0352 0.58594 0 1.0352-0.44922 1.0352-1.0352v-1.8945h1.8945c0.58594 0 1.0352-0.44922 1.0352-1.0352s-0.44922-1.0352-1.0352-1.0352h-1.8945v-1.8945c0-0.58594-0.44922-1.0352-1.0352-1.0352-0.58594 0-1.0352 0.44922-1.0352 1.0352v1.8945h-1.8945c-0.58594 0-1.0352 0.44922-1.0352 1.0352 0 0.56641 0.44922 1.0352 1.0352 1.0352zm-20.859 52.168c0 0.56641 0.46875 1.0352 1.0352 1.0352h8.0664c0.56641 0 1.0352-0.46875 1.0352-1.0352s-0.46875-1.0352-1.0352-1.0352h-8.0469c-0.58594-0.019531-1.0547 0.44922-1.0547 1.0352z"/>
<text x="0.0" y="117.5" font-size="5.0" font-weight="bold" font-family="Arbeit Regular, Helvetica, Arial-Unicode, Arial, Sans-serif" fill="#000000">Created by Firman Syah</text><text x="0.0" y="122.5" font-size="5.0" font-weight="bold" font-family="Arbeit Regular, Helvetica, Arial-Unicode, Arial, Sans-serif" fill="#000000">from Noun Project</text></svg>