<svg xmlns="http://www.w3.org/2000/svg" version="1.1" viewBox="-5.0 -10.0 110.0 135.0">
 <path d="m17.898 68.41c0.87109 0 1.7188-0.10938 2.5391-0.32812 0.94141-0.26172 1.6094-0.57031 2.1992-0.85938 0.64844-0.32031 1.1094-0.55078 1.8008-0.60938 0.87109-0.070312 1.8008 0.14844 2.7617 0.69141 0.48828 0.28125 1.1211 0.10156 1.3984-0.39844 0.26953-0.48828 0.089844-1.1211-0.41016-1.3984-1.3203-0.73047-2.6484-1.0508-3.9219-0.94141-1.0781 0.089844-1.8203 0.46094-2.5312 0.80859-0.51953 0.26172-1.0586 0.51953-1.8086 0.71875-0.98047 0.26953-2.0391 0.32812-3.1289 0.19141-0.55078-0.070312-1.0781 0.32812-1.1484 0.87891-0.070313 0.55859 0.32812 1.0781 0.89062 1.1484 0.46094 0.066406 0.91016 0.097656 1.3594 0.097656z"/>
 <path d="m17.648 37.051h12.031c0.32812 0 0.62109-0.16016 0.78125-0.44922 0.16016-0.28125 0.16016-0.62109 0-0.89062l-6.0117-10.422c-0.16016-0.28906-0.46094-0.44922-0.78906-0.44922-0.32031 0-0.62109 0.16016-0.78125 0.44922l-6.0117 10.422c-0.16016 0.28125-0.16016 0.62109 0 0.89062 0.17187 0.28906 0.45312 0.44922 0.78125 0.44922zm6.0234-1.4609c-0.42188 0-0.76172-0.33984-0.76172-0.75 0-0.42188 0.33984-0.75 0.76172-0.75 0.41016 0 0.75 0.32812 0.75 0.75 0 0.41016-0.33203 0.75-0.75 0.75zm-0.12109-8.0781c0.55859-0.058594 1.0781 0.33984 1.1484 0.91016v0.23047l-0.46875 4.0898c-0.03125 0.30859-0.32031 0.53125-0.62891 0.5-0.26953-0.03125-0.46094-0.25-0.48828-0.5l-0.46094-4.0898c-0.074219-0.5625 0.33594-1.082 0.89844-1.1406z"/>
 <path d="m40.352 66.828c-0.85937 0.078125-1.7891-0.14844-2.75-0.69922-0.48828-0.26953-1.1211-0.089844-1.3984 0.39844-0.28125 0.5-0.089844 1.1289 0.39844 1.3984 1.1602 0.64844 2.3086 0.96094 3.4297 0.96094 0.17188 0 0.32812 0 0.48828-0.019531 1.0781-0.078126 1.8203-0.44922 2.5312-0.80078 0.51953-0.26172 1.0703-0.51953 1.8203-0.73047 0.98047-0.26172 2.0391-0.32031 3.1289-0.17969 0.55859 0.070312 1.0703-0.32812 1.1406-0.87891 0.070313-0.55859-0.32031-1.0781-0.87891-1.1484-1.3516-0.17188-2.6719-0.089844-3.9102 0.23828-0.94922 0.25-1.6094 0.57031-2.1992 0.85937-0.65234 0.32422-1.1133 0.54297-1.8008 0.60156z"/>
 <path d="m44.73 33.262c-0.089844 0-0.16016 0.058593-0.16016 0.14844v13.84c0 0.078125 0.070313 0.14844 0.16016 0.14844h5.2695c0.078125 0 0.14844-0.070313 0.14844-0.14844v-13.84c0-0.089844-0.070313-0.14844-0.14844-0.14844z"/>
 <path d="m67.121 45.32v-9.9805h-15.941v9.9805zm-5.75-8.2695h2.3281c0.28906 0 0.51172 0.23828 0.51172 0.51172 0 0.28906-0.23047 0.51172-0.51172 0.51172h-2.3281c-0.28906 0-0.51172-0.23047-0.51172-0.51172-0.007813-0.27344 0.21875-0.51172 0.51172-0.51172zm-8.4609 0h5.6016c0.28906 0 0.51172 0.23828 0.51172 0.51172 0 0.28906-0.23047 0.51172-0.51172 0.51172h-5.6016c-0.28125 0-0.51172-0.23047-0.51172-0.51172 0-0.27344 0.24219-0.51172 0.51172-0.51172z"/>
 <path d="m83.762 72.129h-21.543c-0.30859 0-0.60938-0.17188-0.76953-0.42969-0.42188-0.73047-0.91016-1.4297-1.4219-2.0508 0-0.011719-0.011719-0.019532-0.019532-0.03125-1.0195-1.2617-2.1211-2.3203-3.3984-3.2109-1.0312-0.71094-1.9219-1.1602-2.8711-1.6211-1.0898-0.53906-2.2109-1.0898-3.6602-2.1289-1.4219-1.0391-2.4219-1.9609-3.0195-2.5508-0.17188-0.17188-0.26953-0.41016-0.26953-0.67188v-6.0352h20.32v-2.0508l-20.84 0.003906c-0.83984 0-1.5312 0.69141-1.5312 1.5312v0.070313c-1.1719-0.070313-2.2383 0.10156-3.1719 0.51953-0.37891 0.17188-0.64844 0.33984-0.87891 0.48828-0.21094 0.12109-0.39844 0.26172-0.71875 0.39844-0.71094 0.32812-1.5117 0.48047-2.3711 0.48047v2.0508h0.070313c1.1289 0 2.1992-0.23047 3.1602-0.67188 0.42188-0.19141 0.71094-0.37891 0.94922-0.53125 0.17969-0.12109 0.37109-0.23828 0.62891-0.35938 0.67188-0.30078 1.4492-0.41016 2.3281-0.33984v4.4297c0 0.80859 0.30859 1.5586 0.87109 2.1211 0.64844 0.64063 1.7188 1.6406 3.2617 2.7617 1.6016 1.1484 2.8516 1.7617 3.9492 2.3086 0.92188 0.44922 1.7109 0.83984 2.6094 1.4688 0.82812 0.57031 1.5781 1.2305 2.2695 1.9883-3.0195 2.0898-6.0703 3.1484-9.1016 3.1914-2.0703 0.03125-3.3516-0.44922-4.7891-1-1.5391-0.57812-3.2695-1.2383-6.1914-1.2891-2.7305-0.039062-4.4492 0.46094-6.1016 0.94922-1.6094 0.48047-3.1484 0.94922-5.6602 0.87891-2.7109-0.058594-5.4219-0.69141-8.0508-1.8789-0.51953-0.23828-1.1289 0-1.3594 0.51172-0.23047 0.51172 0 1.1289 0.51953 1.3516 2.8789 1.3008 5.8711 2 8.8516 2.0586 2.8281 0.058594 4.6016-0.46094 6.2891-0.96094 1.5781-0.46875 3.0703-0.92188 5.4805-0.87109 2.5508 0.039063 3.9883 0.57813 5.5 1.1602 1.4688 0.55078 2.9883 1.1289 5.3789 1.1289h0.16016c3.4883-0.039063 6.9805-1.2617 10.371-3.6289 0.25 0.33984 0.46875 0.69922 0.69922 1.0703 0.53125 0.87891 1.5117 1.4297 2.5195 1.4297h21.539c0.55859 0 1.0312-0.46094 1.0312-1.0312 0.007812-0.56641-0.46094-1.0078-1.0195-1.0078z"/>
 <path d="m36.578 54.949v-5.75c0-2.5508 1.8008-4.6289 4-4.6289h2.9609v-8.4688h-2.9609c-6.8789 0-12.469 5.8789-12.469 13.102v11.941c-0.33984 0-0.69141-0.019531-1.0312-0.058593-1.4609-0.12891-2.9414-0.55859-4.4609-1.2891-0.51172-0.25-1.1289-0.03125-1.3711 0.48047-0.23828 0.51172-0.019532 1.1211 0.48047 1.3594 2.4102 1.1602 4.8086 1.6797 7.1211 1.5391 1.5586-0.078125 2.7188-0.44922 3.7305-0.76953 1.0898-0.33984 2.0391-0.62891 3.3281-0.57812 1.75 0.070313 3.5 0.73047 5.1992 1.9688 0.17969 0.12891 0.39844 0.19141 0.60938 0.19141 0.32031 0 0.62891-0.14062 0.82812-0.42188 0.32812-0.46094 0.23828-1.1016-0.23047-1.4414-1.5312-1.1094-3.1094-1.8398-4.7188-2.1602-0.33984-0.070313-0.67969-0.12109-1.0312-0.14844v-3.1016l0.007812-1.7656zm-5.8281-1.9609c-0.16016 0-0.32031-0.070312-0.42188-0.21094-0.16016-0.23828-0.10938-0.55078 0.12109-0.71875l2.3906-1.7109c0.23047-0.16016 0.53906-0.10938 0.71094 0.10938 0.16016 0.23828 0.10938 0.55078-0.10938 0.71875l-2.3906 1.7109c-0.089843 0.0625-0.19141 0.10156-0.30078 0.10156zm1.7109 7.3125c-0.44922-0.30859-0.85938-0.69141-1.2188-1.1211-0.17969-0.21875-0.14844-0.53906 0.058593-0.71875 0.23047-0.17969 0.53906-0.14844 0.73047 0.058593 0.35156 0.42969 0.76953 0.78906 1.2305 1.0898 0.21094 0.12109 0.42188 0.23828 0.64062 0.32812-0.52344 0.09375-0.98047 0.23438-1.4414 0.36328zm1.6172-13.152h-0.078125c-0.25 0-0.46875-0.17188-0.5-0.42969l-0.42969-2.9102c-0.039062-0.28125 0.14844-0.53125 0.42969-0.57031 0.28125-0.039062 0.53906 0.14844 0.57812 0.42969l0.42969 2.8984c0.042969 0.27344-0.15625 0.54297-0.42969 0.58203zm1.6719-6.3594c-0.25-0.14062-0.33984-0.44922-0.21094-0.69922 0.12891-0.26172 0.44922-0.33984 0.69922-0.21875l2.5898 1.3984c0.25 0.12891 0.33984 0.44922 0.21094 0.69922-0.089843 0.17188-0.26953 0.26953-0.44922 0.26953-0.078125 0-0.16016-0.019531-0.25-0.058593z"/>
 <path d="m16.422 55.199c0.94141-0.17188 1.8594-0.16016 2.7305 0.03125 0.80859 0.17969 1.3203 0.48047 1.8711 0.78125 0.57031 0.32812 1.1719 0.67188 2 0.80078 0.26172 0.039062 0.5 0.058594 0.76172 0.058594 1.0586 0 2.1602-0.35156 3.3008-1.0586l-0.007813-2.5117c-0.039063 0.03125-0.078125 0.058594-0.12109 0.089844-1.3594 1.1016-2.5703 1.5586-3.6016 1.3984-0.48047-0.078124-0.83984-0.28125-1.3281-0.55859-0.57812-0.32812-1.3086-0.73828-2.4219-1-1.1406-0.26172-2.3281-0.28125-3.5508-0.050781-0.55859 0.10156-0.92188 0.64844-0.82031 1.1992 0.09375 0.55078 0.63672 0.91016 1.1875 0.82031z"/>
 <path d="m71.051 61.32h10.762c0.32031 0 0.57031-0.26172 0.57031-0.57031l-0.003906-35.5c0-0.32031-0.26172-0.57031-0.57031-0.57031h-10.758c-1.6016 0-2.8984 1.3008-2.8984 2.8984v30.809c-0.003906 1.625 1.2969 2.9336 2.8984 2.9336z"/>
<text x="0.0" y="117.5" font-size="5.0" font-weight="bold" font-family="Arbeit Regular, Helvetica, Arial-Unicode, Arial, Sans-serif" fill="#000000">Created by Mamank</text><text x="0.0" y="122.5" font-size="5.0" font-weight="bold" font-family="Arbeit Regular, Helvetica, Arial-Unicode, Arial, Sans-serif" fill="#000000">from Noun Project</text></svg>